<svg width="263" height="39" viewBox="0 0 263 39" fill="none" xmlns="http://www.w3.org/2000/svg">
<path d="M76.5341 21.3636V33H74.7727V23.125H74.7045L71.9205 24.9432V23.2614L74.8239 21.3636H76.5341ZM83.733 33.1932C82.8352 33.1894 82.0682 32.9527 81.4318 32.483C80.7955 32.0133 80.3087 31.3295 79.9716 30.4318C79.6345 29.5341 79.4659 28.4527 79.4659 27.1875C79.4659 25.9261 79.6345 24.8485 79.9716 23.9545C80.3125 23.0606 80.8011 22.3788 81.4375 21.9091C82.0777 21.4394 82.8428 21.2045 83.733 21.2045C84.6231 21.2045 85.3864 21.4413 86.0227 21.9148C86.6591 22.3845 87.1458 23.0663 87.483 23.9602C87.8239 24.8504 87.9943 25.9261 87.9943 27.1875C87.9943 28.4564 87.8258 29.5398 87.4886 30.4375C87.1515 31.3314 86.6648 32.0152 86.0284 32.4886C85.392 32.9583 84.6269 33.1932 83.733 33.1932ZM83.733 31.6761C84.5208 31.6761 85.1364 31.2917 85.5795 30.5227C86.0265 29.7538 86.25 28.642 86.25 27.1875C86.25 26.2216 86.1477 25.4053 85.9432 24.7386C85.7424 24.0682 85.4527 23.5606 85.0739 23.2159C84.6989 22.8674 84.2519 22.6932 83.733 22.6932C82.9489 22.6932 82.3333 23.0795 81.8864 23.8523C81.4394 24.625 81.214 25.7367 81.2102 27.1875C81.2102 28.1572 81.3106 28.9773 81.5114 29.6477C81.7159 30.3144 82.0057 30.8201 82.3807 31.1648C82.7557 31.5057 83.2064 31.6761 83.733 31.6761ZM94.267 33V24.2727H95.8977V25.6932H96.0057C96.1875 25.2121 96.4848 24.8371 96.8977 24.5682C97.3106 24.2955 97.8049 24.1591 98.3807 24.1591C98.964 24.1591 99.4527 24.2955 99.8466 24.5682C100.244 24.8409 100.538 25.2159 100.727 25.6932H100.818C101.027 25.2273 101.358 24.8561 101.812 24.5795C102.267 24.2992 102.809 24.1591 103.438 24.1591C104.229 24.1591 104.875 24.4072 105.375 24.9034C105.879 25.3996 106.131 26.1477 106.131 27.1477V33H104.432V27.3068C104.432 26.7159 104.271 26.2879 103.949 26.0227C103.627 25.7576 103.242 25.625 102.795 25.625C102.242 25.625 101.812 25.7955 101.506 26.1364C101.199 26.4735 101.045 26.9072 101.045 27.4375V33H99.3523V27.1989C99.3523 26.7254 99.2045 26.3447 98.9091 26.0568C98.6136 25.7689 98.2292 25.625 97.7557 25.625C97.4337 25.625 97.1364 25.7102 96.8636 25.8807C96.5947 26.0473 96.3769 26.2803 96.2102 26.5795C96.0473 26.8788 95.9659 27.2254 95.9659 27.6193V33H94.267ZM108.408 33V24.2727H110.107V33H108.408ZM109.266 22.9261C108.97 22.9261 108.716 22.8277 108.504 22.6307C108.296 22.4299 108.192 22.1913 108.192 21.9148C108.192 21.6345 108.296 21.3958 108.504 21.1989C108.716 20.9981 108.97 20.8977 109.266 20.8977C109.561 20.8977 109.813 20.9981 110.021 21.1989C110.233 21.3958 110.339 21.6345 110.339 21.9148C110.339 22.1913 110.233 22.4299 110.021 22.6307C109.813 22.8277 109.561 22.9261 109.266 22.9261ZM114.091 27.8182V33H112.392V24.2727H114.023V25.6932H114.131C114.331 25.2311 114.646 24.8598 115.074 24.5795C115.506 24.2992 116.049 24.1591 116.705 24.1591C117.299 24.1591 117.82 24.2841 118.267 24.5341C118.714 24.7803 119.061 25.1477 119.307 25.6364C119.553 26.125 119.676 26.7292 119.676 27.4489V33H117.977V27.6534C117.977 27.0208 117.813 26.5265 117.483 26.1705C117.153 25.8106 116.701 25.6307 116.125 25.6307C115.731 25.6307 115.381 25.7159 115.074 25.8864C114.771 26.0568 114.53 26.3068 114.352 26.6364C114.178 26.9621 114.091 27.3561 114.091 27.8182ZM127.483 29.3807V24.2727H129.188V33H127.517V31.4886H127.426C127.225 31.9545 126.903 32.3428 126.46 32.6534C126.021 32.9602 125.473 33.1136 124.818 33.1136C124.258 33.1136 123.761 32.9905 123.33 32.7443C122.902 32.4943 122.564 32.125 122.318 31.6364C122.076 31.1477 121.955 30.5436 121.955 29.8239V24.2727H123.653V29.6193C123.653 30.214 123.818 30.6875 124.148 31.0398C124.477 31.392 124.905 31.5682 125.432 31.5682C125.75 31.5682 126.066 31.4886 126.381 31.3295C126.699 31.1705 126.962 30.9299 127.17 30.608C127.383 30.286 127.487 29.8769 127.483 29.3807ZM135.544 24.2727V25.6364H130.777V24.2727H135.544ZM132.055 22.1818H133.754V30.4375C133.754 30.767 133.804 31.0152 133.902 31.1818C134 31.3447 134.127 31.4564 134.283 31.517C134.442 31.5739 134.614 31.6023 134.8 31.6023C134.936 31.6023 135.055 31.5928 135.158 31.5739C135.26 31.5549 135.339 31.5398 135.396 31.5284L135.703 32.9318C135.605 32.9697 135.464 33.0076 135.283 33.0455C135.101 33.0871 134.874 33.1098 134.601 33.1136C134.154 33.1212 133.737 33.0417 133.351 32.875C132.964 32.7083 132.652 32.4508 132.413 32.1023C132.175 31.7538 132.055 31.3163 132.055 30.7898V22.1818ZM141.091 33.1761C140.231 33.1761 139.491 32.9924 138.869 32.625C138.252 32.2538 137.775 31.733 137.438 31.0625C137.104 30.3883 136.938 29.5985 136.938 28.6932C136.938 27.7992 137.104 27.0114 137.438 26.3295C137.775 25.6477 138.244 25.1155 138.847 24.733C139.453 24.3504 140.161 24.1591 140.972 24.1591C141.464 24.1591 141.941 24.2405 142.403 24.4034C142.866 24.5663 143.28 24.822 143.648 25.1705C144.015 25.5189 144.305 25.9716 144.517 26.5284C144.729 27.0814 144.835 27.7538 144.835 28.5455V29.1477H137.898V27.875H143.17C143.17 27.428 143.08 27.0322 142.898 26.6875C142.716 26.339 142.46 26.0644 142.131 25.8636C141.805 25.6629 141.422 25.5625 140.983 25.5625C140.506 25.5625 140.089 25.6799 139.733 25.9148C139.381 26.1458 139.108 26.4489 138.915 26.8239C138.725 27.1951 138.631 27.5985 138.631 28.0341V29.0284C138.631 29.6117 138.733 30.108 138.938 30.517C139.146 30.9261 139.436 31.2386 139.807 31.4545C140.178 31.6667 140.612 31.7727 141.108 31.7727C141.43 31.7727 141.723 31.7273 141.989 31.6364C142.254 31.5417 142.483 31.4015 142.676 31.2159C142.869 31.0303 143.017 30.8011 143.119 30.5284L144.727 30.8182C144.598 31.2917 144.367 31.7064 144.034 32.0625C143.705 32.4148 143.29 32.6894 142.79 32.8864C142.294 33.0795 141.727 33.1761 141.091 33.1761ZM153.26 26.4034L151.72 26.6761C151.656 26.4792 151.554 26.2917 151.413 26.1136C151.277 25.9356 151.091 25.7898 150.857 25.6761C150.622 25.5625 150.328 25.5057 149.976 25.5057C149.495 25.5057 149.093 25.6136 148.771 25.8295C148.449 26.0417 148.288 26.3163 148.288 26.6534C148.288 26.9451 148.396 27.1799 148.612 27.358C148.828 27.536 149.177 27.6818 149.658 27.7955L151.044 28.1136C151.847 28.2992 152.446 28.5852 152.839 28.9716C153.233 29.358 153.43 29.8598 153.43 30.4773C153.43 31 153.279 31.4659 152.976 31.875C152.677 32.2803 152.258 32.5985 151.72 32.8295C151.186 33.0606 150.567 33.1761 149.862 33.1761C148.885 33.1761 148.088 32.9678 147.47 32.5511C146.853 32.1307 146.474 31.5341 146.334 30.7614L147.976 30.5114C148.078 30.9394 148.288 31.2633 148.607 31.483C148.925 31.6989 149.339 31.8068 149.851 31.8068C150.408 31.8068 150.853 31.6913 151.186 31.4602C151.519 31.2254 151.686 30.9394 151.686 30.6023C151.686 30.3295 151.584 30.1004 151.379 29.9148C151.179 29.7292 150.87 29.589 150.453 29.4943L148.976 29.1705C148.161 28.9848 147.559 28.6894 147.169 28.2841C146.783 27.8788 146.589 27.3655 146.589 26.7443C146.589 26.2292 146.733 25.7784 147.021 25.392C147.309 25.0057 147.707 24.7045 148.214 24.4886C148.722 24.2689 149.304 24.1591 149.959 24.1591C150.902 24.1591 151.644 24.3636 152.186 24.7727C152.728 25.178 153.086 25.7216 153.26 26.4034ZM159.533 33V24.2727H161.175V25.6591H161.266C161.425 25.1894 161.705 24.8201 162.107 24.5511C162.512 24.2784 162.97 24.142 163.482 24.142C163.588 24.142 163.713 24.1458 163.857 24.1534C164.004 24.161 164.12 24.1705 164.203 24.1818V25.8068C164.135 25.7879 164.014 25.767 163.839 25.7443C163.665 25.7178 163.491 25.7045 163.317 25.7045C162.915 25.7045 162.557 25.7898 162.243 25.9602C161.932 26.1269 161.686 26.3598 161.504 26.6591C161.322 26.9545 161.232 27.2917 161.232 27.6705V33H159.533ZM169.122 33.1761C168.262 33.1761 167.522 32.9924 166.901 32.625C166.283 32.2538 165.806 31.733 165.469 31.0625C165.135 30.3883 164.969 29.5985 164.969 28.6932C164.969 27.7992 165.135 27.0114 165.469 26.3295C165.806 25.6477 166.276 25.1155 166.878 24.733C167.484 24.3504 168.192 24.1591 169.003 24.1591C169.495 24.1591 169.973 24.2405 170.435 24.4034C170.897 24.5663 171.312 24.822 171.679 25.1705C172.046 25.5189 172.336 25.9716 172.548 26.5284C172.76 27.0814 172.866 27.7538 172.866 28.5455V29.1477H165.929V27.875H171.202C171.202 27.428 171.111 27.0322 170.929 26.6875C170.747 26.339 170.491 26.0644 170.162 25.8636C169.836 25.6629 169.454 25.5625 169.014 25.5625C168.537 25.5625 168.12 25.6799 167.764 25.9148C167.412 26.1458 167.139 26.4489 166.946 26.8239C166.757 27.1951 166.662 27.5985 166.662 28.0341V29.0284C166.662 29.6117 166.764 30.108 166.969 30.517C167.177 30.9261 167.467 31.2386 167.838 31.4545C168.209 31.6667 168.643 31.7727 169.139 31.7727C169.461 31.7727 169.755 31.7273 170.02 31.6364C170.285 31.5417 170.514 31.4015 170.707 31.2159C170.901 31.0303 171.048 30.8011 171.151 30.5284L172.759 30.8182C172.63 31.2917 172.399 31.7064 172.065 32.0625C171.736 32.4148 171.321 32.6894 170.821 32.8864C170.325 33.0795 169.759 33.1761 169.122 33.1761ZM177.291 33.1932C176.738 33.1932 176.238 33.0909 175.791 32.8864C175.344 32.678 174.99 32.3769 174.729 31.983C174.471 31.589 174.342 31.1061 174.342 30.5341C174.342 30.0417 174.437 29.6364 174.626 29.3182C174.816 29 175.071 28.7481 175.393 28.5625C175.715 28.3769 176.075 28.2367 176.473 28.142C176.871 28.0473 177.276 27.9754 177.689 27.9261C178.212 27.8655 178.636 27.8163 178.962 27.7784C179.287 27.7367 179.524 27.6705 179.672 27.5795C179.82 27.4886 179.893 27.3409 179.893 27.1364V27.0966C179.893 26.6004 179.753 26.2159 179.473 25.9432C179.196 25.6705 178.784 25.5341 178.234 25.5341C177.662 25.5341 177.212 25.661 176.882 25.9148C176.556 26.1648 176.331 26.4432 176.206 26.75L174.609 26.3864C174.799 25.8561 175.075 25.428 175.439 25.1023C175.806 24.7727 176.229 24.5341 176.706 24.3864C177.183 24.2348 177.685 24.1591 178.212 24.1591C178.56 24.1591 178.929 24.2008 179.32 24.2841C179.714 24.3636 180.081 24.5114 180.422 24.7273C180.767 24.9432 181.049 25.2519 181.268 25.6534C181.488 26.0511 181.598 26.5682 181.598 27.2045V33H179.939V31.8068H179.871C179.761 32.0265 179.596 32.2424 179.376 32.4545C179.157 32.6667 178.875 32.8428 178.53 32.983C178.185 33.1231 177.772 33.1932 177.291 33.1932ZM177.661 31.8295C178.13 31.8295 178.532 31.7367 178.865 31.5511C179.202 31.3655 179.458 31.1231 179.632 30.8239C179.81 30.5208 179.899 30.197 179.899 29.8523V28.7273C179.839 28.7879 179.721 28.8447 179.547 28.8977C179.376 28.947 179.181 28.9905 178.962 29.0284C178.742 29.0625 178.528 29.0947 178.32 29.125C178.111 29.1515 177.937 29.1742 177.797 29.1932C177.467 29.2348 177.166 29.3049 176.893 29.4034C176.625 29.5019 176.409 29.6439 176.246 29.8295C176.087 30.0114 176.007 30.2538 176.007 30.5568C176.007 30.9773 176.162 31.2955 176.473 31.5114C176.784 31.7235 177.179 31.8295 177.661 31.8295ZM187.128 33.1705C186.423 33.1705 185.795 32.9905 185.241 32.6307C184.692 32.267 184.26 31.75 183.946 31.0795C183.635 30.4053 183.48 29.5966 183.48 28.6534C183.48 27.7102 183.637 26.9034 183.952 26.233C184.27 25.5625 184.705 25.0492 185.259 24.6932C185.812 24.3371 186.438 24.1591 187.139 24.1591C187.681 24.1591 188.116 24.25 188.446 24.4318C188.779 24.6098 189.037 24.8182 189.219 25.0568C189.404 25.2955 189.548 25.5057 189.651 25.6875H189.753V21.3636H191.452V33H189.793V31.642H189.651C189.548 31.8277 189.401 32.0398 189.207 32.2784C189.018 32.517 188.757 32.7254 188.423 32.9034C188.09 33.0814 187.658 33.1705 187.128 33.1705ZM187.503 31.7216C187.991 31.7216 188.404 31.5928 188.741 31.3352C189.082 31.0739 189.34 30.7121 189.514 30.25C189.692 29.7879 189.781 29.25 189.781 28.6364C189.781 28.0303 189.694 27.5 189.52 27.0455C189.346 26.5909 189.09 26.2367 188.753 25.983C188.416 25.7292 187.999 25.6023 187.503 25.6023C186.991 25.6023 186.565 25.7348 186.224 26C185.884 26.2652 185.626 26.6269 185.452 27.0852C185.281 27.5436 185.196 28.0606 185.196 28.6364C185.196 29.2197 185.283 29.7443 185.457 30.2102C185.632 30.6761 185.889 31.0455 186.23 31.3182C186.575 31.5871 186.999 31.7216 187.503 31.7216Z" fill="#475569"/>
<rect width="263" height="7" rx="3.5" fill="#F1F5F9"/>
<rect width="55" height="7" rx="3.5" fill="#001070"/>
</svg>
