<svg width="44" height="44" viewBox="0 0 44 44" fill="none" xmlns="http://www.w3.org/2000/svg">
<g clip-path="url(#clip0_701_4839)">
<path d="M32.1621 15.6559C31.3986 15.9936 30.589 16.2154 29.7601 16.3139C30.6338 15.7914 31.2878 14.9689 31.6001 13.9999C30.7801 14.4879 29.8811 14.8299 28.9441 15.0149C28.3147 14.3415 27.4804 13.8949 26.571 13.7445C25.6616 13.5941 24.728 13.7484 23.9153 14.1834C23.1026 14.6183 22.4564 15.3096 22.0772 16.1497C21.6979 16.9898 21.6068 17.9317 21.8181 18.8289C20.1552 18.7456 18.5284 18.3135 17.0433 17.5606C15.5583 16.8077 14.2482 15.751 13.1981 14.4589C12.8263 15.0974 12.631 15.8232 12.6321 16.5619C12.6321 18.0119 13.3701 19.2929 14.4921 20.0429C13.8281 20.022 13.1787 19.8427 12.5981 19.5199V19.5719C12.5983 20.5376 12.9324 21.4735 13.5439 22.221C14.1554 22.9684 15.0065 23.4814 15.9531 23.6729C15.3367 23.84 14.6904 23.8646 14.0631 23.7449C14.3299 24.5762 14.8501 25.3031 15.5506 25.824C16.2512 26.3449 17.0972 26.6337 17.9701 26.6499C17.1025 27.3313 16.1092 27.8349 15.0469 28.1321C13.9846 28.4293 12.8742 28.5142 11.7791 28.3819C13.6908 29.6114 15.9161 30.264 18.1891 30.2619C25.8821 30.2619 30.0891 23.8889 30.0891 18.3619C30.0891 18.1819 30.0841 17.9999 30.0761 17.8219C30.8949 17.2301 31.6017 16.4969 32.1631 15.6569L32.1621 15.6559Z" fill="#069EEC"/>
</g>
<rect x="0.5" y="0.5" width="43" height="43" rx="7.5" stroke="#E2E8F0"/>
<defs>
<clipPath id="clip0_701_4839">
<rect width="24" height="24" fill="white" transform="translate(10 10)"/>
</clipPath>
</defs>
</svg>
