<svg width="32" height="32" viewBox="0 0 32 32" fill="none" xmlns="http://www.w3.org/2000/svg">
<g clip-path="url(#clip0_701_2919)">
<path d="M24.7652 27.0689H30.834C31.4434 27.0689 31.9376 26.575 31.9376 25.9656V6.10352C31.9376 5.4939 31.4434 5 30.834 5H1.04102C0.431397 5 -0.0625 5.49414 -0.0625 6.10352V25.9656C-0.0625 26.575 0.431397 27.0689 1.04102 27.0689H24.7652Z" fill="#006837"/>
<path d="M22.0064 16.0344C22.0064 19.3862 19.2893 22.1035 15.9375 22.1035C12.5857 22.1035 9.86865 19.3862 9.86865 16.0344C9.86865 12.6826 12.5857 9.96558 15.9375 9.96558C19.2893 9.96558 22.0064 12.6826 22.0064 16.0344Z" fill="#DF0000"/>
</g>
<defs>
<clipPath id="clip0_701_2919">
<rect width="32" height="32" fill="white"/>
</clipPath>
</defs>
</svg>
