<svg width="24" height="25" viewBox="0 0 24 25" fill="none" xmlns="http://www.w3.org/2000/svg">
<path d="M2 5.82031L8.91302 9.74493C11.4387 11.1788 12.5613 11.1788 15.087 9.74493L22 5.82031" stroke="#001070" stroke-width="1.5" stroke-linejoin="round"/>
<path d="M10.5 20.3203C10.0337 20.3142 9.56682 20.3053 9.09883 20.2935C5.95033 20.2144 4.37608 20.1748 3.24496 19.0387C2.11383 17.9026 2.08114 16.369 2.01577 13.3017C1.99475 12.3154 1.99474 11.335 2.01576 10.3487C2.08114 7.28144 2.11382 5.74779 3.24495 4.6117C4.37608 3.47561 5.95033 3.43604 9.09882 3.35689C11.0393 3.30811 12.9607 3.30812 14.9012 3.3569C18.0497 3.43605 19.6239 3.47563 20.755 4.61172C21.8862 5.7478 21.9189 7.28145 21.9842 10.3488C21.9939 10.8028 21.9991 11.0168 21.9999 11.3203" stroke="#001070" stroke-width="1.5" stroke-linecap="round" stroke-linejoin="round"/>
<path d="M19 17.8203C19 18.6487 18.3284 19.3203 17.5 19.3203C16.6716 19.3203 16 18.6487 16 17.8203C16 16.9919 16.6716 16.3203 17.5 16.3203C18.3284 16.3203 19 16.9919 19 17.8203ZM19 17.8203V18.3203C19 19.1487 19.6716 19.8203 20.5 19.8203C21.3284 19.8203 22 19.1487 22 18.3203V17.8203C22 15.335 19.9853 13.3203 17.5 13.3203C15.0147 13.3203 13 15.335 13 17.8203C13 20.3056 15.0147 22.3203 17.5 22.3203" stroke="#001070" stroke-width="1.5" stroke-linecap="round" stroke-linejoin="round"/>
</svg>
