<svg width="24" height="25" viewBox="0 0 24 25" fill="none" xmlns="http://www.w3.org/2000/svg">
<g clip-path="url(#clip0_701_2996)">
<path d="M12 9.82031C11.2044 9.82031 10.4413 10.1364 9.87868 10.699C9.31607 11.2616 9 12.0247 9 12.8203C9 13.616 9.31607 14.379 9.87868 14.9416C10.4413 15.5042 11.2044 15.8203 12 15.8203C12.7956 15.8203 13.5587 15.5042 14.1213 14.9416C14.6839 14.379 15 13.616 15 12.8203C15 12.0247 14.6839 11.2616 14.1213 10.699C13.5587 10.1364 12.7956 9.82031 12 9.82031ZM12 7.82031C13.3261 7.82031 14.5979 8.3471 15.5355 9.28478C16.4732 10.2225 17 11.4942 17 12.8203C17 14.1464 16.4732 15.4182 15.5355 16.3558C14.5979 17.2935 13.3261 17.8203 12 17.8203C10.6739 17.8203 9.40215 17.2935 8.46447 16.3558C7.52678 15.4182 7 14.1464 7 12.8203C7 11.4942 7.52678 10.2225 8.46447 9.28478C9.40215 8.3471 10.6739 7.82031 12 7.82031ZM18.5 7.57031C18.5 7.90183 18.3683 8.21978 18.1339 8.4542C17.8995 8.68862 17.5815 8.82031 17.25 8.82031C16.9185 8.82031 16.6005 8.68862 16.3661 8.4542C16.1317 8.21978 16 7.90183 16 7.57031C16 7.23879 16.1317 6.92085 16.3661 6.68643C16.6005 6.45201 16.9185 6.32031 17.25 6.32031C17.5815 6.32031 17.8995 6.45201 18.1339 6.68643C18.3683 6.92085 18.5 7.23879 18.5 7.57031ZM12 4.82031C9.526 4.82031 9.122 4.82731 7.971 4.87831C7.187 4.91531 6.661 5.02031 6.173 5.21031C5.739 5.37831 5.426 5.57931 5.093 5.91331C4.78001 6.21571 4.53935 6.5849 4.389 6.99331C4.199 7.48331 4.094 8.00831 4.058 8.79131C4.006 9.89531 4 10.2813 4 12.8203C4 15.2943 4.007 15.6983 4.058 16.8493C4.095 17.6323 4.2 18.1593 4.389 18.6463C4.559 19.0813 4.759 19.3943 5.091 19.7263C5.428 20.0623 5.741 20.2633 6.171 20.4293C6.665 20.6203 7.191 20.7263 7.971 20.7623C9.075 20.8143 9.461 20.8203 12 20.8203C14.474 20.8203 14.878 20.8133 16.029 20.7623C16.811 20.7253 17.338 20.6203 17.826 20.4313C18.259 20.2623 18.574 20.0613 18.906 19.7293C19.243 19.3923 19.444 19.0793 19.61 18.6493C19.8 18.1563 19.906 17.6293 19.942 16.8493C19.994 15.7453 20 15.3593 20 12.8203C20 10.3463 19.993 9.94231 19.942 8.79131C19.905 8.00931 19.8 7.48131 19.61 6.99331C19.4593 6.58531 19.2191 6.21627 18.907 5.91331C18.6047 5.60016 18.2355 5.35948 17.827 5.20931C17.337 5.01931 16.811 4.91431 16.029 4.87831C14.925 4.82631 14.539 4.82031 12 4.82031ZM12 2.82031C14.717 2.82031 15.056 2.83031 16.122 2.88031C17.187 2.93031 17.912 3.09731 18.55 3.34531C19.21 3.59931 19.766 3.94331 20.322 4.49831C20.8305 4.99821 21.224 5.6029 21.475 6.27031C21.722 6.90731 21.89 7.63331 21.94 8.69831C21.987 9.76431 22 10.1033 22 12.8203C22 15.5373 21.99 15.8763 21.94 16.9423C21.89 18.0073 21.722 18.7323 21.475 19.3703C21.2247 20.0381 20.8311 20.6429 20.322 21.1423C19.822 21.6506 19.2173 22.0441 18.55 22.2953C17.913 22.5423 17.187 22.7103 16.122 22.7603C15.056 22.8073 14.717 22.8203 12 22.8203C9.283 22.8203 8.944 22.8103 7.878 22.7603C6.813 22.7103 6.088 22.5423 5.45 22.2953C4.78233 22.0448 4.17753 21.6513 3.678 21.1423C3.16941 20.6425 2.77593 20.0378 2.525 19.3703C2.277 18.7333 2.11 18.0073 2.06 16.9423C2.013 15.8763 2 15.5373 2 12.8203C2 10.1033 2.01 9.76431 2.06 8.69831C2.11 7.63231 2.277 6.90831 2.525 6.27031C2.77524 5.60249 3.1688 4.99763 3.678 4.49831C4.17767 3.98954 4.78243 3.59604 5.45 3.34531C6.088 3.09731 6.812 2.93031 7.878 2.88031C8.944 2.83331 9.283 2.82031 12 2.82031Z" fill="#475569"/>
</g>
<defs>
<clipPath id="clip0_701_2996">
<rect width="24" height="24" fill="white" transform="translate(0 0.820312)"/>
</clipPath>
</defs>
</svg>
