<svg width="24" height="25" viewBox="0 0 24 25" fill="none" xmlns="http://www.w3.org/2000/svg">
<g clip-path="url(#clip0_701_2990)">
<path d="M6.94 5.82034C6.93974 6.35077 6.72877 6.85937 6.35351 7.23426C5.97825 7.60914 5.46944 7.8196 4.939 7.81934C4.40857 7.81907 3.89997 7.6081 3.52508 7.23284C3.1502 6.85758 2.93974 6.34877 2.94 5.81834C2.94027 5.2879 3.15124 4.7793 3.5265 4.40442C3.90176 4.02953 4.41057 3.81907 4.941 3.81934C5.47144 3.8196 5.98004 4.03057 6.35492 4.40583C6.72981 4.78109 6.94027 5.2899 6.94 5.82034ZM7 9.30034H3V21.8203H7V9.30034ZM13.32 9.30034H9.34V21.8203H13.28V15.2503C13.28 11.5903 18.05 11.2503 18.05 15.2503V21.8203H22V13.8903C22 7.72034 14.94 7.95034 13.28 10.9803L13.32 9.30034Z" fill="#475569"/>
</g>
<defs>
<clipPath id="clip0_701_2990">
<rect width="24" height="24" fill="white" transform="translate(0 0.820312)"/>
</clipPath>
</defs>
</svg>
