<svg width="155" height="40" viewBox="0 0 155 40" fill="none" xmlns="http://www.w3.org/2000/svg">
<g clip-path="url(#clip0_446_1694)">
<path d="M67.1719 22.1053C67.1719 25.2756 67.1719 28.4459 67.1719 31.6162C67.1772 31.8447 67.1636 32.0734 67.1313 32.2997C66.9789 33.2243 66.3705 33.7607 65.399 33.8358C65.2946 33.8441 65.1903 33.8452 65.0859 33.8452C62.5188 33.8452 59.9513 33.8452 57.3835 33.8452C57.1864 33.8449 56.9898 33.8267 56.796 33.7909C55.98 33.6333 55.4947 33.1283 55.3726 32.3091C55.3374 32.0728 55.3192 31.8342 55.3184 31.5953C55.3184 25.2645 55.3184 18.9337 55.3184 12.6028C55.3199 12.3745 55.3366 12.1465 55.3684 11.9204C55.4968 10.9812 56.0989 10.4104 57.0486 10.3373C57.1936 10.3269 57.3397 10.3248 57.4848 10.3248C59.9795 10.3248 62.4743 10.3248 64.969 10.3248C65.2075 10.321 65.4458 10.3399 65.6807 10.3811C66.5479 10.5492 67.0446 11.0939 67.1417 11.9694C67.1628 12.1774 67.1719 12.3865 67.1688 12.5955C67.1723 15.7623 67.1733 18.9323 67.1719 22.1053ZM63.649 30.8189V13.3448H58.8591V30.8147L63.649 30.8189Z" fill="#001070"/>
<path d="M78.1725 23.175C79.4707 26.7449 80.7532 30.2711 82.0461 33.8264H78.3875C78.2299 33.3829 78.0744 32.9436 77.9158 32.5042C76.8152 29.4014 75.7156 26.2986 74.6171 23.1958C74.5571 23.0203 74.5247 22.8366 74.5211 22.6511C74.5086 22.1523 74.5211 21.6535 74.5211 21.1547V20.8114H77.9168C77.9878 20.5494 78.0055 13.7508 77.9471 13.373C77.7144 13.3114 73.8773 13.3031 73.536 13.373V33.8264H70.0381V10.3467C70.1268 10.3394 70.2155 10.3258 70.3042 10.3258C73.3284 10.3258 76.3546 10.3258 79.383 10.3258C79.5907 10.3253 79.798 10.3452 80.0018 10.3853C80.8367 10.5523 81.325 11.0845 81.4325 11.934C81.4598 12.1503 81.4741 12.3681 81.4753 12.5862C81.4753 15.3689 81.4753 18.1545 81.4753 20.9428C81.4773 21.2541 81.4423 21.5645 81.3709 21.8674C81.204 22.5332 80.7814 22.9652 80.0853 23.0571C79.5823 23.1228 79.0731 23.1405 78.5659 23.1771C78.4511 23.1812 78.3332 23.175 78.1725 23.175Z" fill="#001070"/>
<path d="M52.526 17.9677H49.0677V13.397C48.8225 13.3114 45.0052 13.2864 44.5367 13.3553C44.4699 13.5827 44.4553 30.4693 44.5262 30.8137H49.0427C49.0688 30.4923 49.0521 30.174 49.0552 29.8568C49.0552 29.5239 49.0552 29.192 49.0552 28.8592V25.9372C49.3192 25.8611 52.2453 25.8569 52.5427 25.9372V26.2346C52.5427 28.065 52.5427 29.8944 52.5427 31.7237C52.5388 31.9933 52.5038 32.2615 52.4384 32.523C52.2745 33.2076 51.8195 33.6125 51.1444 33.7669C50.9213 33.8161 50.6935 33.8409 50.465 33.841C47.9807 33.8466 45.4964 33.8466 43.012 33.841C42.7731 33.8417 42.535 33.8144 42.3024 33.7596C41.5667 33.576 41.1545 33.0782 41.0324 32.3456C40.977 32.0181 40.9491 31.6865 40.949 31.3543C40.9441 25.1494 40.9441 18.9438 40.949 12.7375C40.9498 12.4157 40.9806 12.0946 41.0408 11.7785C41.2005 10.9248 41.7974 10.4114 42.6844 10.3384C42.8399 10.3248 42.9974 10.3238 43.1519 10.3238H50.3241C50.6569 10.3131 50.9892 10.3543 51.3093 10.4459C51.5756 10.5196 51.818 10.6618 52.0124 10.8582C52.2069 11.0546 52.3465 11.2985 52.4175 11.5656C52.4936 11.8247 52.5343 12.0928 52.5385 12.3628C52.549 14.1369 52.5448 15.9171 52.5438 17.6943C52.5438 17.7788 52.5333 17.8602 52.526 17.9677Z" fill="#001070"/>
<path d="M93.9447 33.8295H84.2314V10.3384H93.8613V13.4137H87.7868C87.719 13.6662 87.6991 19.843 87.7628 20.3011C88.6237 20.3084 89.4919 20.3011 90.3612 20.3011H92.9701C93.0358 20.5411 93.0567 22.8056 92.9993 23.3336C92.1363 23.3649 91.268 23.343 90.4009 23.3472C89.5337 23.3513 88.6561 23.3472 87.792 23.3472C87.7137 23.5924 87.6803 29.8338 87.7503 30.7104C88.085 30.7359 88.4208 30.7425 88.7562 30.7302C89.0996 30.7302 89.4429 30.7302 89.7852 30.7302H93.9468L93.9447 33.8295Z" fill="#001070"/>
<path d="M102.818 33.8222C102.741 33.4935 102.745 10.6399 102.818 10.3613C102.891 10.3551 102.971 10.3415 103.052 10.3415C105.452 10.3415 107.852 10.3237 110.252 10.353C111.376 10.3655 112.393 10.7297 113.216 11.5363C113.844 12.1541 114.244 12.9669 114.349 13.8415C114.396 14.1916 114.419 14.5444 114.417 14.8976C114.421 19.6979 114.421 24.5003 114.417 29.3047C114.417 29.9309 114.367 30.557 114.151 31.1455C113.629 32.5679 112.592 33.3902 111.133 33.6918C110.695 33.777 110.25 33.8186 109.804 33.816C107.59 33.8285 105.376 33.8222 103.161 33.8222H102.818ZM106.262 30.8575H106.616C107.146 30.8575 107.676 30.8648 108.206 30.8575C108.6 30.8502 108.996 30.845 109.386 30.7991C110.221 30.702 110.764 30.173 110.908 29.3465C110.94 29.1523 110.957 28.9558 110.958 28.759C110.958 24.2989 110.958 19.8395 110.958 15.3807C110.958 15.2764 110.958 15.172 110.958 15.0677C110.897 14.1692 110.448 13.59 109.638 13.3918C109.416 13.3379 109.189 13.3099 108.96 13.3083C108.16 13.2978 107.36 13.3031 106.56 13.3083C106.456 13.3083 106.361 13.3198 106.27 13.326C106.201 13.6161 106.158 29.6053 106.219 30.5925C106.228 30.6814 106.241 30.7699 106.259 30.8575H106.262Z" fill="#FE7317"/>
<path d="M143.041 26.1355H146.477V30.8544C146.748 30.9316 150.395 30.9494 150.812 30.8826C150.829 30.7789 150.84 30.6744 150.845 30.5695C150.845 29.2286 150.845 27.8876 150.845 26.5467C150.846 26.4492 150.825 26.3528 150.783 26.2647C150.742 26.1765 150.681 26.0988 150.605 26.0374C148.466 24.0199 146.33 21.9982 144.196 19.9724C144.052 19.8367 143.91 19.7 143.767 19.5633C143.53 19.3425 143.341 19.0749 143.213 18.7774C143.085 18.48 143.02 18.1591 143.022 17.8352C143.009 15.9954 143.016 14.1557 143.022 12.3159C143.026 12.1081 143.054 11.9015 143.105 11.7002C143.32 10.8215 143.914 10.4354 144.794 10.3499C144.855 10.3499 144.918 10.3499 144.981 10.3499C147.434 10.3499 149.887 10.3499 152.341 10.3499C152.558 10.3506 152.775 10.3783 152.986 10.4323C153.349 10.5169 153.673 10.7218 153.906 11.0136C154.138 11.3055 154.265 11.6673 154.266 12.0404C154.28 12.4453 154.272 12.8512 154.272 13.2561C154.272 14.587 154.272 15.9175 154.272 17.2477V17.6129C154.037 17.688 151.321 17.7089 150.872 17.64C150.863 17.5179 150.844 17.3875 150.843 17.2581C150.843 16.0726 150.843 14.8872 150.843 13.7028C150.843 13.5608 150.825 13.4179 150.815 13.2624H146.503C146.493 13.3667 146.477 13.4575 146.477 13.5473C146.477 14.7995 146.483 16.0424 146.47 17.2894C146.47 17.5117 146.574 17.6317 146.712 17.7621C148.96 19.8784 151.207 21.9947 153.455 24.111C153.856 24.4634 154.131 24.9379 154.236 25.4614C154.259 25.5835 154.27 25.7076 154.27 25.8318C154.27 27.8897 154.27 29.9479 154.27 32.0065C154.27 32.81 153.832 33.6375 152.732 33.7805C152.537 33.8083 152.341 33.8247 152.145 33.8295C149.796 33.8295 147.449 33.8358 145.096 33.8295C144.807 33.8249 144.519 33.7839 144.24 33.7075C143.98 33.6442 143.742 33.5119 143.551 33.3245C143.36 33.1372 143.223 32.9017 143.155 32.643C143.075 32.3855 143.031 32.1177 143.026 31.8479C143.014 30.0185 143.019 28.1892 143.019 26.3599C143.022 26.2868 143.032 26.2263 143.041 26.1355Z" fill="#FE7317"/>
<path d="M137.578 10.3582H140.974C140.985 10.4226 140.99 10.488 140.987 10.5533C139.505 18.2999 138.022 26.0517 136.537 33.8087C136.424 33.8201 136.333 33.8368 136.244 33.8368C135.288 33.8368 134.332 33.8368 133.375 33.8368C133.074 33.8368 133.068 33.8191 133.015 33.5363C132.717 31.9449 132.409 30.3556 132.105 28.7642C131.722 26.7557 131.339 24.7469 130.957 22.7377C130.575 20.7286 130.19 18.7204 129.803 16.7134C129.416 14.6847 129.03 12.6557 128.646 10.6264C128.631 10.5471 128.625 10.4657 128.612 10.3624H132.056C132.122 10.7443 132.191 11.1294 132.253 11.5103C132.52 13.1284 132.784 14.7473 133.047 16.3669C133.305 17.9552 133.562 19.5434 133.82 21.1317C134.056 22.5864 134.283 24.0442 134.538 25.4958C134.645 26.1935 134.714 26.8965 134.746 27.6017C134.749 27.7272 134.773 27.8514 134.817 27.969C134.841 27.6632 134.854 27.3564 134.892 27.0528C134.984 26.3223 135.075 25.5918 135.19 24.8613C135.422 23.3847 135.669 21.9102 135.911 20.4357C136.17 18.8578 136.431 17.2803 136.691 15.7032C136.952 14.1261 137.211 12.5482 137.467 10.9697C137.502 10.7735 137.54 10.5711 137.578 10.3582Z" fill="#FE7317"/>
<path d="M117.23 33.8014V10.3926C117.472 10.3311 126.327 10.3092 126.771 10.3655C126.84 10.5899 126.851 13.0224 126.771 13.3793H121.086C120.661 13.3793 120.66 13.3793 120.66 13.8113C120.66 15.8378 120.66 17.8647 120.66 19.892C120.66 20.0224 120.674 20.1539 120.684 20.3167H125.951C125.96 21.329 125.951 22.3078 125.951 23.3242H120.689C120.675 23.4547 120.656 23.5538 120.656 23.6519C120.656 25.9177 120.656 28.1833 120.656 30.4485C120.656 30.5299 120.669 30.6113 120.679 30.7271C120.807 30.7354 120.926 30.75 121.046 30.75C122.865 30.75 124.683 30.75 126.501 30.75C126.623 30.75 126.744 30.7636 126.879 30.772V33.7982L117.23 33.8014Z" fill="#FE7317"/>
<path d="M13.6776 16.8647C13.6804 16.9189 13.6697 16.9729 13.6463 17.0219C13.623 17.071 13.5878 17.1134 13.544 17.1454C11.052 19.2325 8.56109 21.322 6.0712 23.414C6.01903 23.4578 5.96685 23.5037 5.9105 23.5559L0.0322266 18.6147C0.0668981 18.5321 0.122681 18.4602 0.193974 18.406C4.62485 14.6986 9.05295 10.9882 13.4783 7.27453L13.6744 7.11383V7.31001C13.6744 10.4949 13.6755 13.6798 13.6776 16.8647Z" fill="#001070"/>
<path d="M29.6137 28.3551C29.6168 28.4071 29.6069 28.4591 29.5848 28.5063C29.5628 28.5535 29.5293 28.5944 29.4874 28.6254C25.0148 32.3821 20.5432 36.1365 16.0727 39.8883C16.0351 39.9207 15.9944 39.9499 15.9329 39.9989C15.9329 39.9165 15.9256 39.8581 15.9256 39.8007V34.8084C15.9256 33.2869 15.9256 31.7651 15.9256 30.2429C15.922 30.1912 15.9313 30.1395 15.9526 30.0924C15.9739 30.0452 16.0065 30.0041 16.0476 29.9726C18.548 27.8772 21.0462 25.7796 23.5424 23.68C23.5893 23.6414 23.6342 23.6007 23.6999 23.5433L23.6926 23.5371L29.5751 18.5813C29.6045 18.633 29.6187 18.692 29.6158 18.7514C29.6144 21.953 29.6137 25.1542 29.6137 28.3551Z" fill="#001070"/>
<path d="M13.6652 39.808V39.975C13.6047 39.929 13.5609 39.903 13.5285 39.8706L8.80961 35.9052C5.91622 33.4751 3.02213 31.0457 0.127344 28.6171C0.0843246 28.5833 0.050358 28.5395 0.0284994 28.4894C0.00664088 28.4393 -0.00242534 28.3845 0.00211789 28.3301C0.00211789 25.1598 0.00211789 21.9895 0.00211789 18.8192C6.54462e-05 18.7483 0.0110294 18.6775 0.0344674 18.6105L5.91274 23.5517H5.90752C5.99205 23.6227 6.06405 23.6853 6.13815 23.7468C8.60717 25.8228 11.0769 27.8974 13.5473 29.9705C13.5873 29.9998 13.6193 30.0387 13.6404 30.0835C13.6616 30.1284 13.6712 30.1777 13.6683 30.2272C13.6649 33.424 13.6638 36.6175 13.6652 39.808Z" fill="#FE7317"/>
<path d="M29.5715 18.5813L23.6891 23.5371C23.6379 23.4922 23.5993 23.4567 23.5597 23.4233L16.1109 17.1725C15.9355 17.0254 15.9355 17.0264 15.9355 16.7906V11.4758L19.9991 14.884C20.0117 14.8465 20.0214 14.8082 20.0283 14.7692C20.0283 14.7181 20.0283 14.6649 20.0283 14.6169V10.5784C20.0993 10.6305 20.1431 10.6598 20.1838 10.6932L23.591 13.5483C25.5577 15.1971 27.5251 16.8452 29.4932 18.4926C29.5244 18.5173 29.5508 18.5473 29.5715 18.5813Z" fill="#FE7317"/>
<path d="M19.9997 8.49754C19.9423 8.4558 19.9058 8.43181 19.8724 8.40467C18.6201 7.35487 17.3679 6.30611 16.1156 5.25839C16.0807 5.23072 16.0529 5.19502 16.0348 5.15432C16.0166 5.11362 16.0085 5.06913 16.0113 5.02464C16.0113 3.69586 16.0113 2.36743 16.0113 1.03935C16.0113 0.991351 16.0175 0.943348 16.0238 0.8703C16.0801 0.910998 16.1177 0.933956 16.1501 0.961088C17.3981 2.00463 18.6455 3.05026 19.8922 4.09797C19.9286 4.12421 19.9581 4.15893 19.9781 4.19911C19.9981 4.23929 20.008 4.28373 20.007 4.3286C20.0028 5.67686 20.0028 7.02545 20.007 8.37441C20.0059 8.40467 20.0028 8.43493 19.9997 8.49754Z" fill="#FE7317"/>
<path d="M22.9445 6.3082C23.0071 6.35829 23.0541 6.39377 23.099 6.43133C23.7905 7.01154 24.482 7.59106 25.1735 8.16988C25.2083 8.19418 25.2365 8.22673 25.2556 8.26461C25.2747 8.30249 25.2842 8.34451 25.2831 8.38693C25.2831 9.14141 25.2831 9.89694 25.2831 10.6514C25.2831 10.6859 25.2758 10.7203 25.2706 10.7735C25.2343 10.7528 25.1995 10.7298 25.1662 10.7046L23.0457 8.93062C23.0131 8.90796 22.9866 8.87766 22.9684 8.84237C22.9502 8.80708 22.9409 8.76787 22.9414 8.72817C22.9414 7.95804 22.9414 7.18686 22.9414 6.41672C22.9351 6.38542 22.9403 6.35724 22.9445 6.3082Z" fill="#FE7317"/>
<path d="M21.9961 2.98035C21.9554 2.95113 21.9261 2.93234 21.9001 2.91043C21.4492 2.53371 21.0005 2.15386 20.5435 1.77923C20.5032 1.74964 20.4709 1.71048 20.4496 1.66529C20.4283 1.62011 20.4186 1.57032 20.4214 1.52043C20.4266 1.06962 20.4214 0.618812 20.4214 0.163828C20.4214 0.113738 20.4266 0.0594751 20.4297 -0.00418091C20.4663 0.0102035 20.5013 0.0283934 20.5341 0.0500853L21.9324 1.22198C21.9568 1.23939 21.9767 1.26243 21.9903 1.28913C22.0039 1.31582 22.0109 1.34541 22.0107 1.37538C22.0107 1.89715 22.0107 2.40953 22.0107 2.92609C22.0073 2.94454 22.0024 2.96269 21.9961 2.98035Z" fill="#FE7317"/>
</g>
<defs>
<clipPath id="clip0_446_1694">
<rect width="154.279" height="40" fill="white"/>
</clipPath>
</defs>
</svg>
