<svg width="24" height="25" viewBox="0 0 24 25" fill="none" xmlns="http://www.w3.org/2000/svg">
<path d="M3.77762 12.7627C2.8296 11.1096 2.37185 9.75979 2.09584 8.39152C1.68762 6.36789 2.62181 4.39112 4.16938 3.12978C4.82345 2.59669 5.57323 2.77883 5.96 3.47271L6.83318 5.03922C7.52529 6.28088 7.87134 6.9017 7.8027 7.5599C7.73407 8.2181 7.26737 8.75417 6.33397 9.82632L3.77762 12.7627ZM3.77762 12.7627C5.69651 16.1086 8.70784 19.1216 12.0576 21.0427M12.0576 21.0427C13.7107 21.9907 15.0605 22.4485 16.4288 22.7245C18.4524 23.1327 20.4292 22.1985 21.6905 20.6509C22.2236 19.9969 22.0415 19.2471 21.3476 18.8603L19.7811 17.9871C18.5394 17.295 17.9186 16.949 17.2604 17.0176C16.6022 17.0862 16.0661 17.5529 14.994 18.4863L12.0576 21.0427Z" stroke="#001070" stroke-width="1.5" stroke-linejoin="round"/>
<path d="M14 7.65216C15.4232 8.25655 16.5638 9.39708 17.1682 10.8203M14.654 2.82031C18.1912 3.84107 20.9791 6.62883 22 10.1659" stroke="#001070" stroke-width="1.5" stroke-linecap="round"/>
</svg>
