<svg width="64" height="64" viewBox="0 0 64 64" fill="none" xmlns="http://www.w3.org/2000/svg">
<rect width="64" height="64" rx="12" fill="#FFE3D1"/>
<path d="M19.75 39L28.5 33.75L19.75 39ZM35.5 30.25L44.25 25L35.5 30.25ZM32 19.75V28.5V19.75ZM32 35.5V44.25V35.5ZM19.75 25L28.5 30.25L19.75 25ZM35.5 33.75L44.25 39L35.5 33.75Z" fill="#FE7317"/>
<path d="M19.75 39L28.5 33.75M35.5 30.25L44.25 25M32 19.75V28.5M32 35.5V44.25M19.75 25L28.5 30.25M35.5 33.75L44.25 39" stroke="#1E293B" stroke-width="1.5" stroke-linejoin="round"/>
<path d="M46.875 26.75V36.375V26.75ZM34.625 46.875L44.25 41.625L34.625 46.875ZM18.875 41.625L29.375 46.875L18.875 41.625ZM17.125 37.25V26.75V37.25ZM18.875 22.375L29.375 17.125L18.875 22.375ZM45.125 22.375L34.625 17.125L45.125 22.375Z" fill="#FE7317"/>
<path d="M46.875 26.75V36.375M34.625 46.875L44.25 41.625M18.875 41.625L29.375 46.875M17.125 37.25V26.75M18.875 22.375L29.375 17.125M45.125 22.375L34.625 17.125" stroke="#1E293B" stroke-width="1.5" stroke-linejoin="round"/>
<path d="M32 19.75C33.4497 19.75 34.625 18.5747 34.625 17.125C34.625 15.6753 33.4497 14.5 32 14.5C30.5503 14.5 29.375 15.6753 29.375 17.125C29.375 18.5747 30.5503 19.75 32 19.75Z" fill="#FE7317" stroke="#1E293B" stroke-width="1.5" stroke-linejoin="round"/>
<path d="M32 49.5C33.4497 49.5 34.625 48.3247 34.625 46.875C34.625 45.4253 33.4497 44.25 32 44.25C30.5503 44.25 29.375 45.4253 29.375 46.875C29.375 48.3247 30.5503 49.5 32 49.5Z" fill="#FE7317" stroke="#1E293B" stroke-width="1.5" stroke-linejoin="round"/>
<path d="M17.125 26.75C18.5747 26.75 19.75 25.5747 19.75 24.125C19.75 22.6753 18.5747 21.5 17.125 21.5C15.6753 21.5 14.5 22.6753 14.5 24.125C14.5 25.5747 15.6753 26.75 17.125 26.75Z" fill="#FE7317" stroke="#1E293B" stroke-width="1.5" stroke-linejoin="round"/>
<path d="M46.875 26.75C48.3247 26.75 49.5 25.5747 49.5 24.125C49.5 22.6753 48.3247 21.5 46.875 21.5C45.4253 21.5 44.25 22.6753 44.25 24.125C44.25 25.5747 45.4253 26.75 46.875 26.75Z" fill="#FE7317" stroke="#1E293B" stroke-width="1.5" stroke-linejoin="round"/>
<path d="M46.875 42.5C48.3247 42.5 49.5 41.3247 49.5 39.875C49.5 38.4253 48.3247 37.25 46.875 37.25C45.4253 37.25 44.25 38.4253 44.25 39.875C44.25 41.3247 45.4253 42.5 46.875 42.5Z" fill="#FE7317" stroke="#1E293B" stroke-width="1.5" stroke-linejoin="round"/>
<path d="M17.125 42.5C18.5747 42.5 19.75 41.3247 19.75 39.875C19.75 38.4253 18.5747 37.25 17.125 37.25C15.6753 37.25 14.5 38.4253 14.5 39.875C14.5 41.3247 15.6753 42.5 17.125 42.5Z" fill="#FE7317" stroke="#1E293B" stroke-width="1.5" stroke-linejoin="round"/>
<path d="M32 28.0625L35.5 30.0312V33.9688L32 35.9375L28.5 33.9688V30.0312L32 28.0625Z" fill="#FE7317" stroke="#1E293B" stroke-width="1.5" stroke-linejoin="round"/>
</svg>
