<svg width="24" height="25" viewBox="0 0 24 25" fill="none" xmlns="http://www.w3.org/2000/svg">
<g clip-path="url(#clip0_701_2993)">
<path d="M22.162 6.47624C21.3986 6.81393 20.589 7.03571 19.76 7.13424C20.6337 6.61167 21.2877 5.78925 21.6 4.82024C20.78 5.30824 19.881 5.65024 18.944 5.83524C18.3146 5.16182 17.4804 4.7152 16.5709 4.56482C15.6615 4.41445 14.7279 4.56873 13.9153 5.00369C13.1026 5.43865 12.4564 6.12992 12.0771 6.97003C11.6978 7.81014 11.6067 8.75202 11.818 9.64924C10.1551 9.56589 8.52832 9.13376 7.04328 8.3809C5.55823 7.62804 4.24812 6.57129 3.19799 5.27924C2.82628 5.91769 2.63095 6.64347 2.63199 7.38224C2.63199 8.83224 3.36999 10.1132 4.49199 10.8632C3.828 10.8423 3.17862 10.663 2.59799 10.3402V10.3922C2.59819 11.3579 2.93236 12.2939 3.54384 13.0413C4.15532 13.7887 5.00647 14.3017 5.95299 14.4932C5.33661 14.6603 4.6903 14.6849 4.06299 14.5652C4.32986 15.3965 4.85 16.1234 5.55058 16.6443C6.25117 17.1653 7.09712 17.454 7.96999 17.4702C7.10247 18.1516 6.10917 18.6552 5.04687 18.9524C3.98458 19.2496 2.87412 19.3345 1.77899 19.2022C3.69069 20.4317 5.91609 21.0844 8.18899 21.0822C15.882 21.0822 20.089 14.7092 20.089 9.18224C20.089 9.00224 20.084 8.82024 20.076 8.64224C20.8949 8.05041 21.6016 7.31726 22.163 6.47724L22.162 6.47624Z" fill="#475569"/>
</g>
<defs>
<clipPath id="clip0_701_2993">
<rect width="24" height="24" fill="white" transform="translate(0 0.820312)"/>
</clipPath>
</defs>
</svg>
