<svg width="32" height="32" viewBox="0 0 32 32" fill="none" xmlns="http://www.w3.org/2000/svg">
<path d="M32 5.33325H0V26.6668H32V5.33325Z" fill="#F0F0F0"/>
<path d="M18 5.33301H14V13.9996H0V17.9996H14V26.6663H18V17.9996H32V13.9996H18V5.33301Z" fill="#D80027"/>
<path d="M24.6116 19.71L32 23.8147V19.71H24.6116Z" fill="#0052B4"/>
<path d="M19.4783 19.71L32 26.6665V24.6993L23.0192 19.71H19.4783Z" fill="#0052B4"/>
<path d="M28.6646 26.6665L19.4783 21.5625V26.6665H28.6646Z" fill="#0052B4"/>
<path d="M19.4783 19.71L32 26.6665V24.6993L23.0192 19.71H19.4783Z" fill="#F0F0F0"/>
<path d="M19.4783 19.71L32 26.6665V24.6993L23.0192 19.71H19.4783Z" fill="#D80027"/>
<path d="M5.64631 19.7097L0 22.8466V19.7097H5.64631Z" fill="#0052B4"/>
<path d="M12.5218 20.5942V26.6662H1.5932L12.5218 20.5942Z" fill="#0052B4"/>
<path d="M8.98081 19.71L0 24.6993V26.6665L12.5218 19.71H8.98081Z" fill="#D80027"/>
<path d="M7.38844 12.2896L0 8.18481V12.2896H7.38844Z" fill="#0052B4"/>
<path d="M12.5218 12.2895L0 5.33301V7.30013L8.98081 12.2895H12.5218Z" fill="#0052B4"/>
<path d="M3.33539 5.33301L12.5218 10.437V5.33301H3.33539Z" fill="#0052B4"/>
<path d="M12.5218 12.2895L0 5.33301V7.30013L8.98081 12.2895H12.5218Z" fill="#F0F0F0"/>
<path d="M12.5218 12.2895L0 5.33301V7.30013L8.98081 12.2895H12.5218Z" fill="#D80027"/>
<path d="M26.3537 12.2897L32 9.15283V12.2897H26.3537Z" fill="#0052B4"/>
<path d="M19.4783 11.4052V5.33325H30.4068L19.4783 11.4052Z" fill="#0052B4"/>
<path d="M23.0192 12.2895L32 7.30013V5.33301L19.4783 12.2895H23.0192Z" fill="#D80027"/>
</svg>
