<svg width="77" height="224" viewBox="0 0 77 224" fill="none" xmlns="http://www.w3.org/2000/svg">
<g opacity="0.1">
<path d="M0.309237 168.767L0 224L76.0723 160.482V104.942L0.309237 168.767Z" fill="url(#paint0_linear_701_2804)"/>
<path d="M0 64.7452V96.0438L43.6024 132.559L77 104.636L22.8835 60.1425V83.7699L0 64.7452Z" fill="url(#paint1_linear_701_2804)"/>
<path d="M0 29.7644L22.8835 47.5616V23.3205L0 4.90959V29.7644Z" fill="url(#paint2_linear_701_2804)"/>
<path d="M39.5823 35.9014V50.3233L52.261 60.1425V46.3342L39.5823 35.9014Z" fill="url(#paint3_linear_701_2804)"/>
<path d="M25.0482 0V9.51233L34.0161 17.1836V7.67123L25.0482 0Z" fill="url(#paint4_linear_701_2804)"/>
</g>
<defs>
<linearGradient id="paint0_linear_701_2804" x1="-0.802083" y1="-0.113577" x2="69.4608" y2="116.411" gradientUnits="userSpaceOnUse">
<stop stop-color="#0249FF"/>
<stop offset="1" stop-color="#4278FF"/>
</linearGradient>
<linearGradient id="paint1_linear_701_2804" x1="-0.802083" y1="-0.113577" x2="69.4608" y2="116.411" gradientUnits="userSpaceOnUse">
<stop stop-color="#0249FF"/>
<stop offset="1" stop-color="#4278FF"/>
</linearGradient>
<linearGradient id="paint2_linear_701_2804" x1="-0.802083" y1="-0.113577" x2="69.4608" y2="116.411" gradientUnits="userSpaceOnUse">
<stop stop-color="#0249FF"/>
<stop offset="1" stop-color="#4278FF"/>
</linearGradient>
<linearGradient id="paint3_linear_701_2804" x1="-0.802083" y1="-0.113577" x2="69.4608" y2="116.411" gradientUnits="userSpaceOnUse">
<stop stop-color="#0249FF"/>
<stop offset="1" stop-color="#4278FF"/>
</linearGradient>
<linearGradient id="paint4_linear_701_2804" x1="-0.802083" y1="-0.113577" x2="69.4608" y2="116.411" gradientUnits="userSpaceOnUse">
<stop stop-color="#0249FF"/>
<stop offset="1" stop-color="#4278FF"/>
</linearGradient>
</defs>
</svg>
