<svg width="44" height="44" viewBox="0 0 44 44" fill="none" xmlns="http://www.w3.org/2000/svg">
<g clip-path="url(#clip0_701_4843)">
<path d="M16.9399 15C16.9397 15.5305 16.7287 16.0391 16.3534 16.4139C15.9782 16.7888 15.4694 16.9993 14.9389 16.999C14.4085 16.9988 13.8999 16.7878 13.525 16.4125C13.1501 16.0373 12.9397 15.5285 12.9399 14.998C12.9402 14.4676 13.1512 13.959 13.5264 13.5841C13.9017 13.2092 14.4105 12.9988 14.9409 12.999C15.4714 12.9993 15.98 13.2103 16.3549 13.5855C16.7297 13.9608 16.9402 14.4696 16.9399 15ZM16.9999 18.48H12.9999V31H16.9999V18.48ZM23.3199 18.48H19.3399V31H23.2799V24.43C23.2799 20.77 28.0499 20.43 28.0499 24.43V31H31.9999V23.07C31.9999 16.9 24.9399 17.13 23.2799 20.16L23.3199 18.48Z" fill="#037AB5"/>
</g>
<rect x="0.5" y="0.5" width="43" height="43" rx="7.5" stroke="#E2E8F0"/>
<defs>
<clipPath id="clip0_701_4843">
<rect width="24" height="24" fill="white" transform="translate(10 10)"/>
</clipPath>
</defs>
</svg>
