<svg width="44" height="44" viewBox="0 0 44 44" fill="none" xmlns="http://www.w3.org/2000/svg">
<rect x="0.5" y="0.5" width="43" height="43" rx="7.5" fill="white"/>
<path d="M13.7776 21.9424C12.8296 20.2893 12.3718 18.9395 12.0958 17.5712C11.6876 15.5476 12.6218 13.5708 14.1694 12.3095C14.8234 11.7764 15.5732 11.9585 15.96 12.6524L16.8332 14.2189C17.5253 15.4606 17.8713 16.0814 17.8027 16.7396C17.7341 17.3978 17.2674 17.9339 16.334 19.006L13.7776 21.9424ZM13.7776 21.9424C15.6965 25.2883 18.7078 28.3013 22.0576 30.2224M22.0576 30.2224C23.7107 31.1704 25.0605 31.6282 26.4288 31.9042C28.4524 32.3124 30.4292 31.3782 31.6905 29.8306C32.2236 29.1766 32.0415 28.4268 31.3476 28.04L29.7811 27.1668C28.5394 26.4747 27.9186 26.1287 27.2604 26.1973C26.6022 26.2659 26.0661 26.7326 24.994 27.666L22.0576 30.2224Z" stroke="#FE7317" stroke-width="1.5" stroke-linejoin="round"/>
<path d="M24 16.8319C25.4232 17.4362 26.5638 18.5768 27.1682 20M24.654 12C28.1912 13.0208 30.9791 15.8085 32 19.3456" stroke="#FE7317" stroke-width="1.5" stroke-linecap="round"/>
<rect x="0.5" y="0.5" width="43" height="43" rx="7.5" stroke="#E2E8F0"/>
</svg>
