<svg width="155" height="40" viewBox="0 0 155 40" fill="none" xmlns="http://www.w3.org/2000/svg">
<g clip-path="url(#clip0_701_5329)">
<path d="M67.1719 22.1052C67.1719 25.2755 67.1719 28.4458 67.1719 31.6161C67.1772 31.8447 67.1636 32.0733 67.1313 32.2996C66.9789 33.2242 66.3705 33.7606 65.399 33.8357C65.2946 33.844 65.1903 33.8451 65.0859 33.8451C62.5188 33.8451 59.9513 33.8451 57.3835 33.8451C57.1864 33.8448 56.9898 33.8267 56.796 33.7908C55.98 33.6332 55.4947 33.1282 55.3726 32.309C55.3374 32.0727 55.3192 31.8341 55.3184 31.5952C55.3184 25.2644 55.3184 18.9336 55.3184 12.6028C55.3199 12.3744 55.3366 12.1464 55.3684 11.9203C55.4968 10.9811 56.0989 10.4103 57.0486 10.3372C57.1936 10.3268 57.3397 10.3247 57.4848 10.3247C59.9795 10.3247 62.4743 10.3247 64.969 10.3247C65.2075 10.3209 65.4458 10.3398 65.6807 10.3811C66.5479 10.5491 67.0446 11.0938 67.1417 11.9693C67.1628 12.1773 67.1719 12.3864 67.1688 12.5954C67.1723 15.7622 67.1733 18.9322 67.1719 22.1052ZM63.649 30.8188V13.3447H58.8591V30.8146L63.649 30.8188Z" fill="#001070"/>
<path d="M78.173 23.1748C79.4711 26.7448 80.7537 30.2709 82.0466 33.8263H78.388C78.2304 33.3827 78.0749 32.9434 77.9163 32.5041C76.8157 29.4013 75.7161 26.2985 74.6176 23.1957C74.5576 23.0202 74.5252 22.8364 74.5216 22.651C74.5091 22.1522 74.5216 21.6533 74.5216 21.1545V20.8112H77.9173C77.9883 20.5493 78.006 13.7506 77.9476 13.3728C77.7149 13.3113 73.8778 13.3029 73.5365 13.3728V33.8263H70.0386V10.3466C70.1273 10.3393 70.216 10.3257 70.3047 10.3257C73.3289 10.3257 76.3551 10.3257 79.3835 10.3257C79.5912 10.3251 79.7985 10.345 80.0023 10.3852C80.8371 10.5521 81.3255 11.0844 81.433 11.9338C81.4603 12.1502 81.4746 12.3679 81.4758 12.586C81.4758 15.3688 81.4758 18.1543 81.4758 20.9427C81.4778 21.2539 81.4427 21.5643 81.3714 21.8673C81.2045 22.533 80.7818 22.9651 80.0858 23.0569C79.5828 23.1226 79.0736 23.1404 78.5664 23.1769C78.4516 23.1811 78.3337 23.1748 78.173 23.1748Z" fill="#001070"/>
<path d="M52.5255 17.9679H49.0672V13.3971C48.822 13.3116 45.0047 13.2865 44.5362 13.3554C44.4694 13.5829 44.4548 30.4695 44.5257 30.8139H49.0422C49.0683 30.4924 49.0516 30.1742 49.0547 29.8569C49.0547 29.524 49.0547 29.1922 49.0547 28.8593V25.9374C49.3187 25.8612 52.2448 25.857 52.5422 25.9374V26.2348C52.5422 28.0652 52.5422 29.8945 52.5422 31.7238C52.5383 31.9934 52.5033 32.2616 52.4379 32.5232C52.274 33.2077 51.8191 33.6126 51.1439 33.7671C50.9208 33.8162 50.693 33.8411 50.4645 33.8412C47.9802 33.8467 45.4959 33.8467 43.0116 33.8412C42.7727 33.8418 42.5345 33.8145 42.302 33.7598C41.5663 33.5761 41.1541 33.0783 41.032 32.3458C40.9765 32.0182 40.9486 31.6866 40.9485 31.3544C40.9436 25.1495 40.9436 18.9439 40.9485 12.7376C40.9494 12.4158 40.9801 12.0948 41.0403 11.7786C41.2 10.925 41.7969 10.4116 42.6839 10.3385C42.8394 10.325 42.9969 10.3239 43.1514 10.3239H50.3237C50.6564 10.3132 50.9887 10.3544 51.3088 10.446C51.5751 10.5198 51.8175 10.6619 52.0119 10.8583C52.2064 11.0548 52.346 11.2986 52.417 11.5657C52.4931 11.8248 52.5339 12.093 52.5381 12.363C52.5485 14.137 52.5443 15.9173 52.5433 17.6945C52.5433 17.779 52.5328 17.8604 52.5255 17.9679Z" fill="#001070"/>
<path d="M93.9447 33.8295H84.2314V10.3384H93.8613V13.4137H87.7868C87.719 13.6662 87.6991 19.843 87.7628 20.3011C88.6237 20.3084 89.4919 20.3011 90.3612 20.3011H92.9701C93.0358 20.5411 93.0567 22.8056 92.9993 23.3336C92.1363 23.3649 91.268 23.343 90.4009 23.3472C89.5337 23.3513 88.6561 23.3472 87.792 23.3472C87.7137 23.5924 87.6803 29.8338 87.7503 30.7104C88.085 30.7359 88.4208 30.7425 88.7562 30.7302C89.0996 30.7302 89.4429 30.7302 89.7852 30.7302H93.9468L93.9447 33.8295Z" fill="#001070"/>
<path d="M102.818 33.822C102.741 33.4933 102.745 10.6397 102.818 10.3611C102.891 10.3548 102.971 10.3413 103.052 10.3413C105.452 10.3413 107.852 10.3235 110.252 10.3528C111.376 10.3653 112.393 10.7295 113.216 11.5361C113.844 12.1538 114.244 12.9667 114.349 13.8413C114.396 14.1914 114.419 14.5442 114.417 14.8974C114.421 19.6977 114.421 24.5 114.417 29.3045C114.417 29.9306 114.367 30.5568 114.151 31.1453C113.629 32.5677 112.592 33.39 111.133 33.6916C110.695 33.7768 110.25 33.8184 109.804 33.8157C107.59 33.8283 105.376 33.822 103.161 33.822H102.818ZM106.262 30.8573H106.616C107.146 30.8573 107.676 30.8646 108.206 30.8573C108.6 30.85 108.996 30.8448 109.386 30.7989C110.221 30.7018 110.764 30.1727 110.908 29.3463C110.94 29.1521 110.957 28.9556 110.958 28.7587C110.958 24.2986 110.958 19.8392 110.958 15.3805C110.958 15.2762 110.958 15.1718 110.958 15.0675C110.897 14.169 110.448 13.5898 109.638 13.3915C109.416 13.3377 109.189 13.3097 108.96 13.3081C108.16 13.2976 107.36 13.3028 106.56 13.3081C106.456 13.3081 106.361 13.3195 106.27 13.3258C106.201 13.6159 106.158 29.605 106.219 30.5922C106.228 30.6812 106.241 30.7697 106.259 30.8573H106.262Z" fill="#FE7317"/>
<path d="M143.04 26.1353H146.477V30.8542C146.748 30.9314 150.394 30.9491 150.811 30.8823C150.828 30.7786 150.839 30.6741 150.845 30.5693C150.845 29.2283 150.845 27.8874 150.845 26.5464C150.846 26.449 150.824 26.3526 150.783 26.2644C150.741 26.1763 150.68 26.0986 150.605 26.0372C148.466 24.0197 146.329 21.998 144.195 19.9721C144.051 19.8365 143.909 19.6997 143.766 19.563C143.529 19.3422 143.341 19.0746 143.213 18.7772C143.084 18.4797 143.019 18.1589 143.021 17.8349C143.009 15.9952 143.015 14.1554 143.021 12.3156C143.025 12.1079 143.053 11.9012 143.105 11.7C143.32 10.8213 143.914 10.4352 144.793 10.3496C144.855 10.3496 144.918 10.3496 144.98 10.3496C147.433 10.3496 149.887 10.3496 152.34 10.3496C152.558 10.3504 152.774 10.3781 152.985 10.4321C153.348 10.5167 153.673 10.7215 153.905 11.0134C154.137 11.3053 154.264 11.6671 154.266 12.0401C154.279 12.445 154.272 12.851 154.272 13.2559C154.272 14.5867 154.272 15.9173 154.272 17.2474V17.6127C154.037 17.6878 151.321 17.7087 150.872 17.6398C150.863 17.5177 150.844 17.3873 150.843 17.2579C150.843 16.0724 150.843 14.8869 150.843 13.7025C150.843 13.5606 150.825 13.4176 150.815 13.2621H146.503C146.492 13.3665 146.477 13.4573 146.477 13.547C146.477 14.7993 146.483 16.0421 146.469 17.2892C146.469 17.5114 146.574 17.6314 146.711 17.7619C148.959 19.8782 151.207 21.9945 153.455 24.1108C153.856 24.4632 154.13 24.9376 154.235 25.4611C154.258 25.5833 154.27 25.7073 154.27 25.8316C154.27 27.8895 154.27 29.9477 154.27 32.0062C154.27 32.8098 153.831 33.6373 152.732 33.7803C152.537 33.808 152.341 33.8244 152.144 33.8293C149.795 33.8293 147.448 33.8356 145.096 33.8293C144.806 33.8246 144.519 33.7836 144.239 33.7072C143.979 33.644 143.741 33.5117 143.551 33.3243C143.36 33.1369 143.223 32.9015 143.155 32.6428C143.074 32.3853 143.031 32.1175 143.026 31.8476C143.013 30.0183 143.018 28.189 143.018 26.3596C143.021 26.2866 143.032 26.2261 143.04 26.1353Z" fill="#FE7317"/>
<path d="M137.578 10.3584H140.974C140.985 10.4228 140.99 10.4882 140.987 10.5535C139.505 18.3001 138.022 26.0519 136.537 33.8089C136.424 33.8204 136.333 33.8371 136.244 33.8371C135.288 33.8371 134.332 33.8371 133.375 33.8371C133.074 33.8371 133.068 33.8193 133.015 33.5365C132.717 31.9451 132.409 30.3558 132.105 28.7644C131.722 26.7559 131.339 24.7471 130.957 22.7379C130.575 20.7288 130.19 18.7206 129.803 16.7136C129.416 14.6849 129.03 12.6559 128.646 10.6266C128.631 10.5473 128.625 10.4659 128.612 10.3626H132.056C132.122 10.7445 132.191 11.1296 132.253 11.5105C132.52 13.1287 132.784 14.7475 133.047 16.3671C133.305 17.9554 133.562 19.5437 133.82 21.1319C134.056 22.5866 134.283 24.0444 134.538 25.496C134.645 26.1938 134.714 26.8967 134.746 27.6019C134.749 27.7274 134.773 27.8516 134.817 27.9692C134.841 27.6634 134.854 27.3567 134.892 27.053C134.984 26.3225 135.075 25.592 135.19 24.8615C135.422 23.3849 135.669 21.9104 135.911 20.4359C136.17 18.858 136.431 17.2806 136.691 15.7034C136.952 14.1263 137.211 12.5484 137.467 10.9699C137.502 10.7737 137.54 10.5713 137.578 10.3584Z" fill="#FE7317"/>
<path d="M117.23 33.8014V10.3927C117.472 10.3311 126.327 10.3092 126.771 10.3655C126.84 10.5899 126.851 13.0224 126.771 13.3793H121.086C120.661 13.3793 120.66 13.3793 120.66 13.8113C120.66 15.8379 120.66 17.8648 120.66 19.892C120.66 20.0225 120.674 20.154 120.684 20.3167H125.951C125.96 21.329 125.951 22.3078 125.951 23.3242H120.689C120.675 23.4547 120.656 23.5538 120.656 23.6519C120.656 25.9178 120.656 28.1833 120.656 30.4485C120.656 30.5299 120.669 30.6113 120.679 30.7271C120.807 30.7355 120.926 30.7501 121.046 30.7501C122.865 30.7501 124.683 30.7501 126.501 30.7501C126.623 30.7501 126.744 30.7636 126.879 30.772V33.7983L117.23 33.8014Z" fill="#FE7317"/>
<path d="M13.6776 16.8646C13.6804 16.9188 13.6697 16.9729 13.6463 17.0219C13.623 17.0709 13.5878 17.1133 13.544 17.1453C11.052 19.2324 8.56109 21.3219 6.0712 23.4139C6.01903 23.4577 5.96685 23.5036 5.9105 23.5558L0.0322266 18.6146C0.0668981 18.5321 0.122681 18.4601 0.193974 18.4059C4.62485 14.6986 9.05295 10.9881 13.4783 7.27447L13.6744 7.11377V7.30995C13.6744 10.4948 13.6755 13.6797 13.6776 16.8646Z" fill="#001070"/>
<path d="M29.6137 28.3554C29.6168 28.4074 29.6069 28.4593 29.5848 28.5065C29.5628 28.5537 29.5293 28.5946 29.4874 28.6256C25.0148 32.3824 20.5432 36.1367 16.0727 39.8886C16.0351 39.9209 15.9944 39.9501 15.9329 39.9992C15.9329 39.9168 15.9256 39.8583 15.9256 39.8009V34.8086C15.9256 33.2871 15.9256 31.7653 15.9256 30.2431C15.922 30.1915 15.9313 30.1398 15.9526 30.0926C15.9739 30.0454 16.0065 30.0043 16.0476 29.9728C18.548 27.8774 21.0462 25.7799 23.5424 23.6803C23.5893 23.6417 23.6342 23.601 23.6999 23.5436L23.6926 23.5373L29.5751 18.5815C29.6045 18.6332 29.6187 18.6922 29.6158 18.7516C29.6144 21.9532 29.6137 25.1545 29.6137 28.3554Z" fill="#001070"/>
<path d="M13.6652 39.8078V39.9748C13.6047 39.9289 13.5609 39.9028 13.5285 39.8704L8.80961 35.905C5.91622 33.4749 3.02213 31.0455 0.127344 28.6169C0.0843246 28.5832 0.050358 28.5393 0.0284994 28.4892C0.00664088 28.4391 -0.00242534 28.3844 0.00211789 28.3299C0.00211789 25.1596 0.00211789 21.9893 0.00211789 18.8191C6.54462e-05 18.7481 0.0110294 18.6774 0.0344674 18.6104L5.91274 23.5515H5.90752C5.99205 23.6225 6.06405 23.6851 6.13815 23.7467C8.60717 25.8226 11.0769 27.8972 13.5473 29.9703C13.5873 29.9997 13.6193 30.0385 13.6404 30.0833C13.6616 30.1282 13.6712 30.1776 13.6683 30.2271C13.6649 33.4238 13.6638 36.6174 13.6652 39.8078Z" fill="#FE7317"/>
<path d="M29.572 18.5815L23.6896 23.5373C23.6384 23.4924 23.5998 23.457 23.5602 23.4236L16.1113 17.1728C15.936 17.0256 15.936 17.0267 15.936 16.7908V11.4761L19.9996 14.8843C20.0121 14.8468 20.0219 14.8084 20.0288 14.7695C20.0288 14.7183 20.0288 14.6651 20.0288 14.6171V10.5786C20.0998 10.6308 20.1436 10.66 20.1843 10.6934L23.5915 13.5485C25.5582 15.1973 27.5256 16.8454 29.4937 18.4928C29.5248 18.5176 29.5513 18.5476 29.572 18.5815Z" fill="#FE7317"/>
<path d="M19.9997 8.49736C19.9423 8.45562 19.9058 8.43162 19.8724 8.40449C18.6201 7.35469 17.3679 6.30593 16.1156 5.25821C16.0807 5.23054 16.0529 5.19484 16.0348 5.15414C16.0166 5.11343 16.0085 5.06895 16.0113 5.02446C16.0113 3.69568 16.0113 2.36725 16.0113 1.03917C16.0113 0.991168 16.0175 0.943165 16.0238 0.870117C16.0801 0.910815 16.1177 0.933773 16.1501 0.960905C17.3981 2.00445 18.6455 3.05008 19.8922 4.09779C19.9286 4.12403 19.9581 4.15874 19.9781 4.19892C19.9981 4.2391 20.008 4.28355 20.007 4.32842C20.0028 5.67667 20.0028 7.02527 20.007 8.37422C20.0059 8.40449 20.0028 8.43475 19.9997 8.49736Z" fill="#FE7317"/>
<path d="M22.9445 6.30811C23.0071 6.3582 23.0541 6.39368 23.099 6.43124C23.7905 7.01145 24.482 7.59097 25.1735 8.16979C25.2083 8.19409 25.2365 8.22664 25.2556 8.26452C25.2747 8.3024 25.2842 8.34442 25.2831 8.38684C25.2831 9.14132 25.2831 9.89685 25.2831 10.6513C25.2831 10.6858 25.2758 10.7202 25.2706 10.7734C25.2343 10.7527 25.1995 10.7297 25.1662 10.7045L23.0457 8.93053C23.0131 8.90787 22.9866 8.87757 22.9684 8.84228C22.9502 8.80699 22.9409 8.76778 22.9414 8.72808C22.9414 7.95795 22.9414 7.18677 22.9414 6.41663C22.9351 6.38533 22.9403 6.35715 22.9445 6.30811Z" fill="#FE7317"/>
<path d="M21.9956 2.98013C21.9549 2.95091 21.9257 2.93213 21.8996 2.91022C21.4488 2.5335 21 2.15365 20.543 1.77901C20.5027 1.74943 20.4705 1.71027 20.4491 1.66508C20.4278 1.61989 20.4181 1.57011 20.4209 1.52022C20.4261 1.06941 20.4209 0.618598 20.4209 0.163614C20.4209 0.113524 20.4261 0.0592615 20.4292 -0.00439453C20.4658 0.00998985 20.5008 0.0281797 20.5336 0.0498717L21.9319 1.22177C21.9563 1.23918 21.9762 1.26221 21.9898 1.28891C22.0034 1.31561 22.0104 1.34519 22.0102 1.37516C22.0102 1.89694 22.0102 2.40932 22.0102 2.92587C22.0068 2.94433 22.0019 2.96248 21.9956 2.98013Z" fill="#FE7317"/>
</g>
<defs>
<clipPath id="clip0_701_5329">
<rect width="154.279" height="40" fill="white"/>
</clipPath>
</defs>
</svg>
