<svg width="44" height="44" viewBox="0 0 44 44" fill="none" xmlns="http://www.w3.org/2000/svg">
<rect x="0.5" y="0.5" width="43" height="43" rx="7.5" fill="white"/>
<path d="M12 15L18.913 18.9246C21.4387 20.3585 22.5613 20.3585 25.087 18.9246L32 15" stroke="#FE7317" stroke-width="1.5" stroke-linejoin="round"/>
<path d="M20.5 29.5C20.0337 29.4939 19.5668 29.485 19.0988 29.4732C15.9503 29.3941 14.3761 29.3545 13.245 28.2184C12.1138 27.0823 12.0811 25.5487 12.0158 22.4814C11.9948 21.4951 11.9947 20.5147 12.0158 19.5284C12.0811 16.4611 12.1138 14.9275 13.245 13.7914C14.3761 12.6553 15.9503 12.6157 19.0988 12.5366C21.0393 12.4878 22.9607 12.4878 24.9012 12.5366C28.0497 12.6157 29.6239 12.6553 30.755 13.7914C31.8862 14.9275 31.9189 16.4611 31.9842 19.5284C31.9939 19.9825 31.9991 20.1965 31.9999 20.5" stroke="#FE7317" stroke-width="1.5" stroke-linecap="round" stroke-linejoin="round"/>
<path d="M29 27C29 27.8284 28.3284 28.5 27.5 28.5C26.6716 28.5 26 27.8284 26 27C26 26.1716 26.6716 25.5 27.5 25.5C28.3284 25.5 29 26.1716 29 27ZM29 27V27.5C29 28.3284 29.6716 29 30.5 29C31.3284 29 32 28.3284 32 27.5V27C32 24.5147 29.9853 22.5 27.5 22.5C25.0147 22.5 23 24.5147 23 27C23 29.4853 25.0147 31.5 27.5 31.5" stroke="#FE7317" stroke-width="1.5" stroke-linecap="round" stroke-linejoin="round"/>
<rect x="0.5" y="0.5" width="43" height="43" rx="7.5" stroke="#E2E8F0"/>
</svg>
