<svg width="32" height="32" viewBox="0 0 32 32" fill="none" xmlns="http://www.w3.org/2000/svg">
<path d="M32 5.3335H0V26.6671H32V5.3335Z" fill="#F0F0F0"/>
<path d="M18 5.33301H14V13.9996H0V17.9996H14V26.6663H18V17.9996H32V13.9996H18V5.33301Z" fill="#D80027"/>
<path d="M24.6113 19.71L31.9998 23.8147V19.71H24.6113Z" fill="#0052B4"/>
<path d="M19.478 19.71L31.9998 26.6665V24.6993L23.019 19.71H19.478Z" fill="#0052B4"/>
<path d="M28.6644 26.6665L19.478 21.5625V26.6665H28.6644Z" fill="#0052B4"/>
<path d="M19.478 19.71L31.9998 26.6665V24.6993L23.019 19.71H19.478Z" fill="#F0F0F0"/>
<path d="M19.478 19.71L31.9998 26.6665V24.6993L23.019 19.71H19.478Z" fill="#D80027"/>
<path d="M5.64631 19.71L0 22.8468V19.71H5.64631Z" fill="#0052B4"/>
<path d="M12.5218 20.5947V26.6667H1.59326L12.5218 20.5947Z" fill="#0052B4"/>
<path d="M8.98081 19.71L0 24.6993V26.6665L12.5218 19.71H8.98081Z" fill="#D80027"/>
<path d="M7.38844 12.2893L0 8.18457V12.2893H7.38844Z" fill="#0052B4"/>
<path d="M12.5218 12.2895L0 5.33301V7.30013L8.98081 12.2895H12.5218Z" fill="#0052B4"/>
<path d="M3.33545 5.33301L12.5218 10.437V5.33301H3.33545Z" fill="#0052B4"/>
<path d="M12.5218 12.2895L0 5.33301V7.30013L8.98081 12.2895H12.5218Z" fill="#F0F0F0"/>
<path d="M12.5218 12.2895L0 5.33301V7.30013L8.98081 12.2895H12.5218Z" fill="#D80027"/>
<path d="M26.3535 12.2897L31.9998 9.15283V12.2897H26.3535Z" fill="#0052B4"/>
<path d="M19.478 11.4049V5.33301H30.4066L19.478 11.4049Z" fill="#0052B4"/>
<path d="M23.019 12.2895L31.9998 7.30013V5.33301L19.478 12.2895H23.019Z" fill="#D80027"/>
</svg>
