<svg width="349" height="168" viewBox="0 0 349 168" fill="none" xmlns="http://www.w3.org/2000/svg">
<g filter="url(#filter0_dd_930_1125)">
<rect width="303.667" height="197.002" transform="translate(35.2415 2.42773) rotate(6.56234)" fill="#F6F6F6"/>
<path d="M35.2415 2.42773L336.919 37.1321L335.538 49.139L33.8602 14.4346L35.2415 2.42773Z" fill="#D9D9D9"/>
<path d="M44.1278 9.53291C44.0134 10.5276 43.2775 11.2599 42.4841 11.1687C41.6907 11.0774 41.1403 10.1971 41.2547 9.20239C41.3691 8.20771 42.1051 7.47536 42.8985 7.56663C43.6918 7.6579 44.2423 8.53823 44.1278 9.53291Z" fill="white"/>
<path d="M50.8318 10.3039C50.7173 11.2986 49.9814 12.0309 49.188 11.9397C48.3946 11.8484 47.8442 10.9681 47.9586 9.97339C48.0731 8.97871 48.809 8.24635 49.6024 8.33762C50.3958 8.42889 50.9462 9.30923 50.8318 10.3039Z" fill="white"/>
<path d="M57.5358 11.0754C57.4214 12.0701 56.6855 12.8024 55.8921 12.7112C55.0987 12.6199 54.5483 11.7396 54.6627 10.7449C54.7771 9.75019 55.513 9.01784 56.3064 9.10911C57.0998 9.20038 57.6502 10.0807 57.5358 11.0754Z" fill="white"/>
<path fill-rule="evenodd" clip-rule="evenodd" d="M132.62 100.206L121.222 98.8948L121.291 98.2944L133.239 99.6689L123.996 180.016L133.25 181.081L133.181 181.681L123.377 180.553L132.62 100.206Z" fill="black"/>
<path fill-rule="evenodd" clip-rule="evenodd" d="M183.792 62.4272L234.808 68.296L234.739 68.8963L184.273 63.0909L182.007 82.7883L181.457 82.725L183.792 62.4272Z" fill="black"/>
<path fill-rule="evenodd" clip-rule="evenodd" d="M212.955 163.837L223.675 165.07L223.606 165.67L212.886 164.437L212.955 163.837Z" fill="black"/>
<rect width="80.0899" height="116.463" transform="translate(48.5517 40.2988) rotate(6.56234)" fill="white"/>
<g clip-path="url(#clip0_930_1125)">
<path d="M111.282 166.537C109.072 166.282 107.486 164.284 107.74 162.074C107.995 159.863 109.993 158.278 112.203 158.532C114.413 158.786 115.999 160.784 115.745 162.995C115.491 165.205 113.493 166.791 111.282 166.537ZM111.388 162.088L109.787 161.904L109.695 162.704L111.296 162.888L111.112 164.489L111.913 164.581L112.097 162.98L113.698 163.165L113.79 162.364L112.189 162.18L112.373 160.579L111.573 160.487L111.388 162.088Z" fill="#BDBDBD"/>
</g>
<path d="M53.8645 46.9927L86.8833 50.7911L86.3309 55.5938L53.3121 51.7954L53.8645 46.9927Z" fill="#D9D9D9"/>
<path d="M53.1739 52.9961L92.7965 57.5542L92.244 62.3569L52.6214 57.7988L53.1739 52.9961Z" fill="#B9B9B9"/>
<path d="M95.1979 57.8306L128.817 61.698L128.265 66.5008L94.6454 62.6333L95.1979 57.8306Z" fill="#B9B9B9"/>
<path d="M51.4474 68.0046L64.6549 69.524L64.1024 74.3267L50.8949 72.8074L51.4474 68.0046Z" fill="#D9D9D9"/>
<path d="M50.7568 74.0081L74.1701 76.7015L73.6176 81.5042L50.2043 78.8108L50.7568 74.0081Z" fill="#B9B9B9"/>
<path d="M75.9711 76.9087L96.3827 79.2568L95.8302 84.0595L75.4186 81.7114L75.9711 76.9087Z" fill="#B9B9B9"/>
<path d="M98.1838 79.4641L110.191 80.8454L109.638 85.6481L97.6313 84.2668L98.1838 79.4641Z" fill="#B9B9B9"/>
<path d="M49.0302 89.0166L70.631 91.5015L66.9017 123.92L45.3008 121.435L49.0302 89.0166Z" fill="#D9D9D9"/>
<path d="M73.2026 91.7974L94.8035 94.2823L91.0741 126.701L69.4733 124.216L73.2026 91.7974Z" fill="#D9D9D9"/>
<path d="M97.375 94.5781L118.976 97.063L115.246 129.481L93.6457 126.997L97.375 94.5781Z" fill="#D9D9D9"/>
<path d="M121.547 97.3589L129.776 98.3055L126.047 130.724L117.818 129.777L121.547 97.3589Z" fill="#D9D9D9"/>
<rect width="80.0899" height="128.685" transform="translate(142.656 69.9392) rotate(6.56234)" fill="white"/>
<path d="M147.969 76.6333L164.178 78.498L163.626 83.3007L147.416 81.436L147.969 76.6333Z" fill="#D9D9D9"/>
<path d="M147.278 82.6367L164.688 84.6395L164.136 89.4423L146.726 87.4395L147.278 82.6367Z" fill="#B9B9B9"/>
<path d="M166.489 84.8467L195.306 88.1617L194.753 92.9644L165.937 89.6494L166.489 84.8467Z" fill="#B9B9B9"/>
<path d="M145.552 97.6453L167.161 100.131L163.432 132.55L141.822 130.064L145.552 97.6453Z" fill="#D9D9D9"/>
<path d="M169.734 100.427L191.343 102.913L187.614 135.331L166.004 132.845L169.734 100.427Z" fill="#D9D9D9"/>
<path d="M193.916 103.209L215.525 105.695L211.796 138.113L190.186 135.627L193.916 103.209Z" fill="#D9D9D9"/>
<path d="M218.098 105.991L226.33 106.938L222.6 139.356L214.368 138.409L218.098 105.991Z" fill="#D9D9D9"/>
<path d="M140.648 140.27L173.667 144.068L173.115 148.871L140.096 145.072L140.648 140.27Z" fill="#D9D9D9"/>
<path d="M139.958 146.273L179.58 150.831L179.028 155.634L139.405 151.076L139.958 146.273Z" fill="#B9B9B9"/>
<path d="M181.982 151.107L215.601 154.975L215.048 159.778L181.429 155.91L181.982 151.107Z" fill="#B9B9B9"/>
<path d="M138.231 161.281L151.439 162.801L150.886 167.604L137.679 166.084L138.231 161.281Z" fill="#D9D9D9"/>
<path d="M137.54 167.285L160.954 169.978L160.401 174.781L136.988 172.088L137.54 167.285Z" fill="#B9B9B9"/>
<rect width="65.2229" height="52.4804" transform="translate(237.846 43.9834) rotate(6.56234)" fill="white"/>
<path d="M243.159 50.6772L257.07 52.2775L256.517 57.0803L242.606 55.48L243.159 50.6772Z" fill="#D9D9D9"/>
<path d="M242.468 56.6807L257.41 58.3995L256.857 63.2022L241.916 61.4834L242.468 56.6807Z" fill="#B9B9B9"/>
<path d="M258.955 58.5774L283.686 61.4223L283.133 66.2251L258.403 63.3801L258.955 58.5774Z" fill="#B9B9B9"/>
<path d="M240.742 71.6892L269.079 74.949L268.526 79.7518L240.189 76.4919L240.742 71.6892Z" fill="#D9D9D9"/>
<path d="M240.051 77.6926L274.055 81.6044L273.503 86.4071L239.499 82.4954L240.051 77.6926Z" fill="#B9B9B9"/>
<path d="M276.116 81.8416L304.968 85.1606L304.416 89.9634L275.564 86.6443L276.116 81.8416Z" fill="#B9B9B9"/>
<rect width="80.0899" height="78.3612" transform="translate(227.74 131.83) rotate(6.56234)" fill="white"/>
<path d="M233.053 138.524L244.421 139.832L243.869 144.635L232.501 143.327L233.053 138.524Z" fill="#D9D9D9"/>
<path d="M232.362 144.528L252.515 146.846L251.962 151.649L231.81 149.33L232.362 144.528Z" fill="#B9B9B9"/>
<path d="M254.065 147.024L271.634 149.045L271.081 153.848L253.513 151.827L254.065 147.024Z" fill="#B9B9B9"/>
<path d="M273.184 149.224L283.519 150.413L282.966 155.215L272.632 154.026L273.184 149.224Z" fill="#B9B9B9"/>
<path d="M230.636 159.536L252.338 162.033L248.609 194.451L226.906 191.955L230.636 159.536Z" fill="#D9D9D9"/>
<path d="M254.922 162.33L276.625 164.827L272.895 197.245L251.193 194.749L254.922 162.33Z" fill="#D9D9D9"/>
<path d="M279.208 165.124L300.911 167.621L297.182 200.039L275.479 197.542L279.208 165.124Z" fill="#D9D9D9"/>
<path d="M303.495 167.918L311.762 168.869L308.033 201.288L299.765 200.336L303.495 167.918Z" fill="#D9D9D9"/>
</g>
<defs>
<filter id="filter0_dd_930_1125" x="0.727203" y="0.427734" width="348.192" height="254.416" filterUnits="userSpaceOnUse" color-interpolation-filters="sRGB">
<feFlood flood-opacity="0" result="BackgroundImageFix"/>
<feColorMatrix in="SourceAlpha" type="matrix" values="0 0 0 0 0 0 0 0 0 0 0 0 0 0 0 0 0 0 127 0" result="hardAlpha"/>
<feMorphology radius="2" operator="erode" in="SourceAlpha" result="effect1_dropShadow_930_1125"/>
<feOffset dy="4"/>
<feGaussianBlur stdDeviation="3"/>
<feColorMatrix type="matrix" values="0 0 0 0 0 0 0 0 0 0 0 0 0 0 0 0 0 0 0.05 0"/>
<feBlend mode="normal" in2="BackgroundImageFix" result="effect1_dropShadow_930_1125"/>
<feColorMatrix in="SourceAlpha" type="matrix" values="0 0 0 0 0 0 0 0 0 0 0 0 0 0 0 0 0 0 127 0" result="hardAlpha"/>
<feMorphology radius="3" operator="erode" in="SourceAlpha" result="effect2_dropShadow_930_1125"/>
<feOffset dy="10"/>
<feGaussianBlur stdDeviation="7.5"/>
<feColorMatrix type="matrix" values="0 0 0 0 0 0 0 0 0 0 0 0 0 0 0 0 0 0 0.1 0"/>
<feBlend mode="normal" in2="effect1_dropShadow_930_1125" result="effect2_dropShadow_930_1125"/>
<feBlend mode="normal" in="SourceGraphic" in2="effect2_dropShadow_930_1125" result="shape"/>
</filter>
<clipPath id="clip0_930_1125">
<rect width="9.66882" height="9.66882" fill="white" transform="translate(107.492 157.179) rotate(6.56234)"/>
</clipPath>
</defs>
</svg>
