<svg width="155" height="40" viewBox="0 0 155 40" fill="none" xmlns="http://www.w3.org/2000/svg">
<g clip-path="url(#clip0_701_2554)">
<path d="M67.1717 22.1052C67.1717 25.2755 67.1717 28.4458 67.1717 31.6161C67.177 31.8447 67.1634 32.0733 67.131 32.2996C66.9787 33.2242 66.3703 33.7606 65.3988 33.8357C65.2944 33.844 65.19 33.8451 65.0857 33.8451C62.5186 33.8451 59.9511 33.8451 57.3833 33.8451C57.1862 33.8448 56.9896 33.8267 56.7958 33.7908C55.9797 33.6332 55.4945 33.1282 55.3724 32.309C55.3371 32.0727 55.319 31.8341 55.3181 31.5952C55.3181 25.2644 55.3181 18.9336 55.3181 12.6028C55.3197 12.3744 55.3364 12.1464 55.3682 11.9203C55.4966 10.9811 56.0987 10.4103 57.0483 10.3372C57.1934 10.3268 57.3395 10.3247 57.4845 10.3247C59.9793 10.3247 62.4741 10.3247 64.9688 10.3247C65.2073 10.3209 65.4456 10.3398 65.6805 10.3811C66.5477 10.5491 67.0444 11.0938 67.1415 11.9693C67.1626 12.1773 67.1717 12.3864 67.1686 12.5954C67.1721 15.7622 67.1731 18.9322 67.1717 22.1052ZM63.6487 30.8188V13.3447H58.8589V30.8146L63.6487 30.8188Z" fill="white"/>
<path d="M78.1728 23.1748C79.4709 26.7448 80.7534 30.2709 82.0464 33.8263H78.3877C78.2302 33.3827 78.0747 32.9434 77.9161 32.5041C76.8155 29.4013 75.7159 26.2985 74.6174 23.1957C74.5574 23.0202 74.525 22.8364 74.5214 22.651C74.5089 22.1522 74.5214 21.6533 74.5214 21.1545V20.8112H77.9171C77.9881 20.5493 78.0058 13.7506 77.9474 13.3728C77.7147 13.3113 73.8776 13.3029 73.5363 13.3728V33.8263H70.0384V10.3466C70.1271 10.3393 70.2158 10.3257 70.3045 10.3257C73.3286 10.3257 76.3549 10.3257 79.3833 10.3257C79.591 10.3251 79.7983 10.345 80.0021 10.3852C80.8369 10.5521 81.3253 11.0844 81.4328 11.9338C81.4601 12.1502 81.4743 12.3679 81.4756 12.586C81.4756 15.3688 81.4756 18.1543 81.4756 20.9427C81.4776 21.2539 81.4425 21.5643 81.3712 21.8673C81.2043 22.533 80.7816 22.9651 80.0856 23.0569C79.5826 23.1226 79.0733 23.1404 78.5662 23.1769C78.4514 23.1811 78.3335 23.1748 78.1728 23.1748Z" fill="white"/>
<path d="M52.5257 17.9679H49.0674V13.3971C48.8221 13.3116 45.0048 13.2865 44.5363 13.3554C44.4695 13.5829 44.4549 30.4695 44.5259 30.8139H49.0423C49.0684 30.4924 49.0517 30.1742 49.0548 29.8569C49.0548 29.524 49.0548 29.1922 49.0548 28.8593V25.9374C49.3188 25.8612 52.2449 25.857 52.5423 25.9374V26.2348C52.5423 28.0652 52.5423 29.8945 52.5423 31.7238C52.5384 31.9934 52.5034 32.2616 52.438 32.5232C52.2742 33.2077 51.8192 33.6126 51.144 33.7671C50.9209 33.8162 50.6931 33.8411 50.4647 33.8412C47.9803 33.8467 45.496 33.8467 43.0117 33.8412C42.7728 33.8418 42.5346 33.8145 42.3021 33.7598C41.5664 33.5761 41.1542 33.0783 41.0321 32.3458C40.9767 32.0182 40.9487 31.6866 40.9486 31.3544C40.9437 25.1495 40.9437 18.9439 40.9486 12.7376C40.9495 12.4158 40.9802 12.0948 41.0404 11.7786C41.2001 10.925 41.797 10.4116 42.684 10.3385C42.8395 10.325 42.9971 10.3239 43.1515 10.3239H50.3238C50.6565 10.3132 50.9888 10.3544 51.3089 10.446C51.5752 10.5198 51.8177 10.6619 52.0121 10.8583C52.2065 11.0548 52.3461 11.2986 52.4171 11.5657C52.4933 11.8248 52.534 12.093 52.5382 12.363C52.5486 14.137 52.5444 15.9173 52.5434 17.6945C52.5434 17.779 52.533 17.8604 52.5257 17.9679Z" fill="white"/>
<path d="M93.9449 33.8295H84.2316V10.3384H93.8614V13.4137H87.7869C87.7191 13.6662 87.6993 19.843 87.7629 20.3011C88.6238 20.3084 89.4921 20.3011 90.3613 20.3011H92.9702C93.0359 20.5411 93.0568 22.8056 92.9994 23.3336C92.1364 23.3649 91.2682 23.343 90.401 23.3472C89.5338 23.3513 88.6562 23.3472 87.7921 23.3472C87.7139 23.5924 87.6805 29.8338 87.7504 30.7104C88.0851 30.7359 88.4209 30.7425 88.7564 30.7302C89.0997 30.7302 89.443 30.7302 89.7853 30.7302H93.9469L93.9449 33.8295Z" fill="white"/>
<path d="M102.818 33.822C102.741 33.4933 102.745 10.6397 102.818 10.3611C102.891 10.3548 102.971 10.3413 103.052 10.3413C105.452 10.3413 107.852 10.3235 110.252 10.3528C111.376 10.3653 112.393 10.7295 113.216 11.5361C113.844 12.1538 114.244 12.9667 114.349 13.8413C114.396 14.1914 114.419 14.5442 114.417 14.8974C114.421 19.6977 114.421 24.5 114.417 29.3045C114.417 29.9306 114.367 30.5568 114.151 31.1453C113.629 32.5677 112.592 33.39 111.133 33.6916C110.695 33.7768 110.25 33.8184 109.804 33.8157C107.59 33.8283 105.376 33.822 103.161 33.822H102.818ZM106.262 30.8573H106.616C107.146 30.8573 107.676 30.8646 108.206 30.8573C108.6 30.85 108.996 30.8448 109.386 30.7989C110.221 30.7018 110.764 30.1727 110.908 29.3463C110.94 29.1521 110.957 28.9556 110.958 28.7587C110.958 24.2986 110.958 19.8392 110.958 15.3805C110.958 15.2762 110.958 15.1718 110.958 15.0675C110.897 14.169 110.448 13.5898 109.638 13.3915C109.416 13.3377 109.189 13.3097 108.96 13.3081C108.16 13.2976 107.36 13.3028 106.56 13.3081C106.456 13.3081 106.361 13.3195 106.27 13.3258C106.201 13.6159 106.158 29.605 106.219 30.5922C106.228 30.6812 106.241 30.7697 106.259 30.8573H106.262Z" fill="#FE7317"/>
<path d="M143.04 26.1353H146.477V30.8542C146.748 30.9314 150.394 30.9491 150.812 30.8823C150.828 30.7786 150.839 30.6741 150.845 30.5693C150.845 29.2283 150.845 27.8874 150.845 26.5464C150.846 26.449 150.825 26.3526 150.783 26.2644C150.742 26.1763 150.681 26.0986 150.605 26.0372C148.466 24.0197 146.329 21.998 144.196 19.9721C144.052 19.8365 143.91 19.6997 143.767 19.563C143.53 19.3422 143.341 19.0746 143.213 18.7772C143.085 18.4797 143.019 18.1589 143.022 17.8349C143.009 15.9952 143.015 14.1554 143.022 12.3156C143.025 12.1079 143.053 11.9012 143.105 11.7C143.32 10.8213 143.914 10.4352 144.794 10.3496C144.855 10.3496 144.918 10.3496 144.98 10.3496C147.433 10.3496 149.887 10.3496 152.34 10.3496C152.558 10.3504 152.775 10.3781 152.985 10.4321C153.349 10.5167 153.673 10.7215 153.905 11.0134C154.138 11.3053 154.265 11.6671 154.266 12.0401C154.279 12.445 154.272 12.851 154.272 13.2559C154.272 14.5867 154.272 15.9173 154.272 17.2474V17.6127C154.037 17.6878 151.321 17.7087 150.872 17.6398C150.863 17.5177 150.844 17.3873 150.843 17.2579C150.843 16.0724 150.843 14.8869 150.843 13.7025C150.843 13.5606 150.825 13.4176 150.815 13.2621H146.503C146.492 13.3665 146.477 13.4573 146.477 13.547C146.477 14.7993 146.483 16.0421 146.469 17.2892C146.469 17.5114 146.574 17.6314 146.712 17.7619C148.959 19.8782 151.207 21.9945 153.455 24.1108C153.856 24.4632 154.13 24.9376 154.235 25.4611C154.258 25.5833 154.27 25.7073 154.27 25.8316C154.27 27.8895 154.27 29.9477 154.27 32.0062C154.27 32.8098 153.832 33.6373 152.732 33.7803C152.537 33.808 152.341 33.8244 152.144 33.8293C149.795 33.8293 147.448 33.8356 145.096 33.8293C144.807 33.8246 144.519 33.7836 144.239 33.7072C143.98 33.644 143.742 33.5117 143.551 33.3243C143.36 33.1369 143.223 32.9015 143.155 32.6428C143.074 32.3853 143.031 32.1175 143.026 31.8476C143.013 30.0183 143.018 28.189 143.018 26.3596C143.022 26.2866 143.032 26.2261 143.04 26.1353Z" fill="#FE7317"/>
<path d="M137.578 10.3584H140.974C140.986 10.4228 140.99 10.4882 140.987 10.5535C139.506 18.3001 138.022 26.0519 136.537 33.8089C136.424 33.8204 136.334 33.8371 136.244 33.8371C135.288 33.8371 134.332 33.8371 133.375 33.8371C133.075 33.8371 133.068 33.8193 133.015 33.5365C132.717 31.9451 132.409 30.3558 132.105 28.7644C131.722 26.7559 131.339 24.7471 130.957 22.7379C130.575 20.7288 130.191 18.7206 129.803 16.7136C129.416 14.6849 129.03 12.6559 128.646 10.6266C128.631 10.5473 128.625 10.4659 128.612 10.3626H132.056C132.122 10.7445 132.191 11.1296 132.253 11.5105C132.52 13.1287 132.784 14.7475 133.047 16.3671C133.305 17.9554 133.562 19.5437 133.82 21.1319C134.057 22.5866 134.283 24.0444 134.538 25.496C134.645 26.1938 134.714 26.8967 134.746 27.6019C134.749 27.7274 134.773 27.8516 134.817 27.9692C134.841 27.6634 134.854 27.3567 134.892 27.053C134.984 26.3225 135.075 25.592 135.19 24.8615C135.423 23.3849 135.669 21.9104 135.911 20.4359C136.17 18.858 136.431 17.2806 136.691 15.7034C136.952 14.1263 137.211 12.5484 137.467 10.9699C137.502 10.7737 137.54 10.5713 137.578 10.3584Z" fill="#FE7317"/>
<path d="M117.23 33.8014V10.3927C117.471 10.3311 126.327 10.3092 126.771 10.3655C126.84 10.5899 126.851 13.0224 126.771 13.3793H121.086C120.661 13.3793 120.66 13.3793 120.66 13.8113C120.66 15.8379 120.66 17.8648 120.66 19.892C120.66 20.0225 120.674 20.154 120.684 20.3167H125.951C125.96 21.329 125.951 22.3078 125.951 23.3242H120.689C120.675 23.4547 120.656 23.5538 120.656 23.6519C120.656 25.9178 120.656 28.1833 120.656 30.4485C120.656 30.5299 120.669 30.6113 120.679 30.7271C120.807 30.7355 120.926 30.7501 121.046 30.7501C122.865 30.7501 124.683 30.7501 126.501 30.7501C126.623 30.7501 126.744 30.7636 126.879 30.772V33.7983L117.23 33.8014Z" fill="#FE7317"/>
<path d="M13.6777 16.8646C13.6805 16.9188 13.6698 16.9729 13.6465 17.0219C13.6231 17.0709 13.588 17.1133 13.5441 17.1453C11.0522 19.2324 8.56122 21.3219 6.07132 23.4139C6.01915 23.4577 5.96697 23.5036 5.91062 23.5558L0.0323486 18.6146C0.0670202 18.5321 0.122803 18.4601 0.194096 18.4059C4.62497 14.6986 9.05307 10.9881 13.4784 7.27447L13.6746 7.11377V7.30995C13.6746 10.4948 13.6756 13.6797 13.6777 16.8646Z" fill="white"/>
<path d="M29.6136 28.3554C29.6167 28.4074 29.6068 28.4593 29.5848 28.5065C29.5627 28.5537 29.5292 28.5946 29.4874 28.6256C25.0147 32.3824 20.5432 36.1367 16.0726 39.8886C16.0351 39.9209 15.9944 39.9501 15.9328 39.9992C15.9328 39.9168 15.9255 39.8583 15.9255 39.8009V34.8086C15.9255 33.2871 15.9255 31.7653 15.9255 30.2431C15.9219 30.1915 15.9312 30.1398 15.9525 30.0926C15.9738 30.0454 16.0065 30.0043 16.0476 29.9728C18.5479 27.8774 21.0462 25.7799 23.5423 23.6803C23.5893 23.6417 23.6341 23.601 23.6999 23.5436L23.6926 23.5373L29.575 18.5815C29.6045 18.6332 29.6186 18.6922 29.6157 18.7516C29.6143 21.9532 29.6136 25.1545 29.6136 28.3554Z" fill="white"/>
<path d="M13.6652 39.8078V39.9748C13.6047 39.9289 13.5608 39.9028 13.5285 39.8704L8.80958 35.905C5.91619 33.4749 3.0221 31.0455 0.127314 28.6169C0.0842941 28.5832 0.0503274 28.5393 0.0284689 28.4892C0.00661036 28.4391 -0.00245585 28.3844 0.00208737 28.3299C0.00208737 25.1596 0.00208737 21.9893 0.00208737 18.8191C3.49287e-05 18.7481 0.0109989 18.6774 0.0344369 18.6104L5.91271 23.5515H5.90749C5.99202 23.6225 6.06402 23.6851 6.13811 23.7467C8.60713 25.8226 11.0769 27.8972 13.5473 29.9703C13.5872 29.9997 13.6192 30.0385 13.6404 30.0833C13.6615 30.1282 13.6711 30.1776 13.6683 30.2271C13.6648 33.4238 13.6638 36.6174 13.6652 39.8078Z" fill="#FE7317"/>
<path d="M29.5719 18.5815L23.6894 23.5373C23.6383 23.4924 23.5997 23.457 23.56 23.4236L16.1112 17.1728C15.9359 17.0256 15.9359 17.0267 15.9359 16.7908V11.4761L19.9995 14.8843C20.012 14.8468 20.0218 14.8084 20.0287 14.7695C20.0287 14.7183 20.0287 14.6651 20.0287 14.6171V10.5786C20.0996 10.6308 20.1435 10.66 20.1842 10.6934L23.5913 13.5485C25.5581 15.1973 27.5255 16.8454 29.4936 18.4928C29.5247 18.5176 29.5512 18.5476 29.5719 18.5815Z" fill="#FE7317"/>
<path d="M19.9995 8.49736C19.9421 8.45562 19.9055 8.43162 19.8722 8.40449C18.6199 7.35469 17.3677 6.30593 16.1154 5.25821C16.0805 5.23054 16.0527 5.19484 16.0346 5.15414C16.0164 5.11343 16.0083 5.06895 16.011 5.02446C16.011 3.69568 16.011 2.36725 16.011 1.03917C16.011 0.991168 16.0173 0.943165 16.0236 0.870117C16.0799 0.910815 16.1175 0.933773 16.1498 0.960905C17.3979 2.00445 18.6453 3.05008 19.892 4.09779C19.9284 4.12403 19.9579 4.15874 19.9779 4.19892C19.9979 4.2391 20.0078 4.28355 20.0068 4.32842C20.0026 5.67667 20.0026 7.02527 20.0068 8.37422C20.0057 8.40449 20.0026 8.43475 19.9995 8.49736Z" fill="#FE7317"/>
<path d="M22.9444 6.30811C23.007 6.3582 23.0539 6.39368 23.0988 6.43124C23.7903 7.01145 24.4818 7.59097 25.1734 8.16979C25.2081 8.19409 25.2364 8.22664 25.2555 8.26452C25.2746 8.3024 25.284 8.34442 25.2829 8.38684C25.2829 9.14132 25.2829 9.89685 25.2829 10.6513C25.2829 10.6858 25.2756 10.7202 25.2704 10.7734C25.2342 10.7527 25.1993 10.7297 25.1661 10.7045L23.0456 8.93053C23.013 8.90787 22.9864 8.87757 22.9682 8.84228C22.95 8.80699 22.9408 8.76778 22.9412 8.72808C22.9412 7.95795 22.9412 7.18677 22.9412 6.41663C22.935 6.38533 22.9402 6.35715 22.9444 6.30811Z" fill="#FE7317"/>
<path d="M21.9958 2.98013C21.9551 2.95091 21.9258 2.93213 21.8998 2.91022C21.4489 2.5335 21.0002 2.15365 20.5431 1.77901C20.5029 1.74943 20.4706 1.71027 20.4493 1.66508C20.428 1.61989 20.4183 1.57011 20.4211 1.52022C20.4263 1.06941 20.4211 0.618598 20.4211 0.163614C20.4211 0.113524 20.4263 0.0592615 20.4294 -0.00439453C20.466 0.00998985 20.501 0.0281797 20.5338 0.0498717L21.9321 1.22177C21.9565 1.23918 21.9763 1.26221 21.99 1.28891C22.0036 1.31561 22.0106 1.34519 22.0104 1.37516C22.0104 1.89694 22.0104 2.40932 22.0104 2.92587C22.007 2.94433 22.0021 2.96248 21.9958 2.98013Z" fill="#FE7317"/>
</g>
<defs>
<clipPath id="clip0_701_2554">
<rect width="154.279" height="40" fill="white"/>
</clipPath>
</defs>
</svg>
