<svg width="202" height="637" viewBox="0 0 202 637" fill="none" xmlns="http://www.w3.org/2000/svg">
<g opacity="0.1">
<path d="M-14.1285 479.932V637L199.386 456.371V298.43L-14.1285 479.932Z" fill="url(#paint0_linear_701_2535)"/>
<path d="M-15 184.119V273.125L107.88 376.964L202 297.558L49.49 171.03V238.221L-15 184.119Z" fill="url(#paint1_linear_701_2535)"/>
<path d="M-15 84.6425L49.49 135.253V66.3178L-15 13.9616V84.6425Z" fill="url(#paint2_linear_701_2535)"/>
<path d="M96.5502 102.095V143.107L132.281 171.03V131.763L96.5502 102.095Z" fill="url(#paint3_linear_701_2535)"/>
<path d="M55.5904 0V27.0507L80.8635 48.8658V21.8151L55.5904 0Z" fill="url(#paint4_linear_701_2535)"/>
</g>
<defs>
<linearGradient id="paint0_linear_701_2535" x1="-17.2604" y1="-0.322984" x2="183.387" y2="329.44" gradientUnits="userSpaceOnUse">
<stop stop-color="#0249FF"/>
<stop offset="1" stop-color="#4278FF"/>
</linearGradient>
<linearGradient id="paint1_linear_701_2535" x1="-17.2604" y1="-0.322984" x2="183.387" y2="329.44" gradientUnits="userSpaceOnUse">
<stop stop-color="#0249FF"/>
<stop offset="1" stop-color="#4278FF"/>
</linearGradient>
<linearGradient id="paint2_linear_701_2535" x1="-17.2604" y1="-0.322984" x2="183.387" y2="329.44" gradientUnits="userSpaceOnUse">
<stop stop-color="#0249FF"/>
<stop offset="1" stop-color="#4278FF"/>
</linearGradient>
<linearGradient id="paint3_linear_701_2535" x1="-17.2604" y1="-0.322984" x2="183.387" y2="329.44" gradientUnits="userSpaceOnUse">
<stop stop-color="#0249FF"/>
<stop offset="1" stop-color="#4278FF"/>
</linearGradient>
<linearGradient id="paint4_linear_701_2535" x1="-17.2604" y1="-0.322984" x2="183.387" y2="329.44" gradientUnits="userSpaceOnUse">
<stop stop-color="#0249FF"/>
<stop offset="1" stop-color="#4278FF"/>
</linearGradient>
</defs>
</svg>
