<svg width="64" height="64" viewBox="0 0 64 64" fill="none" xmlns="http://www.w3.org/2000/svg">
<rect width="64" height="64" rx="12" fill="#FFE3D1"/>
<path fill-rule="evenodd" clip-rule="evenodd" d="M25.4377 18.3713C25.9075 17.3425 26.1423 16.8281 26.6094 16.539C27.0764 16.25 27.6727 16.25 28.8652 16.25H35.1348C36.3274 16.25 36.9236 16.25 37.3907 16.539C37.8576 16.8281 38.0926 17.3425 38.5623 18.3713L41.5909 25.0038C42.338 26.6397 42.7114 27.4577 42.3763 28.1581C42.0412 28.8586 41.1417 29.14 39.3425 29.7029L32 32L24.6575 29.7029C22.8584 29.14 21.9589 28.8586 21.6237 28.1581C21.2886 27.4577 21.6621 26.6397 22.4091 25.0038L25.4377 18.3713Z" stroke="#1E293B" stroke-width="1.5" stroke-linecap="round" stroke-linejoin="round"/>
<path d="M32 32L26.75 17.125M37.25 30.25L32 16.25" stroke="#1E293B" stroke-width="1.5" stroke-linecap="round" stroke-linejoin="round"/>
<path d="M33.3604 33.1373L34.7463 35.9319C34.9353 36.3209 35.4393 36.694 35.8645 36.7654L38.3763 37.1863C39.9826 37.4561 40.3606 38.6312 39.2032 39.7903L37.2503 41.7592C36.9196 42.0927 36.7385 42.7357 36.8408 43.1963L37.4 45.6335C37.841 47.5627 36.8251 48.3091 35.1321 47.3007L32.7779 45.8955C32.3526 45.6416 31.6517 45.6416 31.2188 45.8955L28.8643 47.3007C27.1793 48.3091 26.1557 47.5548 26.5966 45.6335L27.1557 43.1963C27.2581 42.7357 27.077 42.0927 26.7462 41.7592L24.7935 39.7903C23.6438 38.6312 24.0139 37.4561 25.6202 37.1863L28.1321 36.7654C28.5493 36.694 29.0533 36.3209 29.2423 35.9319L30.6282 33.1373C31.3842 31.6209 32.6125 31.6209 33.3604 33.1373Z" fill="#FE7317" stroke="#1E293B" stroke-width="1.5" stroke-linecap="round" stroke-linejoin="round"/>
</svg>
