<svg width="184" height="42" viewBox="0 0 184 42" fill="none" xmlns="http://www.w3.org/2000/svg">
<rect width="184" height="42" rx="21" fill="#F0FDF4"/>
<path d="M27.9905 28H28H27.9905ZM27.9905 28C27.3678 28.6175 26.2393 28.4637 25.4479 28.4637C24.4765 28.4637 24.0087 28.6537 23.3154 29.347C22.7251 29.9374 21.9337 31 21 31C20.0663 31 19.2749 29.9374 18.6846 29.347C17.9913 28.6537 17.5235 28.4637 16.5521 28.4637C15.7607 28.4637 14.6322 28.6175 14.0095 28C13.3818 27.3776 13.5363 26.2444 13.5363 25.4479C13.5363 24.4414 13.3162 23.9786 12.5994 23.2618C11.5331 22.1956 11 21.6624 11 21C11 20.3375 11.5331 19.8044 12.5993 18.7382C13.2392 18.0983 13.5363 17.4643 13.5363 16.5521C13.5363 15.7607 13.3825 14.6321 14 14.0094C14.6224 13.3818 15.7556 13.5363 16.5521 13.5363C17.4643 13.5363 18.0983 13.2392 18.7381 12.5994C19.8044 11.5331 20.3375 11 21 11C21.6625 11 22.1956 11.5331 23.2618 12.5994C23.9015 13.2391 24.5355 13.5363 25.4479 13.5363C26.2393 13.5363 27.3679 13.3825 27.9906 14C28.6182 14.6224 28.4637 15.7556 28.4637 16.5521C28.4637 17.5586 28.6839 18.0214 29.4006 18.7382C30.4669 19.8044 31 20.3375 31 21C31 21.6624 30.4669 22.1956 29.4006 23.2618C28.6838 23.9786 28.4637 24.4414 28.4637 25.4479C28.4637 26.2444 28.6182 27.3776 27.9905 28Z" fill="#16A34A"/>
<path d="M18 21.8929C18 21.8929 19.2 22.5447 19.8 23.5C19.8 23.5 21.6 19.75 24 18.5" stroke="white" stroke-width="1.5" stroke-linecap="round" stroke-linejoin="round"/>
<path d="M48.3182 18.3636L45.4943 26H44.3011L41.4773 18.3636H42.75L44.858 24.4489H44.9375L47.0455 18.3636H48.3182ZM52.7951 26.1591C52.0593 26.1591 51.4246 25.9967 50.891 25.6719C50.3607 25.3438 49.9513 24.8864 49.663 24.2997C49.378 23.7098 49.2354 23.0237 49.2354 22.2415C49.2354 21.4593 49.378 20.7699 49.663 20.1733C49.9513 19.5734 50.3524 19.1061 50.8661 18.7713C51.3832 18.4332 51.9864 18.2642 52.6758 18.2642C53.0735 18.2642 53.4663 18.3305 53.854 18.4631C54.2418 18.5956 54.5948 18.8111 54.913 19.1094C55.2312 19.4044 55.4847 19.7955 55.6737 20.2827C55.8626 20.7699 55.957 21.3698 55.957 22.0824V22.5795H50.0707V21.5653H54.7638C54.7638 21.1345 54.6777 20.75 54.5053 20.4119C54.3363 20.0739 54.0943 19.8071 53.7795 19.6115C53.4679 19.416 53.1 19.3182 52.6758 19.3182C52.2085 19.3182 51.8041 19.4342 51.4627 19.6662C51.1246 19.8949 50.8645 20.1932 50.6822 20.5611C50.4999 20.929 50.4087 21.3234 50.4087 21.7443V22.4205C50.4087 22.9972 50.5082 23.486 50.707 23.8871C50.9092 24.2848 51.1893 24.5881 51.5472 24.7969C51.9052 25.0024 52.3211 25.1051 52.7951 25.1051C53.1033 25.1051 53.3817 25.062 53.6303 24.9759C53.8822 24.8864 54.0993 24.7538 54.2816 24.5781C54.4639 24.3991 54.6048 24.1771 54.7042 23.9119L55.8377 24.2301C55.7184 24.6146 55.5179 24.9527 55.2362 25.2443C54.9544 25.5327 54.6064 25.758 54.1921 25.9205C53.7778 26.0795 53.3121 26.1591 52.7951 26.1591ZM57.7418 26V18.3636H58.8754V19.517H58.9549C59.0941 19.1392 59.346 18.8326 59.7106 18.5973C60.0752 18.362 60.4862 18.2443 60.9435 18.2443C61.0297 18.2443 61.1374 18.246 61.2667 18.2493C61.396 18.2526 61.4937 18.2576 61.56 18.2642V19.4574C61.5202 19.4474 61.4291 19.4325 61.2866 19.4126C61.1474 19.3894 60.9999 19.3778 60.8441 19.3778C60.4729 19.3778 60.1415 19.4557 59.8498 19.6115C59.5614 19.764 59.3327 19.9761 59.1637 20.2479C58.998 20.5163 58.9151 20.8229 58.9151 21.1676V26H57.7418ZM62.9508 26V18.3636H64.1241V26H62.9508ZM63.5474 17.0909C63.3187 17.0909 63.1215 17.013 62.9558 16.8572C62.7934 16.7015 62.7122 16.5142 62.7122 16.2955C62.7122 16.0767 62.7934 15.8894 62.9558 15.7337C63.1215 15.5779 63.3187 15.5 63.5474 15.5C63.7761 15.5 63.9717 15.5779 64.1341 15.7337C64.2998 15.8894 64.3826 16.0767 64.3826 16.2955C64.3826 16.5142 64.2998 16.7015 64.1341 16.8572C63.9717 17.013 63.7761 17.0909 63.5474 17.0909ZM69.6737 18.3636V19.358H65.5572V18.3636H69.6737ZM66.7901 26V17.3097C66.7901 16.8722 66.8929 16.5076 67.0984 16.2159C67.3039 15.9242 67.5707 15.7055 67.8988 15.5597C68.2269 15.4138 68.5733 15.3409 68.9379 15.3409C69.2262 15.3409 69.4615 15.3641 69.6438 15.4105C69.8261 15.4569 69.962 15.5 70.0515 15.5398L69.7134 16.554C69.6538 16.5341 69.5709 16.5092 69.4648 16.4794C69.3621 16.4496 69.2262 16.4347 69.0572 16.4347C68.6694 16.4347 68.3893 16.5324 68.217 16.728C68.0479 16.9235 67.9634 17.2102 67.9634 17.5881V26H66.7901ZM71.318 26V18.3636H72.4913V26H71.318ZM71.9146 17.0909C71.6859 17.0909 71.4887 17.013 71.323 16.8572C71.1606 16.7015 71.0794 16.5142 71.0794 16.2955C71.0794 16.0767 71.1606 15.8894 71.323 15.7337C71.4887 15.5779 71.6859 15.5 71.9146 15.5C72.1433 15.5 72.3388 15.5779 72.5012 15.7337C72.667 15.8894 72.7498 16.0767 72.7498 16.2955C72.7498 16.5142 72.667 16.7015 72.5012 16.8572C72.3388 17.013 72.1433 17.0909 71.9146 17.0909ZM77.842 26.1591C77.1062 26.1591 76.4715 25.9967 75.9379 25.6719C75.4076 25.3438 74.9982 24.8864 74.7099 24.2997C74.4248 23.7098 74.2823 23.0237 74.2823 22.2415C74.2823 21.4593 74.4248 20.7699 74.7099 20.1733C74.9982 19.5734 75.3993 19.1061 75.913 18.7713C76.43 18.4332 77.0333 18.2642 77.7227 18.2642C78.1204 18.2642 78.5131 18.3305 78.9009 18.4631C79.2887 18.5956 79.6417 18.8111 79.9599 19.1094C80.2781 19.4044 80.5316 19.7955 80.7205 20.2827C80.9094 20.7699 81.0039 21.3698 81.0039 22.0824V22.5795H75.1175V21.5653H79.8107C79.8107 21.1345 79.7246 20.75 79.5522 20.4119C79.3832 20.0739 79.1412 19.8071 78.8263 19.6115C78.5148 19.416 78.1469 19.3182 77.7227 19.3182C77.2553 19.3182 76.851 19.4342 76.5096 19.6662C76.1715 19.8949 75.9113 20.1932 75.729 20.5611C75.5468 20.929 75.4556 21.3234 75.4556 21.7443V22.4205C75.4556 22.9972 75.555 23.486 75.7539 23.8871C75.9561 24.2848 76.2362 24.5881 76.5941 24.7969C76.9521 25.0024 77.368 25.1051 77.842 25.1051C78.1502 25.1051 78.4286 25.062 78.6772 24.9759C78.9291 24.8864 79.1462 24.7538 79.3285 24.5781C79.5108 24.3991 79.6516 24.1771 79.7511 23.9119L80.8846 24.2301C80.7653 24.6146 80.5647 24.9527 80.283 25.2443C80.0013 25.5327 79.6533 25.758 79.239 25.9205C78.8247 26.0795 78.359 26.1591 77.842 26.1591ZM85.6722 26.1591C85.0359 26.1591 84.4741 25.9983 83.9869 25.6768C83.4996 25.352 83.1185 24.8946 82.8434 24.3047C82.5683 23.7114 82.4308 23.0104 82.4308 22.2017C82.4308 21.3996 82.5683 20.7036 82.8434 20.1136C83.1185 19.5237 83.5013 19.0679 83.9918 18.7464C84.4824 18.425 85.0491 18.2642 85.6921 18.2642C86.1893 18.2642 86.582 18.3471 86.8704 18.5128C87.1621 18.6752 87.3841 18.8608 87.5366 19.0696C87.6924 19.2751 87.8133 19.4441 87.8995 19.5767H87.9989V15.8182H89.1722V26H88.0387V24.8267H87.8995C87.8133 24.9659 87.6907 25.1416 87.5316 25.3537C87.3725 25.5625 87.1455 25.7498 86.8505 25.9155C86.5555 26.0779 86.1628 26.1591 85.6722 26.1591ZM85.8313 25.1051C86.302 25.1051 86.6997 24.9825 87.0245 24.7372C87.3493 24.4886 87.5962 24.1456 87.7653 23.7081C87.9343 23.2673 88.0188 22.7585 88.0188 22.1818C88.0188 21.6117 87.936 21.1129 87.7702 20.6854C87.6045 20.2545 87.3593 19.9197 87.0344 19.6811C86.7096 19.4392 86.3086 19.3182 85.8313 19.3182C85.3342 19.3182 84.9199 19.4458 84.5884 19.701C84.2603 19.9529 84.0134 20.2959 83.8477 20.7301C83.6853 21.161 83.604 21.6449 83.604 22.1818C83.604 22.7254 83.6869 23.2192 83.8526 23.6634C84.0217 24.1042 84.2702 24.4555 84.5984 24.7173C84.9298 24.9759 85.3408 25.1051 85.8313 25.1051ZM95.5806 26V15.8182H96.7539V19.5767H96.8533C96.9395 19.4441 97.0588 19.2751 97.2113 19.0696C97.3671 18.8608 97.5891 18.6752 97.8775 18.5128C98.1692 18.3471 98.5636 18.2642 99.0607 18.2642C99.7037 18.2642 100.27 18.425 100.761 18.7464C101.252 19.0679 101.634 19.5237 101.909 20.1136C102.185 20.7036 102.322 21.3996 102.322 22.2017C102.322 23.0104 102.185 23.7114 101.909 24.3047C101.634 24.8946 101.253 25.352 100.766 25.6768C100.279 25.9983 99.717 26.1591 99.0806 26.1591C98.5901 26.1591 98.1973 26.0779 97.9023 25.9155C97.6074 25.7498 97.3803 25.5625 97.2212 25.3537C97.0621 25.1416 96.9395 24.9659 96.8533 24.8267H96.7141V26H95.5806ZM96.734 22.1818C96.734 22.7585 96.8185 23.2673 96.9876 23.7081C97.1566 24.1456 97.4035 24.4886 97.7283 24.7372C98.0531 24.9825 98.4509 25.1051 98.9215 25.1051C99.4121 25.1051 99.8214 24.9759 100.15 24.7173C100.481 24.4555 100.73 24.1042 100.895 23.6634C101.064 23.2192 101.149 22.7254 101.149 22.1818C101.149 21.6449 101.066 21.161 100.9 20.7301C100.738 20.2959 100.491 19.9529 100.159 19.701C99.8313 19.4458 99.4187 19.3182 98.9215 19.3182C98.4442 19.3182 98.0432 19.4392 97.7184 19.6811C97.3936 19.9197 97.1483 20.2545 96.9826 20.6854C96.8169 21.1129 96.734 21.6117 96.734 22.1818ZM104.599 28.8636C104.4 28.8636 104.223 28.8471 104.067 28.8139C103.911 28.7841 103.804 28.7543 103.744 28.7244L104.042 27.6903C104.327 27.7633 104.579 27.7898 104.798 27.7699C105.017 27.75 105.211 27.6522 105.38 27.4766C105.552 27.3042 105.709 27.0241 105.852 26.6364L106.071 26.0398L103.247 18.3636H104.52L106.627 24.4489H106.707L108.815 18.3636H110.088L106.846 27.1136C106.7 27.508 106.52 27.8345 106.304 28.093C106.089 28.3549 105.839 28.5488 105.554 28.6747C105.272 28.8007 104.954 28.8636 104.599 28.8636ZM122.415 15.8182H123.648V22.5597C123.648 23.2557 123.484 23.8771 123.156 24.424C122.831 24.9676 122.372 25.3968 121.778 25.7116C121.185 26.0232 120.489 26.179 119.69 26.179C118.892 26.179 118.196 26.0232 117.602 25.7116C117.009 25.3968 116.548 24.9676 116.22 24.424C115.895 23.8771 115.733 23.2557 115.733 22.5597V15.8182H116.966V22.4602C116.966 22.9574 117.075 23.3999 117.294 23.7876C117.513 24.1721 117.824 24.4754 118.229 24.6974C118.636 24.9162 119.124 25.0256 119.69 25.0256C120.257 25.0256 120.744 24.9162 121.152 24.6974C121.56 24.4754 121.871 24.1721 122.087 23.7876C122.305 23.3999 122.415 22.9574 122.415 22.4602V15.8182ZM125.951 28.8636V18.3636H127.084V19.5767H127.224C127.31 19.4441 127.429 19.2751 127.581 19.0696C127.737 18.8608 127.959 18.6752 128.248 18.5128C128.539 18.3471 128.934 18.2642 129.431 18.2642C130.074 18.2642 130.641 18.425 131.131 18.7464C131.622 19.0679 132.005 19.5237 132.28 20.1136C132.555 20.7036 132.692 21.3996 132.692 22.2017C132.692 23.0104 132.555 23.7114 132.28 24.3047C132.005 24.8946 131.623 25.352 131.136 25.6768C130.649 25.9983 130.087 26.1591 129.451 26.1591C128.96 26.1591 128.568 26.0779 128.273 25.9155C127.978 25.7498 127.751 25.5625 127.591 25.3537C127.432 25.1416 127.31 24.9659 127.224 24.8267H127.124V28.8636H125.951ZM127.104 22.1818C127.104 22.7585 127.189 23.2673 127.358 23.7081C127.527 24.1456 127.774 24.4886 128.099 24.7372C128.423 24.9825 128.821 25.1051 129.292 25.1051C129.782 25.1051 130.192 24.9759 130.52 24.7173C130.851 24.4555 131.1 24.1042 131.265 23.6634C131.434 23.2192 131.519 22.7254 131.519 22.1818C131.519 21.6449 131.436 21.161 131.27 20.7301C131.108 20.2959 130.861 19.9529 130.53 19.701C130.202 19.4458 129.789 19.3182 129.292 19.3182C128.814 19.3182 128.413 19.4392 128.089 19.6811C127.764 19.9197 127.519 20.2545 127.353 20.6854C127.187 21.1129 127.104 21.6117 127.104 22.1818ZM135.952 26L133.626 18.3636H134.859L136.509 24.2102H136.589L138.219 18.3636H139.472L141.083 24.1903H141.163L142.813 18.3636H144.046L141.719 26H140.566L138.896 20.1335H138.776L137.106 26H135.952ZM148.44 26.1591C147.75 26.1591 147.146 25.995 146.625 25.6669C146.108 25.3388 145.704 24.8797 145.412 24.2898C145.124 23.6998 144.98 23.0104 144.98 22.2216C144.98 21.4261 145.124 20.7318 145.412 20.1385C145.704 19.5452 146.108 19.0845 146.625 18.7564C147.146 18.4283 147.75 18.2642 148.44 18.2642C149.129 18.2642 149.732 18.4283 150.249 18.7564C150.77 19.0845 151.174 19.5452 151.463 20.1385C151.754 20.7318 151.9 21.4261 151.9 22.2216C151.9 23.0104 151.754 23.6998 151.463 24.2898C151.174 24.8797 150.77 25.3388 150.249 25.6669C149.732 25.995 149.129 26.1591 148.44 26.1591ZM148.44 25.1051C148.963 25.1051 149.394 24.9709 149.732 24.7024C150.07 24.4339 150.321 24.081 150.483 23.6435C150.646 23.206 150.727 22.732 150.727 22.2216C150.727 21.7112 150.646 21.2356 150.483 20.7947C150.321 20.3539 150.07 19.9976 149.732 19.7259C149.394 19.4541 148.963 19.3182 148.44 19.3182C147.916 19.3182 147.485 19.4541 147.147 19.7259C146.809 19.9976 146.559 20.3539 146.396 20.7947C146.234 21.2356 146.153 21.7112 146.153 22.2216C146.153 22.732 146.234 23.206 146.396 23.6435C146.559 24.081 146.809 24.4339 147.147 24.7024C147.485 24.9709 147.916 25.1051 148.44 25.1051ZM153.691 26V18.3636H154.825V19.517H154.904C155.043 19.1392 155.295 18.8326 155.66 18.5973C156.024 18.362 156.435 18.2443 156.893 18.2443C156.979 18.2443 157.087 18.246 157.216 18.2493C157.345 18.2526 157.443 18.2576 157.509 18.2642V19.4574C157.469 19.4474 157.378 19.4325 157.236 19.4126C157.097 19.3894 156.949 19.3778 156.793 19.3778C156.422 19.3778 156.091 19.4557 155.799 19.6115C155.511 19.764 155.282 19.9761 155.113 20.2479C154.947 20.5163 154.864 20.8229 154.864 21.1676V26H153.691ZM159.994 23.2159L159.974 21.7642H160.213L163.553 18.3636H165.005L161.445 21.9631H161.346L159.994 23.2159ZM158.9 26V15.8182H160.073V26H158.9ZM163.752 26L160.769 22.2216L161.605 21.4062L165.244 26H163.752Z" fill="#000316"/>
</svg>
