<svg width="135" height="397" viewBox="0 0 135 397" fill="none" xmlns="http://www.w3.org/2000/svg">
<g opacity="0.1">
<path d="M0.542169 299.11V397L133.373 284.426V185.992L0.542169 299.11Z" fill="url(#paint0_linear_701_2618)"/>
<path d="M0 114.749V170.221L76.4458 234.937L135 185.448L40.1205 106.592V148.467L0 114.749Z" fill="url(#paint1_linear_701_2618)"/>
<path d="M0 52.7521L40.1205 84.2945V41.3315L0 8.70137V52.7521Z" fill="url(#paint2_linear_701_2618)"/>
<path d="M69.3976 63.6288V89.189L91.6265 106.592V82.1192L69.3976 63.6288Z" fill="url(#paint3_linear_701_2618)"/>
<path d="M43.9157 0V16.8589L59.6386 30.4548V13.5959L43.9157 0Z" fill="url(#paint4_linear_701_2618)"/>
</g>
<defs>
<linearGradient id="paint0_linear_701_2618" x1="-1.40625" y1="-0.201295" x2="123.747" y2="205.119" gradientUnits="userSpaceOnUse">
<stop stop-color="#0249FF"/>
<stop offset="1" stop-color="#4278FF"/>
</linearGradient>
<linearGradient id="paint1_linear_701_2618" x1="-1.40625" y1="-0.201295" x2="123.747" y2="205.119" gradientUnits="userSpaceOnUse">
<stop stop-color="#0249FF"/>
<stop offset="1" stop-color="#4278FF"/>
</linearGradient>
<linearGradient id="paint2_linear_701_2618" x1="-1.40625" y1="-0.201295" x2="123.747" y2="205.119" gradientUnits="userSpaceOnUse">
<stop stop-color="#0249FF"/>
<stop offset="1" stop-color="#4278FF"/>
</linearGradient>
<linearGradient id="paint3_linear_701_2618" x1="-1.40625" y1="-0.201295" x2="123.747" y2="205.119" gradientUnits="userSpaceOnUse">
<stop stop-color="#0249FF"/>
<stop offset="1" stop-color="#4278FF"/>
</linearGradient>
<linearGradient id="paint4_linear_701_2618" x1="-1.40625" y1="-0.201295" x2="123.747" y2="205.119" gradientUnits="userSpaceOnUse">
<stop stop-color="#0249FF"/>
<stop offset="1" stop-color="#4278FF"/>
</linearGradient>
</defs>
</svg>
