<svg width="673" height="182" viewBox="0 0 673 182" fill="none" xmlns="http://www.w3.org/2000/svg">
<path d="M22.856 9.352C26.952 9.352 28.68 11.336 28.936 15.048H41.16C41.16 6.024 34.76 0.327999 23.944 0.327999C11.08 0.327999 5.128 7.176 5.128 14.728C5.128 29.896 26.504 25.352 26.504 32.328C26.504 35.272 24.072 37.128 19.848 37.128C15.816 37.128 13.448 34.888 13.256 30.984H0.968C1.224 40.264 7.496 46.152 19.4 46.152C31.496 46.152 38.92 39.688 38.92 31.176C38.92 15.112 17.48 20.104 17.48 13.384C17.48 11.08 19.336 9.352 22.856 9.352ZM40.1165 45H51.7645L56.9485 14.728L58.0365 25.672L61.1725 45H69.6205L80.0525 25.864L85.6845 14.344L79.0285 45H90.6765L99.1245 1.48H84.2125L71.3485 25.224L67.8925 32.584L67.3165 25.224L63.7325 1.48H48.5645L40.1165 45ZM125.964 45H138.252L131.148 1.48H117.196L93.196 45H105.164L109.132 37.576H124.876L125.964 45ZM119.436 18.184L121.804 13.064L122.124 18.184L123.66 28.744H113.804L119.436 18.184ZM140.743 45H152.455L155.463 29.576H161.415C164.679 29.576 165.575 30.344 165.639 33.736L165.703 45H177.927L177.223 31.624C177.031 28.744 176.327 26.696 174.919 25.224C179.591 22.856 182.279 18.76 182.279 13.512C182.279 5.768 176.647 1.48 167.367 1.48H149.191L140.743 45ZM165.703 10.696C168.583 10.696 169.991 12.104 169.991 14.344C169.991 18.248 167.623 20.616 163.463 20.616H157.191L159.111 10.696H165.703ZM191.657 45H203.305L209.897 10.952H223.017L224.809 1.48H187.049L185.193 10.952H198.249L191.657 45ZM274.782 15.88C274.654 7.112 269.15 0.327999 257.246 0.327999C241.118 0.327999 231.518 14.152 231.518 28.232C231.518 39.56 238.494 46.152 249.95 46.152C258.974 46.152 267.998 41.544 271.838 30.984H259.742C257.886 34.76 254.558 36.616 250.782 36.616C246.046 36.616 243.614 33.544 243.614 28.168C243.614 18.952 248.606 9.864 256.03 9.864C259.998 9.864 262.366 12.04 262.814 15.88H274.782ZM294.183 46.152C310.119 46.152 320.871 33.288 320.807 18.76C320.807 7.112 313.511 0.327999 301.863 0.327999C285.991 0.327999 275.239 13.192 275.239 27.72C275.239 39.368 282.599 46.152 294.183 46.152ZM295.399 36.616C290.087 36.616 287.335 33.032 287.335 27.016C287.335 19.208 292.455 9.864 300.711 9.864C306.023 9.864 308.775 13.448 308.775 19.464C308.775 27.272 303.655 36.616 295.399 36.616ZM320.468 45H332.18L336.98 16.968L339.028 24.584L346.836 45H359.124L367.572 1.48H355.924L351.124 29.512L349.076 21.832L341.268 1.48H328.916L320.468 45ZM375.882 45H387.53L394.122 10.952H407.242L409.034 1.48H371.274L369.418 10.952H382.474L375.882 45ZM404.283 45H415.995L419.003 29.576H424.955C428.219 29.576 429.115 30.344 429.179 33.736L429.243 45H441.467L440.763 31.624C440.571 28.744 439.867 26.696 438.459 25.224C443.131 22.856 445.819 18.76 445.819 13.512C445.819 5.768 440.187 1.48 430.907 1.48H412.731L404.283 45ZM429.243 10.696C432.123 10.696 433.531 12.104 433.531 14.344C433.531 18.248 431.163 20.616 427.003 20.616H420.731L422.651 10.696H429.243ZM474.569 45H486.857L479.753 1.48H465.801L441.801 45H453.769L457.737 37.576H473.481L474.569 45ZM468.041 18.184L470.409 13.064L470.729 18.184L472.265 28.744H462.409L468.041 18.184ZM532.289 15.88C532.161 7.112 526.657 0.327999 514.753 0.327999C498.625 0.327999 489.025 14.152 489.025 28.232C489.025 39.56 496.001 46.152 507.457 46.152C516.481 46.152 525.505 41.544 529.345 30.984H517.249C515.393 34.76 512.065 36.616 508.289 36.616C503.553 36.616 501.121 33.544 501.121 28.168C501.121 18.952 506.113 9.864 513.537 9.864C517.505 9.864 519.873 12.04 520.321 15.88H532.289ZM540.636 45H552.284L558.876 10.952H571.996L573.788 1.48H536.028L534.172 10.952H547.228L540.636 45ZM590.999 9.352C595.095 9.352 596.823 11.336 597.079 15.048H609.303C609.303 6.024 602.903 0.327999 592.087 0.327999C579.223 0.327999 573.271 7.176 573.271 14.728C573.271 29.896 594.647 25.352 594.647 32.328C594.647 35.272 592.215 37.128 587.991 37.128C583.959 37.128 581.591 34.888 581.399 30.984H569.111C569.367 40.264 575.639 46.152 587.543 46.152C599.639 46.152 607.063 39.688 607.063 31.176C607.063 15.112 585.623 20.104 585.623 13.384C585.623 11.08 587.479 9.352 590.999 9.352ZM0.584 113H12.232L17.416 82.728L18.504 93.672L21.64 113H30.088L40.52 93.864L46.152 82.344L39.496 113H51.144L59.592 69.48H44.68L31.816 93.224L28.36 100.584L27.784 93.224L24.2 69.48H9.032L0.584 113ZM86.4315 113H98.7195L91.6155 69.48H77.6635L53.6635 113H65.6315L69.5995 105.576H85.3435L86.4315 113ZM79.9035 86.184L82.2715 81.064L82.5915 86.184L84.1275 96.744H74.2715L79.9035 86.184ZM101.21 113H119.514C135.77 113 145.946 100.968 145.946 87.528C145.946 76.008 138.842 69.48 126.298 69.48H109.658L101.21 113ZM120.41 103.528H114.778L119.514 78.952H125.402C130.906 78.952 133.914 82.088 133.914 87.592C133.914 96.232 128.794 103.528 120.41 103.528ZM145.68 113H177.488L179.28 103.784H159.184L160.848 95.272H178.384L180.112 86.312H162.576L164.048 78.696H184.144L185.936 69.48H154.128L145.68 113ZM214.894 77.352C218.99 77.352 220.718 79.336 220.974 83.048H233.198C233.198 74.024 226.798 68.328 215.982 68.328C203.118 68.328 197.166 75.176 197.166 82.728C197.166 97.896 218.542 93.352 218.542 100.328C218.542 103.272 216.11 105.128 211.886 105.128C207.854 105.128 205.486 102.888 205.294 98.984H193.006C193.262 108.264 199.534 114.152 211.438 114.152C223.534 114.152 230.958 107.688 230.958 99.176C230.958 83.112 209.518 88.104 209.518 81.384C209.518 79.08 211.374 77.352 214.894 77.352ZM232.09 113H243.802L252.25 69.48H240.538L232.09 113ZM249.624 113H261.272L266.456 82.728L267.544 93.672L270.68 113H279.128L289.56 93.864L295.192 82.344L288.536 113H300.184L308.632 69.48H293.72L280.856 93.224L277.4 100.584L276.824 93.224L273.24 69.48H258.072L249.624 113ZM305.968 113H317.68L320.368 99.304H326.576C339.568 99.304 347.312 91.56 347.312 82.28C347.312 74.152 341.232 69.48 331.76 69.48H314.416L305.968 113ZM330.096 78.696C333.488 78.696 335.152 80.296 335.152 82.92C335.152 87.016 332.592 90.088 327.6 90.088H322.096L324.336 78.696H330.096ZM345.438 113H375.326L377.182 103.528H359.006L365.598 69.48H353.886L345.438 113ZM379.033 113H410.841L412.633 103.784H392.537L394.201 95.272H411.737L413.465 86.312H395.929L397.401 78.696H417.497L419.289 69.48H387.481L379.033 113ZM448.054 72.488C454.646 72.488 458.166 75.56 458.422 81.512H462.902C462.902 73.448 457.59 68.776 448.502 68.776C437.686 68.776 432.502 75.24 432.502 81.256C432.502 96.424 455.734 88.232 455.734 100.008C455.734 105.32 451.062 109.992 442.87 109.992C435.958 109.992 432.182 106.792 431.798 101.16H427.318C427.83 109.288 433.526 113.704 442.87 113.704C453.622 113.704 460.342 107.176 460.342 99.56C460.342 84.456 437.11 92.2 437.11 81.192C437.11 76.776 440.566 72.488 448.054 72.488ZM464.487 113H493.351L494.055 109.48H469.479L472.807 92.2H495.079L495.783 88.616H473.511L476.519 73H501.159L501.799 69.48H472.935L464.487 113ZM500.645 113H504.933L508.645 93.928H518.821C524.645 93.928 526.949 95.016 527.205 101.096L527.781 113H532.197L531.429 100.136C531.173 95.464 529.957 93.032 526.949 91.944C532.837 89.832 536.357 85.16 536.357 79.848C536.357 73.256 531.685 69.48 523.941 69.48H509.093L500.645 113ZM523.237 73C528.677 73 531.813 75.624 531.813 79.912C531.813 85.864 527.013 90.344 519.717 90.344H509.349L512.677 73H523.237ZM546.261 69.48H541.909L550.933 113H555.989L581.845 69.48H577.365L556.053 105.384L554.197 108.84L553.685 105.384L546.261 69.48ZM579.085 113H583.373L591.821 69.48H587.533L579.085 113ZM633.824 81.512C633.12 73.32 627.104 68.776 618.72 68.776C604.128 68.776 594.848 82.344 594.848 97.128C594.848 107.496 600.8 113.704 610.592 113.704C618.72 113.704 625.888 109.224 629.92 101.16H625.376C621.984 107.24 616.8 109.992 611.04 109.992C603.424 109.992 599.328 105.128 599.328 96.936C599.328 84.2 606.752 72.488 618.272 72.488C624.288 72.488 628.704 75.752 629.408 81.512H633.824ZM634.963 113H663.827L664.531 109.48H639.955L643.283 92.2H665.555L666.259 88.616H643.987L646.995 73H671.635L672.275 69.48H643.411L634.963 113ZM22.664 140.488C29.256 140.488 32.776 143.56 33.032 149.512H37.512C37.512 141.448 32.2 136.776 23.112 136.776C12.296 136.776 7.112 143.24 7.112 149.256C7.112 164.424 30.344 156.232 30.344 168.008C30.344 173.32 25.672 177.992 17.48 177.992C10.568 177.992 6.792 174.792 6.408 169.16H1.928C2.44 177.288 8.136 181.704 17.48 181.704C28.232 181.704 34.952 175.176 34.952 167.56C34.952 152.456 11.72 160.2 11.72 149.192C11.72 144.776 15.176 140.488 22.664 140.488ZM39.0975 181H43.3855L47.4175 160.264H72.1855L68.1535 181H72.5055L80.9535 137.48H76.6015L72.8895 156.744H48.1215L51.8335 137.48H47.5455L39.0975 181ZM100.818 181.704C115.794 181.704 125.586 168.008 125.522 154.184C125.458 143.112 119.506 136.776 108.754 136.776C93.778 136.776 83.986 150.472 83.986 164.296C83.986 175.368 90.002 181.704 100.818 181.704ZM101.01 177.992C92.818 177.992 88.53 172.808 88.53 164.168C88.53 152.456 96.274 140.488 108.434 140.488C116.754 140.488 121.042 145.672 121.042 154.312C120.978 166.024 113.298 177.992 101.01 177.992ZM166.297 181H171.609L193.945 137.48H189.401L171.289 173.448L169.625 176.904L169.369 173.448L165.017 137.48H160.601L142.233 173.448L140.633 176.904L140.313 173.448L136.153 137.48H131.673L137.113 181H142.489L160.345 146.376L161.689 143.56L161.945 146.376L166.297 181ZM192.383 181H196.671L200.383 161.928H210.559C216.383 161.928 218.687 163.016 218.943 169.096L219.519 181H223.935L223.167 168.136C222.911 163.464 221.695 161.032 218.687 159.944C224.575 157.832 228.095 153.16 228.095 147.848C228.095 141.256 223.423 137.48 215.679 137.48H200.831L192.383 181ZM214.975 141C220.415 141 223.551 143.624 223.551 147.912C223.551 153.864 218.751 158.344 211.455 158.344H201.087L204.415 141H214.975ZM230.54 181H259.404L260.108 177.48H235.532L238.86 160.2H261.132L261.836 156.616H239.564L242.572 141H267.212L267.852 137.48H238.988L230.54 181ZM266.698 181H295.562L296.266 177.48H271.69L275.018 160.2H297.29L297.994 156.616H275.722L278.73 141H303.37L304.01 137.48H275.146L266.698 181ZM302.855 181H331.719L332.423 177.48H307.847L311.175 160.2H333.447L334.151 156.616H311.879L314.887 141H339.527L340.167 137.48H311.303L302.855 181ZM339.013 181H366.213L366.917 177.48H344.005L351.749 137.48H347.461L339.013 181Z" fill="url(#paint0_linear_701_7552)"/>
<defs>
<linearGradient id="paint0_linear_701_7552" x1="199.926" y1="-12" x2="238.517" y2="243.683" gradientUnits="userSpaceOnUse">
<stop stop-color="#F1F5F9"/>
<stop offset="1" stop-color="#B9D4EF"/>
</linearGradient>
</defs>
</svg>
