<svg width="293" height="104" viewBox="0 0 293 104" fill="none" xmlns="http://www.w3.org/2000/svg">
<rect width="293" height="104" rx="50" fill="#F8FAFC"/>
<rect x="36" y="25" width="221" height="54" rx="27" fill="#FE7317"/>
<path d="M61.5767 58H57.8097V46.3636H61.696C62.8362 46.3636 63.8153 46.5966 64.6335 47.0625C65.4517 47.5246 66.0786 48.1894 66.5142 49.0568C66.9536 49.9205 67.1733 50.9564 67.1733 52.1648C67.1733 53.3769 66.9517 54.4186 66.5085 55.2898C66.0691 56.161 65.4328 56.8314 64.5994 57.3011C63.7661 57.767 62.7585 58 61.5767 58ZM59.5653 56.4659H61.4801C62.3665 56.4659 63.1032 56.2992 63.6903 55.9659C64.2775 55.6288 64.7169 55.142 65.0085 54.5057C65.3002 53.8655 65.446 53.0852 65.446 52.1648C65.446 51.2519 65.3002 50.4773 65.0085 49.8409C64.7206 49.2045 64.2907 48.7216 63.7188 48.392C63.1468 48.0625 62.4366 47.8977 61.5881 47.8977H59.5653V56.4659ZM69.2202 58V49.2727H70.919V58H69.2202ZM70.0781 47.9261C69.7827 47.9261 69.5289 47.8277 69.3168 47.6307C69.1084 47.4299 69.0043 47.1913 69.0043 46.9148C69.0043 46.6345 69.1084 46.3958 69.3168 46.1989C69.5289 45.9981 69.7827 45.8977 70.0781 45.8977C70.3736 45.8977 70.6255 45.9981 70.8338 46.1989C71.0459 46.3958 71.152 46.6345 71.152 46.9148C71.152 47.1913 71.0459 47.4299 70.8338 47.6307C70.6255 47.8277 70.3736 47.9261 70.0781 47.9261ZM79.7443 51.4034L78.2045 51.6761C78.1402 51.4792 78.0379 51.2917 77.8977 51.1136C77.7614 50.9356 77.5758 50.7898 77.3409 50.6761C77.1061 50.5625 76.8125 50.5057 76.4602 50.5057C75.9792 50.5057 75.5777 50.6136 75.2557 50.8295C74.9337 51.0417 74.7727 51.3163 74.7727 51.6534C74.7727 51.9451 74.8807 52.1799 75.0966 52.358C75.3125 52.536 75.661 52.6818 76.142 52.7955L77.5284 53.1136C78.3314 53.2992 78.9299 53.5852 79.3239 53.9716C79.7178 54.358 79.9148 54.8598 79.9148 55.4773C79.9148 56 79.7633 56.4659 79.4602 56.875C79.161 57.2803 78.7424 57.5985 78.2045 57.8295C77.6705 58.0606 77.0511 58.1761 76.3466 58.1761C75.3693 58.1761 74.572 57.9678 73.9545 57.5511C73.3371 57.1307 72.9583 56.5341 72.8182 55.7614L74.4602 55.5114C74.5625 55.9394 74.7727 56.2633 75.0909 56.483C75.4091 56.6989 75.8239 56.8068 76.3352 56.8068C76.892 56.8068 77.3371 56.6913 77.6705 56.4602C78.0038 56.2254 78.1705 55.9394 78.1705 55.6023C78.1705 55.3295 78.0682 55.1004 77.8636 54.9148C77.6629 54.7292 77.3542 54.589 76.9375 54.4943L75.4602 54.1705C74.6458 53.9848 74.0436 53.6894 73.6534 53.2841C73.267 52.8788 73.0739 52.3655 73.0739 51.7443C73.0739 51.2292 73.2178 50.7784 73.5057 50.392C73.7936 50.0057 74.1913 49.7045 74.6989 49.4886C75.2064 49.2689 75.7879 49.1591 76.4432 49.1591C77.3864 49.1591 78.1288 49.3636 78.6705 49.7727C79.2121 50.178 79.5701 50.7216 79.7443 51.4034ZM85.4588 58.1761C84.6141 58.1761 83.8868 57.9848 83.277 57.6023C82.6709 57.2159 82.205 56.6837 81.8793 56.0057C81.5535 55.3277 81.3906 54.5511 81.3906 53.6761C81.3906 52.7898 81.5573 52.0076 81.8906 51.3295C82.224 50.6477 82.6937 50.1155 83.2997 49.733C83.9058 49.3504 84.6198 49.1591 85.4418 49.1591C86.1046 49.1591 86.6955 49.2822 87.2145 49.5284C87.7334 49.7708 88.152 50.1117 88.4702 50.5511C88.7921 50.9905 88.9834 51.5038 89.044 52.0909H87.3906C87.2997 51.6818 87.0914 51.3295 86.7656 51.0341C86.4437 50.7386 86.0118 50.5909 85.4702 50.5909C84.9967 50.5909 84.5819 50.7159 84.2259 50.9659C83.8736 51.2121 83.599 51.5644 83.402 52.0227C83.205 52.4773 83.1065 53.0152 83.1065 53.6364C83.1065 54.2727 83.2031 54.822 83.3963 55.2841C83.5895 55.7462 83.8622 56.1042 84.2145 56.358C84.5705 56.6117 84.9891 56.7386 85.4702 56.7386C85.7921 56.7386 86.0838 56.6799 86.3452 56.5625C86.6103 56.4413 86.8319 56.2689 87.0099 56.0455C87.1918 55.822 87.3187 55.553 87.3906 55.2386H89.044C88.9834 55.803 88.7997 56.3068 88.4929 56.75C88.1861 57.1932 87.7751 57.5417 87.2599 57.7955C86.7486 58.0492 86.1482 58.1761 85.4588 58.1761ZM96.3892 54.3807V49.2727H98.0938V58H96.4233V56.4886H96.3324C96.1316 56.9545 95.8097 57.3428 95.3665 57.6534C94.9271 57.9602 94.3797 58.1136 93.7244 58.1136C93.1638 58.1136 92.6676 57.9905 92.2358 57.7443C91.8078 57.4943 91.4706 57.125 91.2244 56.6364C90.982 56.1477 90.8608 55.5436 90.8608 54.8239V49.2727H92.5597V54.6193C92.5597 55.214 92.7244 55.6875 93.054 56.0398C93.3835 56.392 93.8116 56.5682 94.3381 56.5682C94.6563 56.5682 94.9725 56.4886 95.2869 56.3295C95.6051 56.1705 95.8684 55.9299 96.0767 55.608C96.2888 55.286 96.393 54.8769 96.3892 54.3807ZM106.916 51.4034L105.376 51.6761C105.312 51.4792 105.21 51.2917 105.07 51.1136C104.933 50.9356 104.748 50.7898 104.513 50.6761C104.278 50.5625 103.984 50.5057 103.632 50.5057C103.151 50.5057 102.75 50.6136 102.428 50.8295C102.106 51.0417 101.945 51.3163 101.945 51.6534C101.945 51.9451 102.053 52.1799 102.268 52.358C102.484 52.536 102.833 52.6818 103.314 52.7955L104.7 53.1136C105.503 53.2992 106.102 53.5852 106.496 53.9716C106.89 54.358 107.087 54.8598 107.087 55.4773C107.087 56 106.935 56.4659 106.632 56.875C106.333 57.2803 105.914 57.5985 105.376 57.8295C104.842 58.0606 104.223 58.1761 103.518 58.1761C102.541 58.1761 101.744 57.9678 101.126 57.5511C100.509 57.1307 100.13 56.5341 99.9901 55.7614L101.632 55.5114C101.734 55.9394 101.945 56.2633 102.263 56.483C102.581 56.6989 102.996 56.8068 103.507 56.8068C104.064 56.8068 104.509 56.6913 104.842 56.4602C105.176 56.2254 105.342 55.9394 105.342 55.6023C105.342 55.3295 105.24 55.1004 105.036 54.9148C104.835 54.7292 104.526 54.589 104.109 54.4943L102.632 54.1705C101.818 53.9848 101.215 53.6894 100.825 53.2841C100.439 52.8788 100.246 52.3655 100.246 51.7443C100.246 51.2292 100.39 50.7784 100.678 50.392C100.965 50.0057 101.363 49.7045 101.871 49.4886C102.378 49.2689 102.96 49.1591 103.615 49.1591C104.558 49.1591 105.301 49.3636 105.842 49.7727C106.384 50.178 106.742 50.7216 106.916 51.4034ZM115.494 51.4034L113.955 51.6761C113.89 51.4792 113.788 51.2917 113.648 51.1136C113.511 50.9356 113.326 50.7898 113.091 50.6761C112.856 50.5625 112.563 50.5057 112.21 50.5057C111.729 50.5057 111.328 50.6136 111.006 50.8295C110.684 51.0417 110.523 51.3163 110.523 51.6534C110.523 51.9451 110.631 52.1799 110.847 52.358C111.063 52.536 111.411 52.6818 111.892 52.7955L113.278 53.1136C114.081 53.2992 114.68 53.5852 115.074 53.9716C115.468 54.358 115.665 54.8598 115.665 55.4773C115.665 56 115.513 56.4659 115.21 56.875C114.911 57.2803 114.492 57.5985 113.955 57.8295C113.42 58.0606 112.801 58.1761 112.097 58.1761C111.119 58.1761 110.322 57.9678 109.705 57.5511C109.087 57.1307 108.708 56.5341 108.568 55.7614L110.21 55.5114C110.313 55.9394 110.523 56.2633 110.841 56.483C111.159 56.6989 111.574 56.8068 112.085 56.8068C112.642 56.8068 113.087 56.6913 113.42 56.4602C113.754 56.2254 113.92 55.9394 113.92 55.6023C113.92 55.3295 113.818 55.1004 113.614 54.9148C113.413 54.7292 113.104 54.589 112.688 54.4943L111.21 54.1705C110.396 53.9848 109.794 53.6894 109.403 53.2841C109.017 52.8788 108.824 52.3655 108.824 51.7443C108.824 51.2292 108.968 50.7784 109.256 50.392C109.544 50.0057 109.941 49.7045 110.449 49.4886C110.956 49.2689 111.538 49.1591 112.193 49.1591C113.136 49.1591 113.879 49.3636 114.42 49.7727C114.962 50.178 115.32 50.7216 115.494 51.4034ZM121.006 46.3636H123L126.04 51.6534H126.165L129.205 46.3636H131.199L126.977 53.4318V58H125.227V53.4318L121.006 46.3636ZM134.959 58.1761C134.141 58.1761 133.427 57.9886 132.817 57.6136C132.207 57.2386 131.733 56.714 131.396 56.0398C131.059 55.3655 130.891 54.5777 130.891 53.6761C130.891 52.7708 131.059 51.9792 131.396 51.3011C131.733 50.6231 132.207 50.0966 132.817 49.7216C133.427 49.3466 134.141 49.1591 134.959 49.1591C135.777 49.1591 136.491 49.3466 137.101 49.7216C137.711 50.0966 138.184 50.6231 138.521 51.3011C138.858 51.9792 139.027 52.7708 139.027 53.6761C139.027 54.5777 138.858 55.3655 138.521 56.0398C138.184 56.714 137.711 57.2386 137.101 57.6136C136.491 57.9886 135.777 58.1761 134.959 58.1761ZM134.964 56.75C135.495 56.75 135.934 56.6098 136.283 56.3295C136.631 56.0492 136.889 55.6761 137.055 55.2102C137.226 54.7443 137.311 54.2311 137.311 53.6705C137.311 53.1136 137.226 52.6023 137.055 52.1364C136.889 51.6667 136.631 51.2898 136.283 51.0057C135.934 50.7216 135.495 50.5795 134.964 50.5795C134.43 50.5795 133.987 50.7216 133.635 51.0057C133.286 51.2898 133.027 51.6667 132.857 52.1364C132.69 52.6023 132.607 53.1136 132.607 53.6705C132.607 54.2311 132.69 54.7443 132.857 55.2102C133.027 55.6761 133.286 56.0492 133.635 56.3295C133.987 56.6098 134.43 56.75 134.964 56.75ZM146.452 54.3807V49.2727H148.156V58H146.486V56.4886H146.395C146.194 56.9545 145.872 57.3428 145.429 57.6534C144.99 57.9602 144.442 58.1136 143.787 58.1136C143.226 58.1136 142.73 57.9905 142.298 57.7443C141.87 57.4943 141.533 57.125 141.287 56.6364C141.045 56.1477 140.923 55.5436 140.923 54.8239V49.2727H142.622V54.6193C142.622 55.214 142.787 55.6875 143.116 56.0398C143.446 56.392 143.874 56.5682 144.401 56.5682C144.719 56.5682 145.035 56.4886 145.349 56.3295C145.668 56.1705 145.931 55.9299 146.139 55.608C146.351 55.286 146.455 54.8769 146.452 54.3807ZM150.439 58V49.2727H152.081V50.6591H152.172C152.331 50.1894 152.611 49.8201 153.013 49.5511C153.418 49.2784 153.876 49.142 154.388 49.142C154.494 49.142 154.619 49.1458 154.763 49.1534C154.911 49.161 155.026 49.1705 155.109 49.1818V50.8068C155.041 50.7879 154.92 50.767 154.746 50.7443C154.571 50.7178 154.397 50.7045 154.223 50.7045C153.821 50.7045 153.464 50.7898 153.149 50.9602C152.839 51.1269 152.592 51.3598 152.411 51.6591C152.229 51.9545 152.138 52.2917 152.138 52.6705V58H150.439ZM170.342 46.3636V58H168.729L162.814 49.4659H162.706V58H160.95V46.3636H162.575L168.496 54.9091H168.604V46.3636H170.342ZM176.528 58.1761C175.669 58.1761 174.928 57.9924 174.307 57.625C173.689 57.2538 173.212 56.733 172.875 56.0625C172.542 55.3883 172.375 54.5985 172.375 53.6932C172.375 52.7992 172.542 52.0114 172.875 51.3295C173.212 50.6477 173.682 50.1155 174.284 49.733C174.89 49.3504 175.598 49.1591 176.409 49.1591C176.902 49.1591 177.379 49.2405 177.841 49.4034C178.303 49.5663 178.718 49.822 179.085 50.1705C179.453 50.5189 179.742 50.9716 179.955 51.5284C180.167 52.0814 180.273 52.7538 180.273 53.5455V54.1477H173.335V52.875H178.608C178.608 52.428 178.517 52.0322 178.335 51.6875C178.153 51.339 177.898 51.0644 177.568 50.8636C177.242 50.6629 176.86 50.5625 176.42 50.5625C175.943 50.5625 175.527 50.6799 175.17 50.9148C174.818 51.1458 174.545 51.4489 174.352 51.8239C174.163 52.1951 174.068 52.5985 174.068 53.0341V54.0284C174.068 54.6117 174.17 55.108 174.375 55.517C174.583 55.9261 174.873 56.2386 175.244 56.4545C175.616 56.6667 176.049 56.7727 176.545 56.7727C176.867 56.7727 177.161 56.7273 177.426 56.6364C177.691 56.5417 177.92 56.4015 178.114 56.2159C178.307 56.0303 178.455 55.8011 178.557 55.5284L180.165 55.8182C180.036 56.2917 179.805 56.7064 179.472 57.0625C179.142 57.4148 178.727 57.6894 178.227 57.8864C177.731 58.0795 177.165 58.1761 176.528 58.1761ZM185.919 58.1761C185.059 58.1761 184.319 57.9924 183.697 57.625C183.08 57.2538 182.603 56.733 182.266 56.0625C181.932 55.3883 181.766 54.5985 181.766 53.6932C181.766 52.7992 181.932 52.0114 182.266 51.3295C182.603 50.6477 183.072 50.1155 183.675 49.733C184.281 49.3504 184.989 49.1591 185.8 49.1591C186.292 49.1591 186.769 49.2405 187.232 49.4034C187.694 49.5663 188.108 49.822 188.476 50.1705C188.843 50.5189 189.133 50.9716 189.345 51.5284C189.557 52.0814 189.663 52.7538 189.663 53.5455V54.1477H182.726V52.875H187.999C187.999 52.428 187.908 52.0322 187.726 51.6875C187.544 51.339 187.288 51.0644 186.959 50.8636C186.633 50.6629 186.25 50.5625 185.811 50.5625C185.334 50.5625 184.917 50.6799 184.561 50.9148C184.209 51.1458 183.936 51.4489 183.743 51.8239C183.554 52.1951 183.459 52.5985 183.459 53.0341V54.0284C183.459 54.6117 183.561 55.108 183.766 55.517C183.974 55.9261 184.264 56.2386 184.635 56.4545C185.006 56.6667 185.44 56.7727 185.936 56.7727C186.258 56.7727 186.552 56.7273 186.817 56.6364C187.082 56.5417 187.311 56.4015 187.504 56.2159C187.697 56.0303 187.845 55.8011 187.947 55.5284L189.555 55.8182C189.427 56.2917 189.196 56.7064 188.862 57.0625C188.533 57.4148 188.118 57.6894 187.618 57.8864C187.122 58.0795 186.555 58.1761 185.919 58.1761ZM194.815 58.1705C194.111 58.1705 193.482 57.9905 192.929 57.6307C192.38 57.267 191.948 56.75 191.634 56.0795C191.323 55.4053 191.168 54.5966 191.168 53.6534C191.168 52.7102 191.325 51.9034 191.639 51.233C191.957 50.5625 192.393 50.0492 192.946 49.6932C193.499 49.3371 194.126 49.1591 194.827 49.1591C195.368 49.1591 195.804 49.25 196.134 49.4318C196.467 49.6098 196.724 49.8182 196.906 50.0568C197.092 50.2955 197.236 50.5057 197.338 50.6875H197.44V46.3636H199.139V58H197.48V56.642H197.338C197.236 56.8277 197.088 57.0398 196.895 57.2784C196.705 57.517 196.444 57.7254 196.111 57.9034C195.777 58.0814 195.346 58.1705 194.815 58.1705ZM195.19 56.7216C195.679 56.7216 196.092 56.5928 196.429 56.3352C196.77 56.0739 197.027 55.7121 197.202 55.25C197.38 54.7879 197.469 54.25 197.469 53.6364C197.469 53.0303 197.382 52.5 197.207 52.0455C197.033 51.5909 196.777 51.2367 196.44 50.983C196.103 50.7292 195.687 50.6023 195.19 50.6023C194.679 50.6023 194.253 50.7348 193.912 51C193.571 51.2652 193.313 51.6269 193.139 52.0852C192.969 52.5436 192.884 53.0606 192.884 53.6364C192.884 54.2197 192.971 54.7443 193.145 55.2102C193.319 55.6761 193.577 56.0455 193.918 56.3182C194.262 56.5871 194.687 56.7216 195.19 56.7216ZM208.104 51.4034L206.564 51.6761C206.5 51.4792 206.397 51.2917 206.257 51.1136C206.121 50.9356 205.935 50.7898 205.7 50.6761C205.465 50.5625 205.172 50.5057 204.82 50.5057C204.339 50.5057 203.937 50.6136 203.615 50.8295C203.293 51.0417 203.132 51.3163 203.132 51.6534C203.132 51.9451 203.24 52.1799 203.456 52.358C203.672 52.536 204.02 52.6818 204.501 52.7955L205.888 53.1136C206.691 53.2992 207.289 53.5852 207.683 53.9716C208.077 54.358 208.274 54.8598 208.274 55.4773C208.274 56 208.123 56.4659 207.82 56.875C207.52 57.2803 207.102 57.5985 206.564 57.8295C206.03 58.0606 205.411 58.1761 204.706 58.1761C203.729 58.1761 202.931 57.9678 202.314 57.5511C201.696 57.1307 201.318 56.5341 201.178 55.7614L202.82 55.5114C202.922 55.9394 203.132 56.2633 203.45 56.483C203.768 56.6989 204.183 56.8068 204.695 56.8068C205.251 56.8068 205.696 56.6913 206.03 56.4602C206.363 56.2254 206.53 55.9394 206.53 55.6023C206.53 55.3295 206.428 55.1004 206.223 54.9148C206.022 54.7292 205.714 54.589 205.297 54.4943L203.82 54.1705C203.005 53.9848 202.403 53.6894 202.013 53.2841C201.626 52.8788 201.433 52.3655 201.433 51.7443C201.433 51.2292 201.577 50.7784 201.865 50.392C202.153 50.0057 202.551 49.7045 203.058 49.4886C203.566 49.2689 204.147 49.1591 204.803 49.1591C205.746 49.1591 206.488 49.3636 207.03 49.7727C207.571 50.178 207.929 50.7216 208.104 51.4034Z" fill="#000316"/>
<path d="M232.833 52H220.333" stroke="#000316" stroke-width="1.5" stroke-linecap="round" stroke-linejoin="round"/>
<path d="M229.5 47.8335L233.077 51.4109C233.355 51.6887 233.494 51.8276 233.494 52.0002C233.494 52.1727 233.355 52.3117 233.077 52.5894L229.5 56.1668" stroke="#000316" stroke-width="1.5" stroke-linecap="round" stroke-linejoin="round"/>
</svg>
