<svg width="1096" height="592" viewBox="0 0 1096 592" fill="none" xmlns="http://www.w3.org/2000/svg">
<rect width="1440" height="6557" transform="translate(-166 -2614)" fill="#fff"/>
<circle cx="285.5" cy="184.5" r="162.5" fill="url(#paint0_linear_701_7503)"/>
<circle cx="821.5" cy="184.5" r="162.5" fill="url(#paint1_linear_701_7503)"/>
<circle cx="411.5" cy="409.5" r="162.5" fill="url(#paint2_linear_701_7503)"/>
<circle cx="696.5" cy="409.5" r="162.5" fill="url(#paint3_linear_701_7503)"/>
<circle cx="553.5" cy="184.5" r="162.5" fill="url(#paint4_linear_701_7503)"/>
<path d="M205.325 163H209.105V155.608H212.465C214.341 155.608 215.069 156 215.517 157.96L216.637 163H220.557L219.129 157.26C218.737 155.692 218.149 154.684 217.169 154.068C218.793 153.2 219.717 151.716 219.717 149.588C219.717 146.116 217.057 143.96 212.773 143.96H205.325V163ZM212.689 146.956C214.705 146.956 215.853 148.076 215.853 149.784C215.853 151.52 214.733 152.64 212.605 152.64H209.105V146.956H212.689ZM236.089 158.1H232.309C231.833 159.696 230.685 160.48 229.005 160.48C226.821 160.48 225.561 158.968 225.393 156.224H235.977V155.384C235.977 150.54 233.261 147.572 228.865 147.572C224.497 147.572 221.697 150.428 221.697 155.524C221.697 160.424 224.469 163.42 229.005 163.42C232.589 163.42 235.277 161.572 236.089 158.1ZM228.865 150.512C230.741 150.512 231.889 151.744 232.225 153.984H225.477C225.813 151.716 226.961 150.512 228.865 150.512ZM243.734 163.42C245.386 163.42 246.73 162.664 247.682 161.292V169.16H251.266V147.992H247.682V149.616C246.758 148.272 245.386 147.572 243.734 147.572C239.87 147.572 237.406 150.428 237.406 155.524C237.406 160.424 239.814 163.42 243.734 163.42ZM244.378 160.452C242.278 160.452 241.102 158.688 241.102 155.524C241.102 152.304 242.25 150.54 244.378 150.54C246.478 150.54 247.682 152.332 247.682 155.524C247.682 158.716 246.534 160.452 244.378 160.452ZM263.331 156.7C263.331 158.716 262.127 160.452 260.195 160.452C258.431 160.452 257.591 159.332 257.591 157.288V147.992H254.007V158.016C254.007 161.628 255.995 163.42 258.963 163.42C260.811 163.42 262.351 162.636 263.331 160.984V163H266.915V147.992H263.331V156.7ZM269.662 146.312H273.246V142.84H269.662V146.312ZM269.662 163H273.246V147.992H269.662V163ZM275.965 163H279.549V155.02C279.549 152.528 280.753 150.904 283.469 150.904C284.113 150.904 284.645 150.96 285.121 151.1V147.992C284.841 147.74 284.281 147.572 283.665 147.572C282.041 147.572 280.529 148.384 279.549 150.176V147.992H275.965V163ZM299.871 158.1H296.091C295.615 159.696 294.467 160.48 292.787 160.48C290.603 160.48 289.343 158.968 289.175 156.224H299.759V155.384C299.759 150.54 297.043 147.572 292.647 147.572C288.279 147.572 285.479 150.428 285.479 155.524C285.479 160.424 288.251 163.42 292.787 163.42C296.371 163.42 299.059 161.572 299.871 158.1ZM292.647 150.512C294.523 150.512 295.671 151.744 296.007 153.984H289.259C289.595 151.716 290.743 150.512 292.647 150.512ZM301.888 163H305.472V154.292C305.472 152.276 306.592 150.54 308.384 150.54C309.98 150.54 310.736 151.688 310.736 153.732V163H314.32V154.292C314.32 152.276 315.44 150.54 317.232 150.54C318.828 150.54 319.584 151.688 319.584 153.732V163H323.168V153.004C323.168 149.364 321.208 147.572 318.324 147.572C316.392 147.572 314.796 148.412 313.788 150.12C313.032 148.412 311.548 147.572 309.644 147.572C307.88 147.572 306.424 148.356 305.472 149.924V147.992H301.888V163ZM339.602 158.1H335.822C335.346 159.696 334.198 160.48 332.518 160.48C330.334 160.48 329.074 158.968 328.906 156.224H339.49V155.384C339.49 150.54 336.774 147.572 332.378 147.572C328.01 147.572 325.21 150.428 325.21 155.524C325.21 160.424 327.982 163.42 332.518 163.42C336.102 163.42 338.79 161.572 339.602 158.1ZM332.378 150.512C334.254 150.512 335.402 151.744 335.738 153.984H328.99C329.326 151.716 330.474 150.512 332.378 150.512ZM341.62 163H345.204V154.292C345.204 152.276 346.436 150.54 348.424 150.54C350.244 150.54 351.112 151.688 351.112 153.732V163H354.696V153.004C354.696 149.364 352.652 147.572 349.656 147.572C347.752 147.572 346.184 148.384 345.204 150.008V147.992H341.62V163ZM357.915 158.324C357.915 161.684 359.371 163.42 362.423 163.42C363.403 163.42 364.215 163.252 364.607 163.056V160.424H363.935C361.947 160.424 361.499 159.584 361.499 158.016V150.764H364.663V147.992H361.499V144.548H357.915V147.992H355.983V150.764H357.915V158.324ZM227.71 199V188.92H220.01V191.776H224.126C223.874 194.94 221.97 196.284 219.618 196.284C216.37 196.284 214.438 193.764 214.438 189.508C214.438 185.252 216.286 182.676 219.478 182.676C221.606 182.676 223.202 183.796 223.79 185.84H227.738C226.87 181.696 223.538 179.54 219.59 179.54C214.018 179.54 210.574 183.376 210.574 189.508C210.574 195.668 214.018 199.42 219.254 199.42C221.606 199.42 223.594 198.524 224.77 196.592L225.078 199H227.71ZM233.812 188.92C234.036 187.492 234.96 186.54 236.668 186.54C238.656 186.54 239.58 187.576 239.58 189.508V189.872C237.06 189.9 235.128 190.068 233.14 190.74C230.844 191.496 229.696 193.036 229.696 195.08C229.696 197.964 231.796 199.42 234.736 199.42C236.528 199.42 238.376 198.692 239.608 196.956C239.636 197.768 239.72 198.496 239.916 199H243.64C243.36 198.216 243.192 197.18 243.192 195.332V189.508C243.192 186.036 241.064 183.572 236.892 183.572C233.112 183.572 230.676 185.588 230.2 188.92H233.812ZM233.308 194.884C233.308 193.372 234.484 192.168 239.58 192.084V192.728C239.58 194.968 237.872 196.76 235.66 196.76C234.204 196.76 233.308 196.032 233.308 194.884ZM246.526 194.324C246.526 197.684 247.982 199.42 251.034 199.42C252.014 199.42 252.826 199.252 253.218 199.056V196.424H252.546C250.558 196.424 250.11 195.584 250.11 194.016V186.764H253.274V183.992H250.11V180.548H246.526V183.992H244.594V186.764H246.526V194.324ZM254.814 199H258.398V190.292C258.398 188.276 259.63 186.54 261.618 186.54C263.438 186.54 264.306 187.688 264.306 189.732V199H267.89V189.004C267.89 185.364 265.846 183.572 262.85 183.572C260.946 183.572 259.378 184.384 258.398 186.008V178.84H254.814V199ZM284.325 194.1H280.545C280.069 195.696 278.921 196.48 277.241 196.48C275.057 196.48 273.797 194.968 273.629 192.224H284.213V191.384C284.213 186.54 281.497 183.572 277.101 183.572C272.733 183.572 269.933 186.428 269.933 191.524C269.933 196.424 272.705 199.42 277.241 199.42C280.825 199.42 283.513 197.572 284.325 194.1ZM277.101 186.512C278.977 186.512 280.125 187.744 280.461 189.984H273.713C274.049 187.716 275.197 186.512 277.101 186.512ZM286.342 199H289.926V191.02C289.926 188.528 291.13 186.904 293.846 186.904C294.49 186.904 295.022 186.96 295.498 187.1V183.992C295.218 183.74 294.658 183.572 294.042 183.572C292.418 183.572 290.906 184.384 289.926 186.176V183.992H286.342V199ZM296.829 182.312H300.413V178.84H296.829V182.312ZM296.829 199H300.413V183.992H296.829V199ZM303.132 199H306.716V190.292C306.716 188.276 307.948 186.54 309.936 186.54C311.756 186.54 312.624 187.688 312.624 189.732V199H316.208V189.004C316.208 185.364 314.164 183.572 311.168 183.572C309.264 183.572 307.696 184.384 306.716 186.008V183.992H303.132V199ZM324.411 199.056C326.147 199.056 327.547 198.356 328.527 197.012V199.532C328.527 201.912 327.323 202.78 325.531 202.78C323.795 202.78 322.507 201.94 322.283 200.344H318.671C319.203 203.9 321.891 205.608 325.587 205.608C329.311 205.608 332.111 203.536 332.111 199.476V183.992H328.527V185.504C327.603 184.244 326.203 183.572 324.411 183.572C320.659 183.572 318.251 186.344 318.251 191.328C318.251 196.116 320.603 199.056 324.411 199.056ZM325.223 196.088C323.095 196.088 321.947 194.38 321.947 191.328C321.947 188.22 323.095 186.54 325.223 186.54C327.323 186.54 328.527 188.276 328.527 191.328C328.527 194.408 327.379 196.088 325.223 196.088ZM352.335 183.992C352.335 181.696 350.487 179.54 347.071 179.54C343.823 179.54 341.471 181.416 341.471 184.244C341.471 185.644 341.947 186.792 343.179 188.276C341.247 189.256 339.539 190.712 339.539 193.652C339.539 197.012 342.199 199.42 346.567 199.42C349.031 199.42 351.075 198.664 352.671 197.404L354.351 199H358.943L354.799 195.024C355.919 193.288 356.507 191.188 356.507 189.06H353.091C353.091 190.46 352.839 191.692 352.391 192.728L348.219 188.724C350.347 187.828 352.335 186.792 352.335 183.992ZM344.971 184.216C344.971 183.208 345.755 182.424 347.015 182.424C348.191 182.424 348.919 183.292 348.919 184.216C348.919 185.532 347.827 186.232 346.371 186.876C345.391 185.84 344.971 185.14 344.971 184.216ZM343.151 193.4C343.151 191.832 343.935 190.88 345.027 190.18C345.223 190.348 345.419 190.544 345.615 190.74L350.431 195.304C349.423 196.06 348.219 196.452 346.931 196.452C344.411 196.452 343.151 195.136 343.151 193.4ZM243.296 235H247.272L240.104 215.96H235.652L228.484 235H232.264L233.72 231.052H241.84L243.296 235ZM237.22 221.616L237.78 219.656L238.34 221.616L240.748 228.14H234.812L237.22 221.616ZM248.709 235H252.293V226.292C252.293 224.276 253.525 222.54 255.513 222.54C257.333 222.54 258.201 223.688 258.201 225.732V235H261.785V225.004C261.785 221.364 259.741 219.572 256.745 219.572C254.841 219.572 253.273 220.384 252.293 222.008V219.992H248.709V235ZM268 224.92C268.224 223.492 269.148 222.54 270.856 222.54C272.844 222.54 273.768 223.576 273.768 225.508V225.872C271.248 225.9 269.316 226.068 267.328 226.74C265.032 227.496 263.884 229.036 263.884 231.08C263.884 233.964 265.984 235.42 268.924 235.42C270.716 235.42 272.564 234.692 273.796 232.956C273.824 233.768 273.908 234.496 274.104 235H277.828C277.548 234.216 277.38 233.18 277.38 231.332V225.508C277.38 222.036 275.252 219.572 271.08 219.572C267.3 219.572 264.864 221.588 264.388 224.92H268ZM267.496 230.884C267.496 229.372 268.672 228.168 273.768 228.084V228.728C273.768 230.968 272.06 232.76 269.848 232.76C268.392 232.76 267.496 232.032 267.496 230.884ZM280.237 235H283.821V214.84H280.237V235ZM288.053 241.58C290.797 241.58 292.141 240.376 293.681 236.484L300.289 219.992H296.621L293.429 228.7L292.813 230.884L292.197 228.7L288.865 219.992H285.029L290.937 234.384L290.573 235.308C289.425 238.164 288.669 238.5 287.045 238.5H286.205V241.244C286.569 241.384 287.325 241.58 288.053 241.58ZM304.125 224.024C304.125 223.072 304.965 222.372 306.393 222.372C308.101 222.372 309.165 223.1 309.445 224.92H313.029C312.581 221.196 309.977 219.572 306.533 219.572C302.613 219.572 300.709 221.812 300.709 224.248C300.709 230.324 309.977 227.44 309.977 230.8C309.977 231.892 309.053 232.648 307.289 232.648C305.413 232.648 304.125 231.724 303.873 230.1H300.289C300.821 233.712 303.481 235.42 307.177 235.42C310.929 235.42 313.589 233.46 313.589 230.576C313.589 224.556 304.125 227.468 304.125 224.024ZM315.471 218.312H319.055V214.84H315.471V218.312ZM315.471 235H319.055V219.992H315.471V235ZM324.771 224.024C324.771 223.072 325.611 222.372 327.039 222.372C328.747 222.372 329.811 223.1 330.091 224.92H333.675C333.227 221.196 330.623 219.572 327.179 219.572C323.259 219.572 321.355 221.812 321.355 224.248C321.355 230.324 330.623 227.44 330.623 230.8C330.623 231.892 329.699 232.648 327.935 232.648C326.059 232.648 324.771 231.724 324.519 230.1H320.935C321.467 233.712 324.127 235.42 327.823 235.42C331.575 235.42 334.235 233.46 334.235 230.576C334.235 224.556 324.771 227.468 324.771 224.024Z" fill="#000316"/>
<path d="M740.317 177H747.233C753.197 177 756.921 173.444 756.921 167.508C756.921 161.572 753.197 157.96 747.233 157.96H740.317V177ZM747.233 173.948H744.097V161.012H747.233C750.901 161.012 753.085 163.42 753.085 167.508C753.085 171.568 750.901 173.948 747.233 173.948ZM772.968 172.1H769.188C768.712 173.696 767.564 174.48 765.884 174.48C763.7 174.48 762.44 172.968 762.272 170.224H772.856V169.384C772.856 164.54 770.14 161.572 765.744 161.572C761.376 161.572 758.576 164.428 758.576 169.524C758.576 174.424 761.348 177.42 765.884 177.42C769.468 177.42 772.156 175.572 772.968 172.1ZM765.744 164.512C767.62 164.512 768.768 165.744 769.104 167.984H762.356C762.692 165.716 763.84 164.512 765.744 164.512ZM778.438 177H782.862L788.266 161.992H784.598L781.126 172.576L780.762 174.2L780.37 172.576L776.898 161.992H773.034L778.438 177ZM802.965 172.1H799.185C798.709 173.696 797.561 174.48 795.881 174.48C793.697 174.48 792.437 172.968 792.269 170.224H802.853V169.384C802.853 164.54 800.137 161.572 795.741 161.572C791.373 161.572 788.573 164.428 788.573 169.524C788.573 174.424 791.345 177.42 795.881 177.42C799.465 177.42 802.153 175.572 802.965 172.1ZM795.741 164.512C797.617 164.512 798.765 165.744 799.101 167.984H792.353C792.689 165.716 793.837 164.512 795.741 164.512ZM804.982 177H808.566V156.84H804.982V177ZM817.782 177.42C822.122 177.42 824.95 174.564 824.95 169.524C824.95 164.596 822.206 161.572 817.782 161.572C813.414 161.572 810.586 164.428 810.586 169.524C810.586 174.424 813.33 177.42 817.782 177.42ZM817.782 174.452C815.514 174.452 814.282 172.688 814.282 169.524C814.282 166.304 815.486 164.54 817.782 164.54C820.022 164.54 821.254 166.332 821.254 169.524C821.254 172.716 820.05 174.452 817.782 174.452ZM830.579 183.16V175.376C831.503 176.72 832.875 177.42 834.527 177.42C838.391 177.42 840.855 174.564 840.855 169.468C840.855 164.568 838.447 161.572 834.527 161.572C832.875 161.572 831.531 162.328 830.579 163.7V161.992H826.995V183.16H830.579ZM833.883 164.54C835.983 164.54 837.159 166.304 837.159 169.468C837.159 172.688 836.011 174.452 833.883 174.452C831.783 174.452 830.579 172.66 830.579 169.468C830.579 166.276 831.727 164.54 833.883 164.54ZM842.896 177H846.48V168.292C846.48 166.276 847.6 164.54 849.392 164.54C850.988 164.54 851.744 165.688 851.744 167.732V177H855.328V168.292C855.328 166.276 856.448 164.54 858.24 164.54C859.836 164.54 860.592 165.688 860.592 167.732V177H864.176V167.004C864.176 163.364 862.216 161.572 859.332 161.572C857.4 161.572 855.804 162.412 854.796 164.12C854.04 162.412 852.556 161.572 850.652 161.572C848.888 161.572 847.432 162.356 846.48 163.924V161.992H842.896V177ZM880.61 172.1H876.83C876.354 173.696 875.206 174.48 873.526 174.48C871.342 174.48 870.082 172.968 869.914 170.224H880.498V169.384C880.498 164.54 877.782 161.572 873.386 161.572C869.018 161.572 866.218 164.428 866.218 169.524C866.218 174.424 868.99 177.42 873.526 177.42C877.11 177.42 879.798 175.572 880.61 172.1ZM873.386 164.512C875.262 164.512 876.41 165.744 876.746 167.984H869.998C870.334 165.716 871.482 164.512 873.386 164.512ZM882.628 177H886.212V168.292C886.212 166.276 887.444 164.54 889.432 164.54C891.252 164.54 892.12 165.688 892.12 167.732V177H895.704V167.004C895.704 163.364 893.66 161.572 890.664 161.572C888.76 161.572 887.192 162.384 886.212 164.008V161.992H882.628V177ZM898.922 172.324C898.922 175.684 900.378 177.42 903.43 177.42C904.41 177.42 905.222 177.252 905.614 177.056V174.424H904.942C902.954 174.424 902.506 173.584 902.506 172.016V164.764H905.67V161.992H902.506V158.548H898.922V161.992H896.99V164.764H898.922V172.324ZM776.683 197.992C776.683 195.696 774.835 193.54 771.419 193.54C768.171 193.54 765.819 195.416 765.819 198.244C765.819 199.644 766.295 200.792 767.527 202.276C765.595 203.256 763.887 204.712 763.887 207.652C763.887 211.012 766.547 213.42 770.915 213.42C773.379 213.42 775.423 212.664 777.019 211.404L778.699 213H783.291L779.147 209.024C780.267 207.288 780.855 205.188 780.855 203.06H777.439C777.439 204.46 777.187 205.692 776.739 206.728L772.567 202.724C774.695 201.828 776.683 200.792 776.683 197.992ZM769.319 198.216C769.319 197.208 770.103 196.424 771.363 196.424C772.539 196.424 773.267 197.292 773.267 198.216C773.267 199.532 772.175 200.232 770.719 200.876C769.739 199.84 769.319 199.14 769.319 198.216ZM767.499 207.4C767.499 205.832 768.283 204.88 769.375 204.18C769.571 204.348 769.767 204.544 769.963 204.74L774.779 209.304C773.771 210.06 772.567 210.452 771.279 210.452C768.759 210.452 767.499 209.136 767.499 207.4ZM806.229 199.84C805.361 195.696 802.029 193.54 798.081 193.54C792.509 193.54 789.065 197.376 789.065 203.508C789.065 209.668 792.453 213.42 798.025 213.42C801.917 213.42 805.193 211.236 806.201 207.26H802.225C801.581 209.248 799.985 210.284 797.969 210.284C794.749 210.284 792.929 207.764 792.929 203.508C792.929 199.28 794.777 196.676 797.969 196.676C800.097 196.676 801.693 197.768 802.281 199.84H806.229ZM814.78 213.42C819.12 213.42 821.948 210.564 821.948 205.524C821.948 200.596 819.204 197.572 814.78 197.572C810.412 197.572 807.584 200.428 807.584 205.524C807.584 210.424 810.328 213.42 814.78 213.42ZM814.78 210.452C812.512 210.452 811.28 208.688 811.28 205.524C811.28 202.304 812.484 200.54 814.78 200.54C817.02 200.54 818.252 202.332 818.252 205.524C818.252 208.716 817.048 210.452 814.78 210.452ZM829.622 213.42C831.274 213.42 832.618 212.664 833.57 211.292V213H837.154V192.84H833.57V199.616C832.646 198.272 831.274 197.572 829.622 197.572C825.758 197.572 823.294 200.428 823.294 205.524C823.294 210.424 825.702 213.42 829.622 213.42ZM830.266 210.452C828.166 210.452 826.99 208.688 826.99 205.524C826.99 202.304 828.138 200.54 830.266 200.54C832.366 200.54 833.57 202.332 833.57 205.524C833.57 208.716 832.422 210.452 830.266 210.452ZM839.867 196.312H843.451V192.84H839.867V196.312ZM839.867 213H843.451V197.992H839.867V213ZM846.171 213H849.755V204.292C849.755 202.276 850.987 200.54 852.975 200.54C854.795 200.54 855.663 201.688 855.663 203.732V213H859.247V203.004C859.247 199.364 857.203 197.572 854.207 197.572C852.303 197.572 850.735 198.384 849.755 200.008V197.992H846.171V213ZM867.45 213.056C869.186 213.056 870.586 212.356 871.566 211.012V213.532C871.566 215.912 870.362 216.78 868.57 216.78C866.834 216.78 865.546 215.94 865.322 214.344H861.71C862.242 217.9 864.93 219.608 868.626 219.608C872.35 219.608 875.15 217.536 875.15 213.476V197.992H871.566V199.504C870.642 198.244 869.242 197.572 867.45 197.572C863.698 197.572 861.29 200.344 861.29 205.328C861.29 210.116 863.642 213.056 867.45 213.056ZM868.262 210.088C866.134 210.088 864.986 208.38 864.986 205.328C864.986 202.22 866.134 200.54 868.262 200.54C870.362 200.54 871.566 202.276 871.566 205.328C871.566 208.408 870.418 210.088 868.262 210.088Z" fill="#000316"/>
<path d="M359.89 402H363.67V386.068H369.802V382.96H353.758V386.068H359.89V402ZM383.044 397.1H379.264C378.788 398.696 377.64 399.48 375.96 399.48C373.776 399.48 372.516 397.968 372.348 395.224H382.932V394.384C382.932 389.54 380.216 386.572 375.82 386.572C371.452 386.572 368.652 389.428 368.652 394.524C368.652 399.424 371.424 402.42 375.96 402.42C379.544 402.42 382.232 400.572 383.044 397.1ZM375.82 389.512C377.696 389.512 378.844 390.744 379.18 392.984H372.432C372.768 390.716 373.916 389.512 375.82 389.512ZM388.058 391.024C388.058 390.072 388.898 389.372 390.326 389.372C392.034 389.372 393.098 390.1 393.378 391.92H396.962C396.514 388.196 393.91 386.572 390.466 386.572C386.546 386.572 384.642 388.812 384.642 391.248C384.642 397.324 393.91 394.44 393.91 397.8C393.91 398.892 392.986 399.648 391.222 399.648C389.346 399.648 388.058 398.724 387.806 397.1H384.222C384.754 400.712 387.414 402.42 391.11 402.42C394.862 402.42 397.522 400.46 397.522 397.576C397.522 391.556 388.058 394.468 388.058 391.024ZM399.88 397.324C399.88 400.684 401.336 402.42 404.388 402.42C405.368 402.42 406.18 402.252 406.572 402.056V399.424H405.9C403.912 399.424 403.464 398.584 403.464 397.016V389.764H406.628V386.992H403.464V383.548H399.88V386.992H397.948V389.764H399.88V397.324ZM408.168 385.312H411.752V381.84H408.168V385.312ZM408.168 402H411.752V386.992H408.168V402ZM414.472 402H418.056V393.292C418.056 391.276 419.288 389.54 421.276 389.54C423.096 389.54 423.964 390.688 423.964 392.732V402H427.548V392.004C427.548 388.364 425.504 386.572 422.508 386.572C420.604 386.572 419.036 387.384 418.056 389.008V386.992H414.472V402ZM435.751 402.056C437.487 402.056 438.887 401.356 439.867 400.012V402.532C439.867 404.912 438.663 405.78 436.871 405.78C435.135 405.78 433.847 404.94 433.623 403.344H430.011C430.543 406.9 433.231 408.608 436.927 408.608C440.651 408.608 443.451 406.536 443.451 402.476V386.992H439.867V388.504C438.943 387.244 437.543 386.572 435.751 386.572C431.999 386.572 429.591 389.344 429.591 394.328C429.591 399.116 431.943 402.056 435.751 402.056ZM436.563 399.088C434.435 399.088 433.287 397.38 433.287 394.328C433.287 391.22 434.435 389.54 436.563 389.54C438.663 389.54 439.867 391.276 439.867 394.328C439.867 397.408 438.719 399.088 436.563 399.088ZM463.674 386.992C463.674 384.696 461.826 382.54 458.41 382.54C455.162 382.54 452.81 384.416 452.81 387.244C452.81 388.644 453.286 389.792 454.518 391.276C452.586 392.256 450.878 393.712 450.878 396.652C450.878 400.012 453.538 402.42 457.906 402.42C460.37 402.42 462.414 401.664 464.01 400.404L465.69 402H470.282L466.138 398.024C467.258 396.288 467.846 394.188 467.846 392.06H464.43C464.43 393.46 464.178 394.692 463.73 395.728L459.558 391.724C461.686 390.828 463.674 389.792 463.674 386.992ZM456.31 387.216C456.31 386.208 457.094 385.424 458.354 385.424C459.53 385.424 460.258 386.292 460.258 387.216C460.258 388.532 459.166 389.232 457.71 389.876C456.73 388.84 456.31 388.14 456.31 387.216ZM454.49 396.4C454.49 394.832 455.274 393.88 456.366 393.18C456.562 393.348 456.758 393.544 456.954 393.74L461.77 398.304C460.762 399.06 459.558 399.452 458.27 399.452C455.75 399.452 454.49 398.136 454.49 396.4ZM372.396 438H376.372L369.204 418.96H364.752L357.584 438H361.364L362.82 434.052H370.94L372.396 438ZM366.32 424.616L366.88 422.656L367.44 424.616L369.848 431.14H363.912L366.32 424.616ZM386.722 431.7C386.722 433.716 385.518 435.452 383.586 435.452C381.822 435.452 380.982 434.332 380.982 432.288V422.992H377.398V433.016C377.398 436.628 379.386 438.42 382.354 438.42C384.202 438.42 385.742 437.636 386.722 435.984V438H390.306V422.992H386.722V431.7ZM398.681 438.42C400.333 438.42 401.677 437.664 402.629 436.292V438H406.213V417.84H402.629V424.616C401.705 423.272 400.333 422.572 398.681 422.572C394.817 422.572 392.353 425.428 392.353 430.524C392.353 435.424 394.761 438.42 398.681 438.42ZM399.325 435.452C397.225 435.452 396.049 433.688 396.049 430.524C396.049 427.304 397.197 425.54 399.325 425.54C401.425 425.54 402.629 427.332 402.629 430.524C402.629 433.716 401.481 435.452 399.325 435.452ZM408.927 421.312H412.511V417.84H408.927V421.312ZM408.927 438H412.511V422.992H408.927V438ZM415.706 433.324C415.706 436.684 417.162 438.42 420.214 438.42C421.194 438.42 422.006 438.252 422.398 438.056V435.424H421.726C419.738 435.424 419.29 434.584 419.29 433.016V425.764H422.454V422.992H419.29V419.548H415.706V422.992H413.774V425.764H415.706V433.324ZM423.994 421.312H427.578V417.84H423.994V421.312ZM423.994 438H427.578V422.992H423.994V438ZM430.298 438H433.882V429.292C433.882 427.276 435.114 425.54 437.102 425.54C438.922 425.54 439.79 426.688 439.79 428.732V438H443.374V428.004C443.374 424.364 441.33 422.572 438.334 422.572C436.43 422.572 434.862 423.384 433.882 425.008V422.992H430.298V438ZM451.577 438.056C453.313 438.056 454.713 437.356 455.693 436.012V438.532C455.693 440.912 454.489 441.78 452.697 441.78C450.961 441.78 449.673 440.94 449.449 439.344H445.837C446.369 442.9 449.057 444.608 452.753 444.608C456.477 444.608 459.277 442.536 459.277 438.476V422.992H455.693V424.504C454.769 423.244 453.369 422.572 451.577 422.572C447.825 422.572 445.417 425.344 445.417 430.328C445.417 435.116 447.769 438.056 451.577 438.056ZM452.389 435.088C450.261 435.088 449.113 433.38 449.113 430.328C449.113 427.22 450.261 425.54 452.389 425.54C454.489 425.54 455.693 427.276 455.693 430.328C455.693 433.408 454.545 435.088 452.389 435.088Z" fill="#000316"/>
<path d="M622.658 384H629.574C635.538 384 639.262 380.444 639.262 374.508C639.262 368.572 635.538 364.96 629.574 364.96H622.658V384ZM629.574 380.948H626.438V368.012H629.574C633.242 368.012 635.426 370.42 635.426 374.508C635.426 378.568 633.242 380.948 629.574 380.948ZM655.309 379.1H651.529C651.053 380.696 649.905 381.48 648.225 381.48C646.041 381.48 644.781 379.968 644.613 377.224H655.197V376.384C655.197 371.54 652.481 368.572 648.085 368.572C643.717 368.572 640.917 371.428 640.917 376.524C640.917 381.424 643.689 384.42 648.225 384.42C651.809 384.42 654.497 382.572 655.309 379.1ZM648.085 371.512C649.961 371.512 651.109 372.744 651.445 374.984H644.697C645.033 372.716 646.181 371.512 648.085 371.512ZM660.91 390.16V382.376C661.834 383.72 663.206 384.42 664.858 384.42C668.722 384.42 671.186 381.564 671.186 376.468C671.186 371.568 668.778 368.572 664.858 368.572C663.206 368.572 661.862 369.328 660.91 370.7V368.992H657.326V390.16H660.91ZM664.214 371.54C666.314 371.54 667.49 373.304 667.49 376.468C667.49 379.688 666.342 381.452 664.214 381.452C662.114 381.452 660.91 379.66 660.91 376.468C660.91 373.276 662.058 371.54 664.214 371.54ZM673.227 384H676.811V363.84H673.227V384ZM686.026 384.42C690.366 384.42 693.194 381.564 693.194 376.524C693.194 371.596 690.45 368.572 686.026 368.572C681.658 368.572 678.83 371.428 678.83 376.524C678.83 381.424 681.574 384.42 686.026 384.42ZM686.026 381.452C683.758 381.452 682.526 379.688 682.526 376.524C682.526 373.304 683.73 371.54 686.026 371.54C688.266 371.54 689.498 373.332 689.498 376.524C689.498 379.716 688.294 381.452 686.026 381.452ZM696.096 390.58C698.84 390.58 700.184 389.376 701.724 385.484L708.332 368.992H704.664L701.472 377.7L700.856 379.884L700.24 377.7L696.908 368.992H693.072L698.98 383.384L698.616 384.308C697.468 387.164 696.712 387.5 695.088 387.5H694.248V390.244C694.612 390.384 695.368 390.58 696.096 390.58ZM709.555 384H713.139V375.292C713.139 373.276 714.259 371.54 716.051 371.54C717.647 371.54 718.403 372.688 718.403 374.732V384H721.987V375.292C721.987 373.276 723.107 371.54 724.899 371.54C726.495 371.54 727.251 372.688 727.251 374.732V384H730.835V374.004C730.835 370.364 728.875 368.572 725.991 368.572C724.059 368.572 722.463 369.412 721.455 371.12C720.699 369.412 719.215 368.572 717.311 368.572C715.547 368.572 714.091 369.356 713.139 370.924V368.992H709.555V384ZM747.269 379.1H743.489C743.013 380.696 741.865 381.48 740.185 381.48C738.001 381.48 736.741 379.968 736.573 377.224H747.157V376.384C747.157 371.54 744.441 368.572 740.045 368.572C735.677 368.572 732.877 371.428 732.877 376.524C732.877 381.424 735.649 384.42 740.185 384.42C743.769 384.42 746.457 382.572 747.269 379.1ZM740.045 371.512C741.921 371.512 743.069 372.744 743.405 374.984H736.657C736.993 372.716 738.141 371.512 740.045 371.512ZM749.286 384H752.87V375.292C752.87 373.276 754.102 371.54 756.09 371.54C757.91 371.54 758.778 372.688 758.778 374.732V384H762.362V374.004C762.362 370.364 760.318 368.572 757.322 368.572C755.418 368.572 753.85 369.384 752.87 371.008V368.992H749.286V384ZM765.581 379.324C765.581 382.684 767.037 384.42 770.089 384.42C771.069 384.42 771.881 384.252 772.273 384.056V381.424H771.601C769.613 381.424 769.165 380.584 769.165 379.016V371.764H772.329V368.992H769.165V365.548H765.581V368.992H763.649V371.764H765.581V379.324ZM645.064 404.992C645.064 402.696 643.216 400.54 639.8 400.54C636.552 400.54 634.2 402.416 634.2 405.244C634.2 406.644 634.676 407.792 635.908 409.276C633.976 410.256 632.268 411.712 632.268 414.652C632.268 418.012 634.928 420.42 639.296 420.42C641.76 420.42 643.804 419.664 645.4 418.404L647.08 420H651.672L647.528 416.024C648.648 414.288 649.236 412.188 649.236 410.06H645.82C645.82 411.46 645.568 412.692 645.12 413.728L640.948 409.724C643.076 408.828 645.064 407.792 645.064 404.992ZM637.7 405.216C637.7 404.208 638.484 403.424 639.744 403.424C640.92 403.424 641.648 404.292 641.648 405.216C641.648 406.532 640.556 407.232 639.1 407.876C638.12 406.84 637.7 406.14 637.7 405.216ZM635.88 414.4C635.88 412.832 636.664 411.88 637.756 411.18C637.952 411.348 638.148 411.544 638.344 411.74L643.16 416.304C642.152 417.06 640.948 417.452 639.66 417.452C637.14 417.452 635.88 416.136 635.88 414.4ZM666.77 420.42C672.538 420.42 676.122 416.64 676.122 410.508C676.122 404.376 672.538 400.54 666.77 400.54C661.002 400.54 657.446 404.376 657.446 410.508C657.446 416.64 661.002 420.42 666.77 420.42ZM666.77 417.284C663.326 417.284 661.31 414.736 661.31 410.508C661.31 406.252 663.326 403.676 666.77 403.676C670.214 403.676 672.258 406.28 672.258 410.508C672.258 414.736 670.214 417.284 666.77 417.284ZM678.443 420H682.027V411.292C682.027 409.276 683.259 407.54 685.247 407.54C687.067 407.54 687.935 408.688 687.935 410.732V420H691.519V410.004C691.519 406.364 689.475 404.572 686.479 404.572C684.575 404.572 683.007 405.384 682.027 407.008V404.992H678.443V420ZM699.722 420.056C701.458 420.056 702.858 419.356 703.838 418.012V420.532C703.838 422.912 702.634 423.78 700.842 423.78C699.106 423.78 697.818 422.94 697.594 421.344H693.982C694.514 424.9 697.202 426.608 700.898 426.608C704.622 426.608 707.422 424.536 707.422 420.476V404.992H703.838V406.504C702.914 405.244 701.514 404.572 699.722 404.572C695.97 404.572 693.562 407.344 693.562 412.328C693.562 417.116 695.914 420.056 699.722 420.056ZM700.534 417.088C698.406 417.088 697.258 415.38 697.258 412.328C697.258 409.22 698.406 407.54 700.534 407.54C702.634 407.54 703.838 409.276 703.838 412.328C703.838 415.408 702.69 417.088 700.534 417.088ZM716.659 420.42C720.999 420.42 723.827 417.564 723.827 412.524C723.827 407.596 721.083 404.572 716.659 404.572C712.291 404.572 709.463 407.428 709.463 412.524C709.463 417.424 712.207 420.42 716.659 420.42ZM716.659 417.452C714.391 417.452 713.159 415.688 713.159 412.524C713.159 409.304 714.363 407.54 716.659 407.54C718.899 407.54 720.131 409.332 720.131 412.524C720.131 415.716 718.927 417.452 716.659 417.452ZM725.873 403.312H729.457V399.84H725.873V403.312ZM725.873 420H729.457V404.992H725.873V420ZM732.176 420H735.76V411.292C735.76 409.276 736.992 407.54 738.98 407.54C740.8 407.54 741.668 408.688 741.668 410.732V420H745.252V410.004C745.252 406.364 743.208 404.572 740.212 404.572C738.308 404.572 736.74 405.384 735.76 407.008V404.992H732.176V420ZM753.455 420.056C755.191 420.056 756.591 419.356 757.571 418.012V420.532C757.571 422.912 756.367 423.78 754.575 423.78C752.839 423.78 751.551 422.94 751.327 421.344H747.715C748.247 424.9 750.935 426.608 754.631 426.608C758.355 426.608 761.155 424.536 761.155 420.476V404.992H757.571V406.504C756.647 405.244 755.247 404.572 753.455 404.572C749.703 404.572 747.295 407.344 747.295 412.328C747.295 417.116 749.647 420.056 753.455 420.056ZM754.267 417.088C752.139 417.088 750.991 415.38 750.991 412.328C750.991 409.22 752.139 407.54 754.267 407.54C756.367 407.54 757.571 409.276 757.571 412.328C757.571 415.408 756.423 417.088 754.267 417.088ZM649.278 441.748C649.278 440.432 650.426 439.564 652.33 439.564C654.374 439.564 655.69 440.544 656.138 442.672H660.142C659.526 438.388 656.278 436.54 652.442 436.54C647.934 436.54 645.442 439.06 645.442 442.084C645.442 449.672 656.81 446.032 656.81 450.876C656.81 452.416 655.606 453.396 653.254 453.396C650.958 453.396 649.502 452.276 649.026 450.26H645.078C645.806 454.404 648.886 456.42 653.226 456.42C657.538 456.42 660.674 454.236 660.674 450.4C660.674 442.616 649.278 446.312 649.278 441.748ZM671.962 449.7C671.962 451.716 670.758 453.452 668.826 453.452C667.062 453.452 666.222 452.332 666.222 450.288V440.992H662.638V451.016C662.638 454.628 664.626 456.42 667.594 456.42C669.442 456.42 670.982 455.636 671.962 453.984V456H675.546V440.992H671.962V449.7ZM681.877 462.16V454.376C682.801 455.72 684.173 456.42 685.825 456.42C689.689 456.42 692.153 453.564 692.153 448.468C692.153 443.568 689.745 440.572 685.825 440.572C684.173 440.572 682.829 441.328 681.877 442.7V440.992H678.293V462.16H681.877ZM685.181 443.54C687.281 443.54 688.457 445.304 688.457 448.468C688.457 451.688 687.309 453.452 685.181 453.452C683.081 453.452 681.877 451.66 681.877 448.468C681.877 445.276 683.025 443.54 685.181 443.54ZM697.778 462.16V454.376C698.702 455.72 700.074 456.42 701.726 456.42C705.59 456.42 708.054 453.564 708.054 448.468C708.054 443.568 705.646 440.572 701.726 440.572C700.074 440.572 698.73 441.328 697.778 442.7V440.992H694.194V462.16H697.778ZM701.082 443.54C703.182 443.54 704.358 445.304 704.358 448.468C704.358 451.688 703.21 453.452 701.082 453.452C698.982 453.452 697.778 451.66 697.778 448.468C697.778 445.276 698.926 443.54 701.082 443.54ZM716.591 456.42C720.931 456.42 723.759 453.564 723.759 448.524C723.759 443.596 721.015 440.572 716.591 440.572C712.223 440.572 709.395 443.428 709.395 448.524C709.395 453.424 712.139 456.42 716.591 456.42ZM716.591 453.452C714.323 453.452 713.091 451.688 713.091 448.524C713.091 445.304 714.295 443.54 716.591 443.54C718.831 443.54 720.063 445.332 720.063 448.524C720.063 451.716 718.859 453.452 716.591 453.452ZM725.804 456H729.388V448.02C729.388 445.528 730.592 443.904 733.308 443.904C733.952 443.904 734.484 443.96 734.96 444.1V440.992C734.68 440.74 734.12 440.572 733.504 440.572C731.88 440.572 730.368 441.384 729.388 443.176V440.992H725.804V456ZM736.767 451.324C736.767 454.684 738.223 456.42 741.275 456.42C742.255 456.42 743.067 456.252 743.459 456.056V453.424H742.787C740.799 453.424 740.351 452.584 740.351 451.016V443.764H743.515V440.992H740.351V437.548H736.767V440.992H734.835V443.764H736.767V451.324Z" fill="#000316"/>
<path d="M464.318 144.748C464.318 143.432 465.466 142.564 467.37 142.564C469.414 142.564 470.73 143.544 471.178 145.672H475.182C474.566 141.388 471.318 139.54 467.482 139.54C462.974 139.54 460.482 142.06 460.482 145.084C460.482 152.672 471.85 149.032 471.85 153.876C471.85 155.416 470.646 156.396 468.294 156.396C465.998 156.396 464.542 155.276 464.066 153.26H460.118C460.846 157.404 463.926 159.42 468.266 159.42C472.578 159.42 475.714 157.236 475.714 153.4C475.714 145.616 464.318 149.312 464.318 144.748ZM477.678 159H481.262V150.292C481.262 148.276 482.382 146.54 484.174 146.54C485.77 146.54 486.526 147.688 486.526 149.732V159H490.11V150.292C490.11 148.276 491.23 146.54 493.022 146.54C494.618 146.54 495.374 147.688 495.374 149.732V159H498.958V149.004C498.958 145.364 496.998 143.572 494.114 143.572C492.182 143.572 490.586 144.412 489.578 146.12C488.822 144.412 487.338 143.572 485.434 143.572C483.67 143.572 482.214 144.356 481.262 145.924V143.992H477.678V159ZM505.172 148.92C505.396 147.492 506.32 146.54 508.028 146.54C510.016 146.54 510.94 147.576 510.94 149.508V149.872C508.42 149.9 506.488 150.068 504.5 150.74C502.204 151.496 501.056 153.036 501.056 155.08C501.056 157.964 503.156 159.42 506.096 159.42C507.888 159.42 509.736 158.692 510.968 156.956C510.996 157.768 511.08 158.496 511.276 159H515C514.72 158.216 514.552 157.18 514.552 155.332V149.508C514.552 146.036 512.424 143.572 508.252 143.572C504.472 143.572 502.036 145.588 501.56 148.92H505.172ZM504.668 154.884C504.668 153.372 505.844 152.168 510.94 152.084V152.728C510.94 154.968 509.232 156.76 507.02 156.76C505.564 156.76 504.668 156.032 504.668 154.884ZM517.41 159H520.994V151.02C520.994 148.528 522.198 146.904 524.914 146.904C525.558 146.904 526.09 146.96 526.566 147.1V143.992C526.286 143.74 525.726 143.572 525.11 143.572C523.486 143.572 521.974 144.384 520.994 146.176V143.992H517.41V159ZM528.372 154.324C528.372 157.684 529.828 159.42 532.88 159.42C533.86 159.42 534.672 159.252 535.064 159.056V156.424H534.392C532.404 156.424 531.956 155.584 531.956 154.016V146.764H535.12V143.992H531.956V140.548H528.372V143.992H526.44V146.764H528.372V154.324ZM558.231 145.84C557.363 141.696 554.031 139.54 550.083 139.54C544.511 139.54 541.067 143.376 541.067 149.508C541.067 155.668 544.455 159.42 550.027 159.42C553.919 159.42 557.195 157.236 558.203 153.26H554.227C553.583 155.248 551.987 156.284 549.971 156.284C546.751 156.284 544.931 153.764 544.931 149.508C544.931 145.28 546.779 142.676 549.971 142.676C552.099 142.676 553.695 143.768 554.283 145.84H558.231ZM566.783 159.42C571.123 159.42 573.951 156.564 573.951 151.524C573.951 146.596 571.207 143.572 566.783 143.572C562.415 143.572 559.587 146.428 559.587 151.524C559.587 156.424 562.331 159.42 566.783 159.42ZM566.783 156.452C564.515 156.452 563.283 154.688 563.283 151.524C563.283 148.304 564.487 146.54 566.783 146.54C569.023 146.54 570.255 148.332 570.255 151.524C570.255 154.716 569.051 156.452 566.783 156.452ZM575.996 159H579.58V150.292C579.58 148.276 580.812 146.54 582.8 146.54C584.62 146.54 585.488 147.688 585.488 149.732V159H589.072V149.004C589.072 145.364 587.028 143.572 584.032 143.572C582.128 143.572 580.56 144.384 579.58 146.008V143.992H575.996V159ZM592.291 154.324C592.291 157.684 593.747 159.42 596.799 159.42C597.779 159.42 598.591 159.252 598.983 159.056V156.424H598.311C596.323 156.424 595.875 155.584 595.875 154.016V146.764H599.039V143.992H595.875V140.548H592.291V143.992H590.359V146.764H592.291V154.324ZM600.579 159H604.163V151.02C604.163 148.528 605.367 146.904 608.083 146.904C608.727 146.904 609.259 146.96 609.735 147.1V143.992C609.455 143.74 608.895 143.572 608.279 143.572C606.655 143.572 605.143 144.384 604.163 146.176V143.992H600.579V159ZM614.374 148.92C614.598 147.492 615.522 146.54 617.23 146.54C619.218 146.54 620.142 147.576 620.142 149.508V149.872C617.622 149.9 615.69 150.068 613.702 150.74C611.406 151.496 610.258 153.036 610.258 155.08C610.258 157.964 612.358 159.42 615.298 159.42C617.09 159.42 618.938 158.692 620.17 156.956C620.198 157.768 620.282 158.496 620.478 159H624.202C623.922 158.216 623.754 157.18 623.754 155.332V149.508C623.754 146.036 621.626 143.572 617.454 143.572C613.674 143.572 611.238 145.588 610.762 148.92H614.374ZM613.87 154.884C613.87 153.372 615.046 152.168 620.142 152.084V152.728C620.142 154.968 618.434 156.76 616.222 156.76C614.766 156.76 613.87 156.032 613.87 154.884ZM639.604 149.312C639.1 145.476 636.412 143.572 632.996 143.572C628.684 143.572 625.912 146.428 625.912 151.524C625.912 156.396 628.6 159.42 633.024 159.42C636.412 159.42 639.044 157.656 639.716 153.904H636.104C635.74 155.612 634.648 156.452 633.108 156.452C630.84 156.452 629.608 154.688 629.608 151.524C629.608 148.304 630.784 146.54 632.996 146.54C634.508 146.54 635.684 147.352 636.02 149.312H639.604ZM642.114 154.324C642.114 157.684 643.57 159.42 646.622 159.42C647.602 159.42 648.414 159.252 648.806 159.056V156.424H648.134C646.146 156.424 645.698 155.584 645.698 154.016V146.764H648.862V143.992H645.698V140.548H642.114V143.992H640.182V146.764H642.114V154.324ZM499.518 195H506.434C512.398 195 516.122 191.444 516.122 185.508C516.122 179.572 512.398 175.96 506.434 175.96H499.518V195ZM506.434 191.948H503.298V179.012H506.434C510.102 179.012 512.286 181.42 512.286 185.508C512.286 189.568 510.102 191.948 506.434 191.948ZM532.169 190.1H528.389C527.913 191.696 526.765 192.48 525.085 192.48C522.901 192.48 521.641 190.968 521.473 188.224H532.057V187.384C532.057 182.54 529.341 179.572 524.945 179.572C520.577 179.572 517.777 182.428 517.777 187.524C517.777 192.424 520.549 195.42 525.085 195.42C528.669 195.42 531.357 193.572 532.169 190.1ZM524.945 182.512C526.821 182.512 527.969 183.744 528.305 185.984H521.557C521.893 183.716 523.041 182.512 524.945 182.512ZM537.182 184.024C537.182 183.072 538.022 182.372 539.45 182.372C541.158 182.372 542.222 183.1 542.502 184.92H546.086C545.638 181.196 543.034 179.572 539.59 179.572C535.67 179.572 533.766 181.812 533.766 184.248C533.766 190.324 543.034 187.44 543.034 190.8C543.034 191.892 542.11 192.648 540.346 192.648C538.47 192.648 537.182 191.724 536.93 190.1H533.346C533.878 193.712 536.538 195.42 540.234 195.42C543.986 195.42 546.646 193.46 546.646 190.576C546.646 184.556 537.182 187.468 537.182 184.024ZM548.528 178.312H552.112V174.84H548.528V178.312ZM548.528 195H552.112V179.992H548.528V195ZM560.292 195.056C562.028 195.056 563.428 194.356 564.408 193.012V195.532C564.408 197.912 563.204 198.78 561.412 198.78C559.676 198.78 558.388 197.94 558.164 196.344H554.552C555.084 199.9 557.772 201.608 561.468 201.608C565.192 201.608 567.992 199.536 567.992 195.476V179.992H564.408V181.504C563.484 180.244 562.084 179.572 560.292 179.572C556.54 179.572 554.132 182.344 554.132 187.328C554.132 192.116 556.484 195.056 560.292 195.056ZM561.104 192.088C558.976 192.088 557.828 190.38 557.828 187.328C557.828 184.22 558.976 182.54 561.104 182.54C563.204 182.54 564.408 184.276 564.408 187.328C564.408 190.408 563.26 192.088 561.104 192.088ZM570.733 195H574.317V186.292C574.317 184.276 575.549 182.54 577.537 182.54C579.357 182.54 580.225 183.688 580.225 185.732V195H583.809V185.004C583.809 181.364 581.765 179.572 578.769 179.572C576.865 179.572 575.297 180.384 574.317 182.008V179.992H570.733V195ZM604.034 179.992C604.034 177.696 602.186 175.54 598.77 175.54C595.522 175.54 593.17 177.416 593.17 180.244C593.17 181.644 593.646 182.792 594.878 184.276C592.946 185.256 591.238 186.712 591.238 189.652C591.238 193.012 593.898 195.42 598.266 195.42C600.73 195.42 602.774 194.664 604.37 193.404L606.05 195H610.642L606.498 191.024C607.618 189.288 608.206 187.188 608.206 185.06H604.79C604.79 186.46 604.538 187.692 604.09 188.728L599.918 184.724C602.046 183.828 604.034 182.792 604.034 179.992ZM596.67 180.216C596.67 179.208 597.454 178.424 598.714 178.424C599.89 178.424 600.618 179.292 600.618 180.216C600.618 181.532 599.526 182.232 598.07 182.876C597.09 181.84 596.67 181.14 596.67 180.216ZM594.85 189.4C594.85 187.832 595.634 186.88 596.726 186.18C596.922 186.348 597.118 186.544 597.314 186.74L602.13 191.304C601.122 192.06 599.918 192.452 598.63 192.452C596.11 192.452 594.85 191.136 594.85 189.4ZM490.812 231H494.788L487.62 211.96H483.168L476 231H479.78L481.236 227.052H489.356L490.812 231ZM484.736 217.616L485.296 215.656L485.856 217.616L488.264 224.14H482.328L484.736 217.616ZM496.225 231H499.809V223.02C499.809 220.528 501.013 218.904 503.729 218.904C504.373 218.904 504.905 218.96 505.381 219.1V215.992C505.101 215.74 504.541 215.572 503.925 215.572C502.301 215.572 500.789 216.384 499.809 218.176V215.992H496.225V231ZM519.43 221.312C518.926 217.476 516.238 215.572 512.822 215.572C508.51 215.572 505.738 218.428 505.738 223.524C505.738 228.396 508.426 231.42 512.85 231.42C516.238 231.42 518.87 229.656 519.542 225.904H515.93C515.566 227.612 514.474 228.452 512.934 228.452C510.666 228.452 509.434 226.688 509.434 223.524C509.434 220.304 510.61 218.54 512.822 218.54C514.334 218.54 515.51 219.352 515.846 221.312H519.43ZM521.464 231H525.048V222.292C525.048 220.276 526.28 218.54 528.268 218.54C530.088 218.54 530.956 219.688 530.956 221.732V231H534.54V221.004C534.54 217.364 532.496 215.572 529.5 215.572C527.596 215.572 526.028 216.384 525.048 218.008V210.84H521.464V231ZM537.283 214.312H540.867V210.84H537.283V214.312ZM537.283 231H540.867V215.992H537.283V231ZM544.062 226.324C544.062 229.684 545.518 231.42 548.57 231.42C549.55 231.42 550.362 231.252 550.754 231.056V228.424H550.082C548.094 228.424 547.646 227.584 547.646 226.016V218.764H550.81V215.992H547.646V212.548H544.062V215.992H542.13V218.764H544.062V226.324ZM566.043 226.1H562.263C561.787 227.696 560.639 228.48 558.959 228.48C556.775 228.48 555.515 226.968 555.347 224.224H565.931V223.384C565.931 218.54 563.215 215.572 558.819 215.572C554.451 215.572 551.651 218.428 551.651 223.524C551.651 228.424 554.423 231.42 558.959 231.42C562.543 231.42 565.231 229.572 566.043 226.1ZM558.819 218.512C560.695 218.512 561.843 219.744 562.179 221.984H555.431C555.767 219.716 556.915 218.512 558.819 218.512ZM581.052 221.312C580.548 217.476 577.86 215.572 574.444 215.572C570.132 215.572 567.36 218.428 567.36 223.524C567.36 228.396 570.048 231.42 574.472 231.42C577.86 231.42 580.492 229.656 581.164 225.904H577.552C577.188 227.612 576.096 228.452 574.556 228.452C572.288 228.452 571.056 226.688 571.056 223.524C571.056 220.304 572.232 218.54 574.444 218.54C575.956 218.54 577.132 219.352 577.468 221.312H581.052ZM583.562 226.324C583.562 229.684 585.018 231.42 588.07 231.42C589.05 231.42 589.862 231.252 590.254 231.056V228.424H589.582C587.594 228.424 587.146 227.584 587.146 226.016V218.764H590.31V215.992H587.146V212.548H583.562V215.992H581.63V218.764H583.562V226.324ZM601.174 224.7C601.174 226.716 599.97 228.452 598.038 228.452C596.274 228.452 595.434 227.332 595.434 225.288V215.992H591.85V226.016C591.85 229.628 593.838 231.42 596.806 231.42C598.654 231.42 600.194 230.636 601.174 228.984V231H604.758V215.992H601.174V224.7ZM607.505 231H611.089V223.02C611.089 220.528 612.293 218.904 615.009 218.904C615.653 218.904 616.185 218.96 616.661 219.1V215.992C616.381 215.74 615.821 215.572 615.205 215.572C613.581 215.572 612.069 216.384 611.089 218.176V215.992H607.505V231ZM631.41 226.1H627.63C627.154 227.696 626.006 228.48 624.326 228.48C622.142 228.48 620.882 226.968 620.714 224.224H631.298V223.384C631.298 218.54 628.582 215.572 624.186 215.572C619.818 215.572 617.018 218.428 617.018 223.524C617.018 228.424 619.79 231.42 624.326 231.42C627.91 231.42 630.598 229.572 631.41 226.1ZM624.186 218.512C626.062 218.512 627.21 219.744 627.546 221.984H620.798C621.134 219.716 622.282 218.512 624.186 218.512Z" fill="#000316"/>
<defs>
<linearGradient id="paint0_linear_701_7503" x1="285.5" y1="22" x2="285.5" y2="347" gradientUnits="userSpaceOnUse">
<stop stop-color="white" stop-opacity="0"/>
<stop offset="1" stop-color="#FE7317" stop-opacity="0.6"/>
</linearGradient>
<linearGradient id="paint1_linear_701_7503" x1="821.5" y1="22" x2="821.5" y2="347" gradientUnits="userSpaceOnUse">
<stop stop-color="white" stop-opacity="0"/>
<stop offset="1" stop-color="#FE7317" stop-opacity="0.6"/>
</linearGradient>
<linearGradient id="paint2_linear_701_7503" x1="411.5" y1="247" x2="411.5" y2="572" gradientUnits="userSpaceOnUse">
<stop stop-color="#001070" stop-opacity="0.35"/>
<stop offset="1" stop-color="white" stop-opacity="0"/>
</linearGradient>
<linearGradient id="paint3_linear_701_7503" x1="696.5" y1="247" x2="696.5" y2="572" gradientUnits="userSpaceOnUse">
<stop stop-color="#001070" stop-opacity="0.35"/>
<stop offset="1" stop-color="white" stop-opacity="0"/>
</linearGradient>
<linearGradient id="paint4_linear_701_7503" x1="553.5" y1="22" x2="553.5" y2="347" gradientUnits="userSpaceOnUse">
<stop stop-color="#001070" stop-opacity="0.35"/>
<stop offset="0.958333" stop-color="white" stop-opacity="0"/>
</linearGradient>
</defs>
</svg>
