<svg width="145" height="196" viewBox="0 0 145 196" fill="none" xmlns="http://www.w3.org/2000/svg">
<g opacity="0.5">
<path d="M67.3024 82.2416C67.3161 82.5059 67.2638 82.7694 67.1501 83.0083C67.0364 83.2473 66.8649 83.4541 66.6512 83.6101C54.5019 93.7854 42.3577 103.973 30.2186 114.172C29.9642 114.385 29.7098 114.609 29.4351 114.864L0.776367 90.7736C0.945404 90.3711 1.21736 90.0201 1.56495 89.756C23.1671 71.6813 44.7557 53.5914 66.3307 35.4861L67.2872 34.7026V35.6591C67.2872 51.1866 67.2923 66.7141 67.3024 82.2416Z" fill="url(#paint0_linear_701_7635)"/>
<path d="M144.988 138.262C145.003 138.515 144.955 138.769 144.848 138.999C144.74 139.229 144.577 139.428 144.373 139.579C122.567 157.895 100.766 176.199 78.971 194.49C78.7879 194.648 78.5894 194.791 78.2893 195.03C78.2893 194.628 78.2536 194.343 78.2536 194.063V169.724C78.2536 162.306 78.2536 154.886 78.2536 147.465C78.2362 147.214 78.2815 146.961 78.3853 146.732C78.4892 146.502 78.6485 146.301 78.8489 146.148C91.0389 135.932 103.219 125.705 115.388 115.469C115.617 115.281 115.836 115.082 116.157 114.803L116.121 114.772L144.8 90.6108C144.944 90.8628 145.012 91.1505 144.998 91.4401C144.992 107.049 144.988 122.656 144.988 138.262Z" fill="url(#paint1_linear_701_7635)"/>
<path d="M67.2334 194.099V194.913C66.9383 194.689 66.7246 194.562 66.5669 194.404L43.5605 175.071C29.4542 163.224 15.3445 151.379 1.23132 139.539C1.02159 139.375 0.855987 139.161 0.749418 138.916C0.64285 138.672 0.598649 138.405 0.620799 138.14C0.620799 122.683 0.620799 107.227 0.620799 91.7709C0.610792 91.425 0.664246 91.0801 0.778515 90.7534L29.4372 114.843H29.4118C29.8239 115.189 30.1749 115.495 30.5362 115.795C42.5735 125.916 54.6143 136.03 66.6584 146.138C66.8533 146.28 67.0094 146.47 67.1125 146.688C67.2155 146.907 67.2623 147.148 67.2486 147.389C67.2317 162.974 67.2266 178.544 67.2334 194.099Z" fill="url(#paint2_linear_701_7635)"/>
<path d="M144.787 90.6109L116.108 114.772C115.859 114.553 115.67 114.38 115.477 114.218L79.1614 83.7426C78.3066 83.0252 78.3066 83.0303 78.3066 81.8805V55.9691L98.1179 72.5854C98.1792 72.4026 98.2268 72.2156 98.2604 72.0257C98.2604 71.7765 98.2604 71.517 98.2604 71.2829V51.5938C98.6063 51.8481 98.82 51.9906 99.0185 52.1534L115.63 66.0732C125.218 74.1117 134.81 82.1468 144.405 90.1785C144.557 90.299 144.686 90.4454 144.787 90.6109Z" fill="url(#paint3_linear_701_7635)"/>
<path d="M98.1165 41.4488C97.8366 41.2453 97.6586 41.1283 97.4958 40.996C91.3906 35.8778 85.2854 30.7647 79.1802 25.6567C79.0099 25.5218 78.8746 25.3478 78.7861 25.1493C78.6975 24.9509 78.6582 24.734 78.6715 24.5171C78.6715 18.0388 78.6715 11.5623 78.6715 5.08738C78.6715 4.85335 78.702 4.61932 78.7325 4.26318C79.0073 4.4616 79.1904 4.57353 79.3481 4.70581C85.433 9.79345 91.5144 14.8913 97.5924 19.9993C97.77 20.1272 97.9137 20.2964 98.0112 20.4923C98.1087 20.6882 98.157 20.9049 98.1521 21.1236C98.1317 27.6969 98.1317 34.2718 98.1521 40.8484C98.147 40.996 98.1317 41.1435 98.1165 41.4488Z" fill="url(#paint4_linear_701_7635)"/>
<path d="M112.473 30.7749C112.778 31.0191 113.007 31.1921 113.226 31.3752C116.597 34.204 119.969 37.0293 123.34 39.8513C123.51 39.9698 123.647 40.1284 123.74 40.3131C123.834 40.4978 123.88 40.7027 123.874 40.9095C123.874 44.5878 123.874 48.2713 123.874 51.9497C123.874 52.1176 123.839 52.2855 123.813 52.5449C123.637 52.4439 123.467 52.3318 123.304 52.2092L112.966 43.5602C112.807 43.4497 112.678 43.302 112.589 43.1299C112.5 42.9579 112.455 42.7667 112.457 42.5732C112.457 38.8185 112.457 35.0587 112.457 31.304C112.427 31.1514 112.452 31.014 112.473 30.7749Z" fill="url(#paint5_linear_701_7635)"/>
<path d="M107.848 14.5507C107.65 14.4082 107.508 14.3166 107.38 14.2098C105.183 12.3731 102.995 10.5212 100.766 8.69477C100.57 8.55051 100.413 8.3596 100.309 8.1393C100.205 7.919 100.158 7.67626 100.171 7.43304C100.197 5.23518 100.171 3.03732 100.171 0.819103C100.171 0.574896 100.197 0.310346 100.212 0C100.39 0.0701291 100.561 0.158811 100.721 0.264567L107.538 5.97798C107.657 6.06288 107.754 6.17517 107.82 6.30534C107.887 6.43551 107.921 6.57972 107.92 6.72585C107.92 9.26967 107.92 11.7677 107.92 14.2861C107.903 14.3761 107.879 14.4646 107.848 14.5507Z" fill="url(#paint6_linear_701_7635)"/>
</g>
<defs>
<linearGradient id="paint0_linear_701_7635" x1="20.5716" y1="34.7026" x2="66.1858" y2="109.728" gradientUnits="userSpaceOnUse">
<stop stop-color="#F1F5F9"/>
<stop offset="1" stop-color="#B9D4EF"/>
</linearGradient>
<linearGradient id="paint1_linear_701_7635" x1="98.1113" y1="90.6108" x2="163.208" y2="173.082" gradientUnits="userSpaceOnUse">
<stop stop-color="#F1F5F9"/>
<stop offset="1" stop-color="#B9D4EF"/>
</linearGradient>
<linearGradient id="paint2_linear_701_7635" x1="20.4424" y1="90.7534" x2="85.3662" y2="173.068" gradientUnits="userSpaceOnUse">
<stop stop-color="#F1F5F9"/>
<stop offset="1" stop-color="#B9D4EF"/>
</linearGradient>
<linearGradient id="paint3_linear_701_7635" x1="98.0876" y1="51.5938" x2="129.663" y2="117.441" gradientUnits="userSpaceOnUse">
<stop stop-color="#F1F5F9"/>
<stop offset="1" stop-color="#B9D4EF"/>
</linearGradient>
<linearGradient id="paint4_linear_701_7635" x1="84.4662" y1="4.26318" x2="108.283" y2="28.9946" gradientUnits="userSpaceOnUse">
<stop stop-color="#F1F5F9"/>
<stop offset="1" stop-color="#B9D4EF"/>
</linearGradient>
<linearGradient id="paint5_linear_701_7635" x1="115.845" y1="30.7749" x2="129.787" y2="45.2839" gradientUnits="userSpaceOnUse">
<stop stop-color="#F1F5F9"/>
<stop offset="1" stop-color="#B9D4EF"/>
</linearGradient>
<linearGradient id="paint6_linear_701_7635" x1="102.475" y1="1.15843e-07" x2="111.788" y2="9.83099" gradientUnits="userSpaceOnUse">
<stop stop-color="#F1F5F9"/>
<stop offset="1" stop-color="#B9D4EF"/>
</linearGradient>
</defs>
</svg>
