<svg width="48" height="48" viewBox="0 0 48 48" fill="none" xmlns="http://www.w3.org/2000/svg">
<rect width="47.6355" height="48" rx="23.8177" fill="#D6F0F7"/>
<path d="M24.7597 11.9972C24.7597 12.5019 25.1164 12.708 25.5521 12.456L30.242 9.74337C30.6779 9.49139 30.6779 9.0774 30.242 8.82542L25.5521 6.10757C25.1164 5.85523 24.7597 6.0624 24.7597 6.56637V11.9972Z" fill="#00CEFF"/>
<path d="M32.9185 16.7212C32.9185 17.2252 33.2753 17.4322 33.711 17.1798L38.4009 14.4645C38.8368 14.2125 38.8368 13.7986 38.4009 13.5466L33.711 10.8298C33.2753 10.5778 32.9185 10.7841 32.9185 11.2886V16.7212Z" fill="#00CEFF"/>
<path d="M32.7691 20.8249C32.5233 20.7005 32.2518 20.6357 31.9766 20.6357C31.7013 20.6357 31.43 20.7005 31.1842 20.8249L26.4943 23.5402C26.0585 23.7922 26.0585 24.2062 26.4943 24.4582L31.1842 27.1736C31.43 27.2978 31.7013 27.3627 31.9766 27.3627C32.2518 27.3627 32.5233 27.2978 32.7691 27.1736L37.4588 24.4582C37.8947 24.2062 37.8947 23.7922 37.4588 23.5402L32.7691 20.8249Z" fill="#00CEFF"/>
<path d="M30.8015 29.4031C30.9392 29.6421 31.0189 29.9102 31.0345 30.1857V35.6167C31.0345 36.1213 30.6779 36.3273 30.242 36.0752L25.5521 33.3599C25.3219 33.2088 25.1303 33.0054 24.9926 32.7664C24.855 32.5273 24.7752 32.2593 24.7597 31.9837V26.5528C24.7597 26.0483 25.1164 25.842 25.5521 26.094L30.242 28.8095C30.4723 28.9607 30.6638 29.164 30.8015 29.4031Z" fill="#00CEFF"/>
<path d="M31.0345 12.3812C31.0345 11.8772 30.6779 11.6702 30.242 11.9226L25.5521 14.6379C25.3219 14.7891 25.1303 14.9924 24.9926 15.2314C24.855 15.4704 24.7752 15.7385 24.7597 16.0141V21.4451C24.7597 21.9491 25.1164 22.1561 25.5521 21.9039L30.242 19.1884C30.4723 19.0372 30.6638 18.8339 30.8015 18.5948C30.9392 18.3558 31.0189 18.0877 31.0345 17.8122V12.3812Z" fill="#00CEFF"/>
<path d="M32.9185 31.2766C32.9185 30.7722 33.2753 30.5659 33.711 30.8181L38.4009 33.5317C38.8368 33.7836 38.8368 34.1977 38.4009 34.4496L33.711 37.1665C33.2753 37.4186 32.9185 37.2116 32.9185 36.7075V31.2766Z" fill="#00CEFF"/>
<path d="M40.1355 16.5595C40.1355 16.0548 39.779 15.8487 39.3431 16.1007L34.653 18.8151C34.2173 19.068 34.2173 19.4811 34.653 19.7331L39.3431 22.4491C39.779 22.7015 40.1355 22.4943 40.1355 21.9903V16.5595Z" fill="#00CEFF"/>
<path d="M39.3431 25.5487C39.779 25.2967 40.1355 25.5028 40.1355 26.0075V31.4384C40.1355 31.9422 39.779 32.1495 39.3431 31.8971L34.653 29.1817C34.2173 28.9296 34.2173 28.5157 34.653 28.2636L39.3431 25.5487Z" fill="#00CEFF"/>
<path d="M24.7597 36.0006C24.7597 35.4959 25.1164 35.2899 25.5521 35.5418L30.242 38.2553C30.6779 38.5074 30.6779 38.9212 30.242 39.1734L25.5521 41.8903C25.1164 42.1426 24.7597 41.9355 24.7597 41.4315V36.0006Z" fill="#00CEFF"/>
<path d="M22.0834 12.4561C22.5192 12.708 22.8756 12.502 22.8756 11.9972V6.56642C22.8756 6.06173 22.5192 5.856 22.0834 6.10798L17.3933 8.82583C16.9575 9.07781 16.9575 9.4918 17.3933 9.74378L22.0834 12.4561Z" fill="#0075FF"/>
<path d="M22.0834 26.0939C22.5192 25.8418 22.8756 26.0488 22.8756 26.5527V41.4335C22.8756 41.9383 22.5192 42.1443 22.0834 41.8924L17.3933 39.1755C17.163 39.0242 16.9714 38.821 16.8338 38.582C16.6962 38.3429 16.6165 38.0749 16.6011 37.7991V30.1857C16.6165 29.9101 16.6962 29.6419 16.8338 29.403C16.9714 29.164 17.1631 28.9606 17.3933 28.8095L22.0834 26.0939Z" fill="#0075FF"/>
<path d="M22.0833 21.9039C22.5191 22.1559 22.8756 21.9496 22.8756 21.4451V16.0141C22.8602 15.7385 22.7805 15.4704 22.6429 15.2314C22.5053 14.9923 22.3136 14.789 22.0833 14.6379L15.5091 10.8314C15.2634 10.7071 14.992 10.6423 14.7167 10.6423C14.4415 10.6423 14.1701 10.7071 13.9244 10.8314L9.23453 13.547C8.79875 13.7989 8.79875 14.2129 9.23453 14.4649L22.0833 21.9039Z" fill="#0075FF"/>
<path d="M14.7168 31.2766C14.7168 30.7726 14.3602 30.5658 13.9244 30.8181L9.23453 33.5333C8.79875 33.7855 8.79875 34.1993 9.23453 34.4512L13.9244 37.1681C14.3602 37.42 14.7168 37.2138 14.7168 36.7094V31.2766Z" fill="#0075FF"/>
<path d="M15.6588 20.6356C15.9341 20.6356 16.2055 20.7004 16.4512 20.8249L21.1407 23.5399C21.5765 23.7918 21.5765 24.2058 21.1407 24.4578L8.29242 31.8971C7.85663 32.1495 7.5 31.9422 7.5 31.4384V26.0075C7.51548 25.7319 7.59524 25.4638 7.73287 25.2248C7.8705 24.9857 8.06215 24.7824 8.29242 24.6311L14.8665 20.8249C15.1122 20.7004 15.3836 20.6356 15.6588 20.6356Z" fill="#0075FF"/>
<path d="M8.29242 16.1009C7.85663 15.8485 7.5 16.055 7.5 16.5597V21.9907C7.5 22.4947 7.85663 22.7016 8.29242 22.4493L12.9823 19.7332C13.4181 19.4813 13.4181 19.0673 12.9823 18.8153L8.29242 16.1009Z" fill="#0075FF"/>
</svg>
