<svg width="114" height="132" viewBox="0 0 114 132" fill="none" xmlns="http://www.w3.org/2000/svg">
<path d="M49.1001 103.346C48.4024 102.839 47.9584 102.547 47.5525 102.217C32.3302 89.4559 17.1079 76.7072 1.88568 63.9712C1.4609 63.6349 1.12373 63.2009 0.902854 62.7061C0.681982 62.2114 0.583953 61.6706 0.617158 61.1297C0.617158 44.9772 0.617158 28.8289 0.617158 12.6849C0.617158 12.1014 0.693263 11.5178 0.769374 10.6299C1.45438 11.1246 1.91107 11.4037 2.30431 11.7335C17.4758 24.4187 32.6389 37.1293 47.7935 49.8653C48.2361 50.1842 48.5945 50.6062 48.8376 51.0946C49.0807 51.583 49.2013 52.1233 49.1889 52.6687C49.1381 69.058 49.1381 85.4515 49.1889 101.849C49.1762 102.217 49.1381 102.585 49.1001 103.346Z" fill="#FE7317"/>
<path d="M84.9002 76.7329C85.6613 77.3418 86.2322 77.7731 86.7776 78.2298C95.1837 85.2827 103.59 92.3273 111.996 99.3634C112.419 99.6588 112.762 100.054 112.994 100.515C113.226 100.975 113.341 101.486 113.328 102.002C113.328 111.173 113.328 120.357 113.328 129.529C113.328 129.947 113.239 130.366 113.176 131.013C112.735 130.761 112.312 130.482 111.907 130.176L86.1307 108.611C85.7344 108.335 85.4115 107.967 85.1904 107.538C84.9693 107.109 84.8566 106.633 84.8621 106.15C84.8621 96.7882 84.8621 87.4138 84.8621 78.0521C84.786 77.6716 84.8495 77.3291 84.9002 76.7329Z" fill="#FE7317"/>
<path d="M73.3681 36.2797C72.8733 35.9245 72.5181 35.6962 72.201 35.4298C66.721 30.8505 61.2663 26.233 55.7102 21.679C55.2208 21.3193 54.8288 20.8433 54.5697 20.294C54.3106 19.7447 54.1924 19.1395 54.2261 18.5331C54.2895 13.0531 54.2261 7.57306 54.2261 2.0423C54.2261 1.43341 54.2895 0.773799 54.3275 0C54.7723 0.174856 55.1975 0.395971 55.596 0.659656L72.5943 14.9051C72.8908 15.1168 73.1321 15.3968 73.2977 15.7213C73.4633 16.0459 73.5483 16.4055 73.5457 16.7698C73.5457 23.1124 73.5457 29.3409 73.5457 35.6201C73.5046 35.8445 73.4452 36.0651 73.3681 36.2797Z" fill="#FE7317"/>
</svg>
