<svg width="360" height="401" viewBox="0 0 360 401" fill="none" xmlns="http://www.w3.org/2000/svg">
<path d="M166.252 119.056C166.286 119.715 166.156 120.372 165.872 120.968C165.589 121.564 165.161 122.079 164.628 122.468C134.336 147.839 104.056 173.239 73.7894 198.669C73.1551 199.201 72.5209 199.759 71.8359 200.394L0.380005 140.329C0.80147 139.326 1.47956 138.451 2.3462 137.792C56.2077 92.7258 110.035 47.6214 163.829 2.47889L166.214 0.525391V2.91014C166.214 41.6254 166.227 80.3408 166.252 119.056Z" fill="#CBD5E1"/>
<path d="M359.97 258.733C360.008 259.365 359.887 259.997 359.619 260.57C359.351 261.144 358.944 261.642 358.435 262.019C304.066 307.685 249.71 353.323 195.367 398.93C194.91 399.324 194.415 399.679 193.667 400.275C193.667 399.273 193.578 398.562 193.578 397.865V337.179C193.578 318.684 193.578 300.184 193.578 281.681C193.534 281.053 193.647 280.425 193.906 279.851C194.165 279.278 194.562 278.778 195.062 278.395C225.456 252.923 255.824 227.426 286.167 201.903C286.738 201.434 287.284 200.939 288.083 200.242L287.994 200.165L359.501 139.923C359.859 140.552 360.03 141.269 359.995 141.991C359.979 180.909 359.97 219.823 359.97 258.733Z" fill="#CBD5E1"/>
<path d="M166.102 397.953V399.983C165.366 399.425 164.833 399.108 164.44 398.714L107.077 350.511C71.9053 320.971 36.7249 291.44 1.53612 261.917C1.01317 261.507 0.600277 260.974 0.334566 260.365C0.068855 259.756 -0.0413533 259.091 0.0138738 258.429C0.0138738 219.891 0.0138738 181.353 0.0138738 142.815C-0.0110755 141.953 0.122202 141.093 0.407113 140.278L71.863 200.343H71.7996C72.8271 201.205 73.7024 201.967 74.603 202.715C104.616 227.95 134.638 253.168 164.668 278.37C165.154 278.726 165.543 279.198 165.8 279.743C166.057 280.288 166.174 280.889 166.14 281.49C166.097 320.349 166.085 359.17 166.102 397.953Z" fill="#FAFAFA"/>
<path d="M359.463 139.923L287.957 200.165C287.335 199.62 286.866 199.189 286.384 198.783L195.837 122.798C193.706 121.009 193.706 121.022 193.706 118.155V53.5495L243.102 94.9794C243.255 94.5237 243.373 94.0573 243.457 93.584C243.457 92.9625 243.457 92.3155 243.457 91.732V42.6401C244.32 43.2744 244.852 43.6296 245.347 44.0356L286.764 78.7423C310.672 98.785 334.588 118.819 358.512 138.845C358.89 139.145 359.212 139.51 359.463 139.923Z" fill="#FAFAFA"/>
</svg>
