<svg width="32" height="32" viewBox="0 0 32 32" fill="none" xmlns="http://www.w3.org/2000/svg">
<path d="M18.1107 4.09806C18.4143 3.67344 18.5937 3.15425 18.5937 2.59363C18.5936 1.1635 17.4301 0 16 0C14.5699 0 13.4064 1.1635 13.4064 2.59363C13.4064 3.15419 13.5858 3.67338 13.8893 4.09806C7.15079 5.11912 1.96973 10.9506 1.96973 17.9697C1.96973 25.706 8.26373 32 16 32C23.7364 32 30.0303 25.706 30.0303 17.9697C30.0303 10.9506 24.8493 5.11906 18.1107 4.09806ZM16 1.375C16.6719 1.375 17.2186 1.92169 17.2186 2.59363C17.2186 3.26556 16.6719 3.81225 16 3.81225C15.328 3.81225 14.7814 3.26556 14.7814 2.59363C14.7814 1.92169 15.328 1.375 16 1.375ZM16 30.625C9.02191 30.625 3.34473 24.9478 3.34473 17.9697C3.34473 10.9916 9.02191 5.31437 16 5.31437C22.9782 5.31437 28.6553 10.9916 28.6553 17.9697C28.6553 24.9478 22.9782 30.625 16 30.625Z" fill="#001070"/>
<path d="M19.3358 18.1359C19.3706 17.9941 19.3601 17.8406 19.304 17.7061L16.6355 11.2753C16.529 11.0186 16.2783 10.8513 16.0005 10.8513C15.7226 10.8513 15.472 11.0186 15.3655 11.2753C15.3655 11.2753 12.697 17.706 12.697 17.7061C12.6283 17.8715 12.6284 18.0674 12.697 18.2331L15.3655 24.6639C15.472 24.9206 15.7226 25.0879 16.0005 25.0879C16.2783 25.0879 16.529 24.9206 16.6355 24.6639C16.6355 24.6639 19.3035 18.2343 19.304 18.2331C19.3171 18.2016 19.3277 18.1691 19.3358 18.1359ZM16.0005 13.3326L17.6394 17.2821H14.3616L16.0005 13.3326ZM16.0005 22.6066L14.3616 18.6572H17.6393L16.0005 22.6066Z" fill="#FE7317"/>
<path d="M9.57541 12.2326C9.39948 12.2326 9.22354 12.1655 9.08929 12.0312L8.28048 11.2225C8.01198 10.954 8.01198 10.5187 8.28048 10.2502C8.54904 9.98172 8.98423 9.98172 9.25279 10.2502L10.0615 11.0589C10.33 11.3274 10.33 11.7627 10.0615 12.0312C9.92729 12.1654 9.75135 12.2326 9.57541 12.2326Z" fill="#001070"/>
<path d="M22.4248 12.2326C22.2489 12.2326 22.0729 12.1655 21.9387 12.0312C21.6702 11.7627 21.6702 11.3274 21.9387 11.0589L22.7474 10.2502C23.016 9.98172 23.4512 9.98172 23.7197 10.2502C23.9882 10.5187 23.9882 10.954 23.7197 11.2225L22.911 12.0312C22.7767 12.1654 22.6007 12.2326 22.4248 12.2326Z" fill="#001070"/>
<path d="M23.2336 25.8906C23.0576 25.8906 22.8817 25.8234 22.7474 25.6892L21.9387 24.8804C21.6702 24.6119 21.6702 24.1766 21.9387 23.9081C22.2072 23.6397 22.6424 23.6397 22.911 23.9081L23.7197 24.7169C23.9882 24.9854 23.9882 25.4207 23.7197 25.6892C23.5854 25.8234 23.4096 25.8906 23.2336 25.8906Z" fill="#001070"/>
<path d="M8.7666 25.8906C8.59066 25.8906 8.41473 25.8234 8.28048 25.6892C8.01198 25.4207 8.01198 24.9854 8.28048 24.7169L9.08929 23.9081C9.35785 23.6397 9.79304 23.6397 10.0616 23.9081C10.3301 24.1766 10.3301 24.6119 10.0616 24.8804L9.25285 25.6892C9.11848 25.8234 8.94254 25.8906 8.7666 25.8906Z" fill="#001070"/>
<path d="M7.50849 15.424C7.42712 15.424 7.34449 15.4094 7.26399 15.3788L6.19499 14.9717C5.84012 14.8366 5.66206 14.4393 5.79712 14.0846C5.93231 13.7296 6.32968 13.5518 6.68425 13.6867L7.75324 14.0938C8.10812 14.2289 8.28618 14.6261 8.15112 14.9809C8.04662 15.2553 7.78549 15.424 7.50849 15.424Z" fill="#001070"/>
<path d="M19.2334 10.1662C19.1521 10.1662 19.0694 10.1517 18.9889 10.121C18.6341 9.98591 18.456 9.58866 18.5911 9.23391L18.9981 8.16492C19.1333 7.81004 19.5308 7.6321 19.8853 7.76704C20.2401 7.90216 20.4182 8.29941 20.2831 8.65416L19.8761 9.72316C19.7716 9.99754 19.5105 10.1662 19.2334 10.1662Z" fill="#001070"/>
<path d="M25.5602 22.2977C25.4788 22.2977 25.3962 22.2832 25.3157 22.2525L24.2468 21.8455C23.8919 21.7104 23.7138 21.3131 23.8489 20.9584C23.9841 20.6034 24.3815 20.4256 24.736 20.5605L25.8049 20.9675C26.1598 21.1027 26.3379 21.4999 26.2028 21.8547C26.0983 22.129 25.8373 22.2977 25.5602 22.2977Z" fill="#001070"/>
<path d="M12.3594 28.2174C12.278 28.2174 12.1954 28.2029 12.1149 28.1722C11.76 28.0371 11.582 27.6399 11.717 27.2851L12.1241 26.2162C12.2593 25.8612 12.6567 25.6834 13.0112 25.8183C13.3661 25.9534 13.5442 26.3507 13.4091 26.7054L13.002 27.7744C12.8975 28.0487 12.6365 28.2174 12.3594 28.2174Z" fill="#001070"/>
<path d="M6.38402 22.1467C6.10289 22.1467 5.83908 21.9731 5.7377 21.6935C5.6082 21.3366 5.79252 20.9422 6.14945 20.8127L7.22464 20.4226C7.58164 20.2928 7.97595 20.4775 8.10539 20.8344C8.23489 21.1913 8.05058 21.5856 7.69364 21.7152L6.61845 22.1053C6.54102 22.1334 6.46183 22.1467 6.38402 22.1467Z" fill="#001070"/>
<path d="M12.9012 10.1164C12.6201 10.1164 12.3563 9.94274 12.2548 9.66324L11.8647 8.58805C11.7352 8.23111 11.9195 7.8368 12.2763 7.70724C12.6335 7.57761 13.0276 7.76205 13.1572 8.11893L13.5473 9.19411C13.6768 9.55105 13.4925 9.94543 13.1357 10.0749C13.0582 10.1031 12.979 10.1164 12.9012 10.1164Z" fill="#001070"/>
<path d="M24.5413 15.5581C24.2602 15.5581 23.9964 15.3845 23.895 15.105C23.7654 14.748 23.9498 14.3537 24.3066 14.2242L25.3818 13.834C25.7391 13.7043 26.1331 13.8888 26.2626 14.2457C26.3922 14.6026 26.2078 14.997 25.851 15.1265L24.7758 15.5167C24.6983 15.5448 24.6191 15.5581 24.5413 15.5581Z" fill="#001070"/>
<path d="M19.489 28.2734C19.2079 28.2734 18.944 28.0998 18.8426 27.8203L18.4525 26.7451C18.323 26.3881 18.5074 25.9938 18.8643 25.8643C19.2212 25.7344 19.6156 25.9191 19.7451 26.2761L20.1352 27.3513C20.2647 27.7082 20.0804 28.1026 19.7234 28.232C19.646 28.2601 19.5668 28.2734 19.489 28.2734Z" fill="#001070"/>
<path d="M16.0005 8.42758C15.1093 8.44096 15.1091 7.03952 16.0006 7.05258C16.8915 7.03983 16.8918 8.44089 16.0005 8.42758Z" fill="#FE7317"/>
<path d="M26.2291 18.6575C25.4214 18.6759 25.2986 17.4345 26.0947 17.2957C27.067 17.1198 27.217 18.6389 26.2291 18.6575Z" fill="#FE7317"/>
<path d="M15.9996 28.8861C15.1918 28.9066 15.0692 27.663 15.8652 27.5249C16.8375 27.3491 16.9873 28.8691 15.9996 28.8861Z" fill="#FE7317"/>
<path d="M5.77055 18.6575C4.78336 18.6383 4.9313 17.1216 5.90492 17.2956C6.70092 17.435 6.57792 18.6758 5.77055 18.6575Z" fill="#FE7317"/>
</svg>
