<svg width="32" height="32" viewBox="0 0 32 32" fill="none" xmlns="http://www.w3.org/2000/svg">
<g clip-path="url(#clip0_831_4445)">
<path d="M11.0967 7.35889H9.72168V29.7876H11.0967V7.35889Z" fill="#FE7317"/>
<path d="M22.2793 7.35889H20.9043V29.7876H22.2793V7.35889Z" fill="#FE7317"/>
<path d="M29.2157 0C27.9177 0 26.8245 0.892938 26.5176 2.09675H5.48238C5.1755 0.892938 4.08225 0 2.78425 0C1.249 0 0 1.249 0 2.78425C0 4.31944 1.249 5.56844 2.78425 5.56844C4.08225 5.56844 5.1755 4.6755 5.48238 3.47175H7.688V6.67144H6.34231C5.96263 6.67144 5.65481 6.97925 5.65481 7.35894V31.3125C5.65481 31.538 5.76538 31.7491 5.95069 31.8776C6.136 32.006 6.3725 32.0353 6.58369 31.9562L16 28.4251L25.4163 31.9562C25.4945 31.9856 25.5763 32 25.6576 32C25.7957 32 25.9326 31.9584 26.0492 31.8776C26.2346 31.7491 26.3451 31.538 26.3451 31.3125V7.35894C26.3451 6.97925 26.0373 6.67144 25.6576 6.67144H24.312V3.47175H26.5176C26.8244 4.67556 27.9177 5.56844 29.2157 5.56844C30.751 5.56844 32 4.31944 32 2.78425C32 1.249 30.751 0 29.2157 0ZM2.78425 4.19344C2.00719 4.19344 1.375 3.56125 1.375 2.78425C1.375 2.00719 2.00719 1.375 2.78425 1.375C3.56131 1.375 4.19344 2.00719 4.19344 2.78425C4.19344 3.56125 3.56125 4.19344 2.78425 4.19344ZM9.063 3.47175H15.3125V6.67144H9.063V3.47175ZM24.9701 30.3204L16.2414 27.0471C16.0858 26.9888 15.9142 26.9888 15.7586 27.0471L7.02975 30.3204V8.04644H24.9701V30.3204H24.9701ZM22.937 6.67144H16.6875V3.47175H22.937V6.67144ZM29.2157 4.19344C28.4387 4.19344 27.8065 3.56125 27.8065 2.78425C27.8065 2.00719 28.4387 1.375 29.2157 1.375C29.9928 1.375 30.625 2.00719 30.625 2.78425C30.625 3.56125 29.9928 4.19344 29.2157 4.19344Z" fill="#001070"/>
<path d="M13.9668 13.6377H15.3125V14.9834C15.3125 15.3631 15.6203 15.6709 16 15.6709C16.3797 15.6709 16.6875 15.3631 16.6875 14.9834V13.6377H18.0332C18.4129 13.6377 18.7207 13.3299 18.7207 12.9502C18.7207 12.5705 18.4129 12.2627 18.0332 12.2627H16.6875V10.917C16.6875 10.5373 16.3797 10.2295 16 10.2295C15.6203 10.2295 15.3125 10.5373 15.3125 10.917V12.2627H13.9668C13.5871 12.2627 13.2793 12.5705 13.2793 12.9502C13.2793 13.3299 13.5871 13.6377 13.9668 13.6377Z" fill="#001070"/>
<path d="M18.0332 20.9037H16.6875V19.5581C16.6875 19.1784 16.3797 18.8706 16 18.8706C15.6203 18.8706 15.3125 19.1784 15.3125 19.5581V20.9038H13.9668C13.5871 20.9038 13.2793 21.2116 13.2793 21.5913C13.2793 21.971 13.5871 22.2788 13.9668 22.2788H15.3125V23.6245C15.3125 24.0042 15.6203 24.312 16 24.312C16.3797 24.312 16.6875 24.0042 16.6875 23.6245V22.2787H18.0332C18.4129 22.2787 18.7207 21.9709 18.7207 21.5912C18.7207 21.2115 18.4129 20.9037 18.0332 20.9037Z" fill="#001070"/>
</g>
<defs>
<clipPath id="clip0_831_4445">
<rect width="32" height="32" fill="white"/>
</clipPath>
</defs>
</svg>
