<svg width="32" height="32" viewBox="0 0 32 32" fill="none" xmlns="http://www.w3.org/2000/svg">
<g clip-path="url(#clip0_831_4414)">
<path d="M31.3145 15.3125H29.3606C29.1538 8.65238 23.3494 2.84825 16.6895 2.64144V0.6875C16.6895 0.307813 16.3816 0 16.002 0C15.6223 0 15.3145 0.307813 15.3145 0.6875V2.64144C8.65433 2.84825 2.8502 8.65256 2.64333 15.3125H0.689453C0.309766 15.3125 0.00195312 15.6203 0.00195312 16C0.00195312 16.3797 0.309766 16.6875 0.689453 16.6875H2.64333C2.85014 23.3476 8.65452 29.1518 15.3145 29.3586V31.3125C15.3145 31.6922 15.6223 32 16.002 32C16.3816 32 16.6895 31.6922 16.6895 31.3125V29.3586C23.3496 29.1518 29.1538 23.3474 29.3606 16.6875H31.3145C32.2263 16.6514 32.2262 15.3486 31.3145 15.3125ZM16.6895 27.9809V26.0647C16.6895 25.685 16.3816 25.3772 16.002 25.3772C15.6223 25.3772 15.3145 25.685 15.3145 26.0647V27.9809C9.24333 27.6363 4.36564 22.7586 4.02102 16.6875H5.93727C6.31695 16.6875 6.62477 16.3797 6.62477 16C6.62477 15.6203 6.31695 15.3125 5.93727 15.3125H4.02102C4.36564 9.24144 9.24333 4.36369 15.3145 4.01906V5.93531C15.3145 6.315 15.6223 6.62281 16.002 6.62281C16.3816 6.62281 16.6895 6.315 16.6895 5.93531V4.01906C22.7606 4.36369 27.6383 9.24144 27.9829 15.3125H26.0666C25.687 15.3125 25.3791 15.6203 25.3791 16C25.3791 16.3797 25.687 16.6875 26.0666 16.6875H27.9829C27.6383 22.7586 22.7606 27.6363 16.6895 27.9809Z" fill="#FE7317"/>
<path d="M16.0022 22.8383C12.2317 22.8383 9.16406 19.7706 9.16406 16.0001C9.53969 6.92834 22.4662 6.93096 22.8404 16.0001C22.8404 19.7706 19.7728 22.8383 16.0022 22.8383ZM16.0022 10.5369C12.9899 10.5369 10.5391 12.9876 10.5391 16.0001C10.8392 23.2477 21.1664 23.2456 21.4654 16C21.4654 12.9877 19.0146 10.5369 16.0022 10.5369Z" fill="#001070"/>
<path d="M16.0026 18.9941C14.3674 18.9941 13.0371 17.6638 13.0371 16.0286C13.0371 15.6489 13.3449 15.3411 13.7246 15.3411C14.1043 15.3411 14.4121 15.6489 14.4121 16.0286C14.4121 16.9056 15.1256 17.6191 16.0026 17.6191C16.8796 17.6191 17.5931 16.9056 17.5931 16.0286C17.5931 15.6489 17.9009 15.3411 18.2806 15.3411C18.6603 15.3411 18.9681 15.6489 18.9681 16.0286C18.9681 17.6638 17.6378 18.9941 16.0026 18.9941Z" fill="#001070"/>
</g>
<defs>
<clipPath id="clip0_831_4414">
<rect width="32" height="32" fill="white"/>
</clipPath>
</defs>
</svg>
