<svg width="32" height="32" viewBox="0 0 32 32" fill="none" xmlns="http://www.w3.org/2000/svg">
<g clip-path="url(#clip0_831_4499)">
<path d="M29.2444 5.91271L27.2112 3.37128C27.0808 3.20815 26.8832 3.11321 26.6744 3.11321H15.8451C13.4119 1.65553 10.2017 3.48978 10.2297 6.34228C10.2016 9.19434 13.4126 11.0292 15.8452 9.57115H26.6744C26.8833 9.57115 27.0808 9.47621 27.2112 9.31315L29.2444 6.77171C29.4452 6.52065 29.4453 6.16384 29.2444 5.91271ZM11.6046 6.34221C11.6046 5.03965 12.6644 3.9799 13.9669 3.9799C17.1007 4.10965 17.0999 8.57515 13.9669 8.70446C12.6644 8.70446 11.6046 7.64478 11.6046 6.34221ZM26.3439 8.19615H17.2099C17.8621 7.11909 17.8621 5.56528 17.2099 4.48821H26.344L27.8272 6.34221L26.3439 8.19615Z" fill="#FE7317"/>
<path d="M29.2445 25.2281L27.2113 22.6867C27.0809 22.5236 26.8833 22.4287 26.6745 22.4287H15.8452C13.412 20.971 10.2017 22.8052 10.2297 25.6577C10.2016 28.5097 13.4125 30.3447 15.8451 28.8866H26.6744C26.8833 28.8866 27.0808 28.7917 27.2112 28.6285L29.2444 26.0871C29.4454 25.836 29.4454 25.4792 29.2445 25.2281ZM11.6047 25.6576C11.6047 24.355 12.6644 23.2953 13.9669 23.2953C17.1009 23.4251 17.0999 27.8906 13.9669 28.0199C12.6644 28.0199 11.6047 26.9602 11.6047 25.6576ZM26.344 27.5116H17.2099C17.8622 26.4345 17.8622 24.8807 17.2099 23.8037H26.344L27.8272 25.6576L26.344 27.5116Z" fill="#FE7317"/>
<path d="M31.8428 15.5625L29.7461 13.021C29.6155 12.8627 29.421 12.771 29.2158 12.771H18.3865C16.1897 11.4536 13.2699 12.8249 12.8355 15.3125H9.4575C9.33575 14.476 8.99506 13.71 8.496 13.0733L11.9301 9.47348C11.5429 9.22079 11.2056 8.89848 10.9354 8.52417L7.50125 12.1241C4.41651 9.89335 -0.0213592 12.1649 7.82619e-05 16C-0.0214842 19.8349 4.41726 22.107 7.50125 19.876L10.9354 23.4759C11.2055 23.1016 11.5429 22.7793 11.9301 22.5266L8.496 18.9267C8.995 18.29 9.33575 17.5241 9.4575 16.6875H12.8356C13.2702 19.176 16.1902 20.5461 18.3866 19.229H29.2158C29.4211 19.229 29.6156 19.1373 29.7461 18.979L31.8428 16.4375C32.0524 16.1835 32.0524 15.8165 31.8428 15.5625ZM1.37508 16C1.37508 14.1368 2.89082 12.6212 4.75394 12.6212C9.2365 12.8067 9.23518 19.194 4.75394 19.379C2.89082 19.3789 1.37508 17.8632 1.37508 16ZM16.5084 18.3623C15.2058 18.3623 14.1461 17.3025 14.1461 16C14.2759 12.866 18.7414 12.867 18.8707 16C18.8707 17.3025 17.8109 18.3623 16.5084 18.3623ZM28.8917 17.854H19.7513C20.4035 16.7769 20.4035 15.2231 19.7513 14.146H28.8917L30.4213 16L28.8917 17.854Z" fill="#001070"/>
</g>
<defs>
<clipPath id="clip0_831_4499">
<rect width="32" height="32" fill="white"/>
</clipPath>
</defs>
</svg>
