<svg width="32" height="32" viewBox="0 0 32 32" fill="none" xmlns="http://www.w3.org/2000/svg">
<g clip-path="url(#clip0_830_4455)">
<path d="M29.3751 0H2.62585C1.19579 0 0.0322266 1.1635 0.0322266 2.59363V29.4064C0.0322266 30.8365 1.19579 32 2.62585 32H29.375C30.8052 32 31.9687 30.8365 31.9687 29.4064V2.59363C31.9687 1.1635 30.8052 0 29.3751 0ZM2.62585 1.375H29.375C30.047 1.375 30.5937 1.92169 30.5937 2.59363V7.6245H1.40723V2.59363C1.40723 1.92169 1.95391 1.375 2.62585 1.375ZM29.3751 30.625H2.62585C1.95391 30.625 1.40723 30.0783 1.40723 29.4064V8.9995H30.5937V29.4064C30.5937 30.0783 30.047 30.625 29.3751 30.625Z" fill="#001070"/>
<path d="M27.469 5.18726H15.9688C15.5891 5.18726 15.2812 4.87944 15.2812 4.49976C15.2812 4.12007 15.5891 3.81226 15.9688 3.81226H27.469C27.8487 3.81226 28.1565 4.12007 28.1565 4.49976C28.1565 4.87944 27.8487 5.18726 27.469 5.18726Z" fill="#001070"/>
<path d="M17.8744 28.1242H14.0622C13.6825 28.1242 13.3747 27.8164 13.3747 27.4367V25.6454C12.9667 25.4635 12.5792 25.2389 12.2158 24.9736L10.662 25.8706C10.3332 26.0605 9.91278 25.9477 9.72291 25.619L7.81685 22.3175C7.62697 21.9887 7.73966 21.5682 8.06847 21.3784L9.60447 20.4916C9.57628 20.2542 9.56247 20.0294 9.56247 19.8122C9.56247 19.5952 9.57635 19.3703 9.60447 19.1329L8.06847 18.2461C7.73966 18.0562 7.62697 17.6358 7.81685 17.307L9.72291 14.0055C9.91272 13.6767 10.3332 13.5641 10.662 13.7539L12.2158 14.6509C12.5791 14.3857 12.9666 14.1611 13.3747 13.9791V12.1877C13.3747 11.8081 13.6825 11.5002 14.0622 11.5002H17.8744C18.2541 11.5002 18.5619 11.8081 18.5619 12.1877V13.9791C18.9699 14.161 19.3574 14.3856 19.7207 14.6509L21.2745 13.7539C21.6033 13.5641 22.0238 13.6767 22.2137 14.0055L24.1197 17.307C24.3096 17.6358 24.1969 18.0563 23.8681 18.2461L22.3321 19.1329C22.3603 19.3703 22.3741 19.5952 22.3741 19.8122C22.3741 20.0293 22.3602 20.2541 22.3321 20.4916L23.8681 21.3784C24.1969 21.5682 24.3096 21.9887 24.1197 22.3175L22.2137 25.619C22.0238 25.9478 21.6033 26.0604 21.2745 25.8706L19.7207 24.9736C19.3575 25.2388 18.97 25.4634 18.5619 25.6454V27.4367C18.5619 27.8164 18.2541 28.1242 17.8744 28.1242ZM14.7497 26.7492H17.1869V25.1804C17.1869 24.8896 17.37 24.6301 17.6441 24.5327C18.2169 24.3291 18.7453 24.0227 19.2147 23.6222C19.4362 23.4333 19.7525 23.4044 20.0047 23.5499L21.3665 24.3361L22.5852 22.2254L21.238 21.4477C20.986 21.3022 20.8529 21.0137 20.9057 20.7276C20.9695 20.3821 20.9992 20.0912 20.9992 19.8124C20.9992 19.5335 20.9695 19.2427 20.9057 18.8971C20.8529 18.6109 20.986 18.3225 21.238 18.177L22.5852 17.3992L21.3665 15.2886L20.0047 16.0748C19.7526 16.2203 19.4362 16.1914 19.2147 16.0024C18.7453 15.6019 18.2168 15.2956 17.6441 15.092C17.37 14.9946 17.1869 14.7351 17.1869 14.4442V12.8754H14.7497V14.4442C14.7497 14.7351 14.5665 14.9946 14.2925 15.092C13.7197 15.2956 13.1912 15.6019 12.7218 16.0024C12.5004 16.1914 12.184 16.2203 11.9319 16.0748L10.57 15.2886L9.35141 17.3992L10.6985 18.177C10.9505 18.3225 11.0837 18.6109 11.0308 18.8971C10.9671 19.2426 10.9374 19.5335 10.9374 19.8124C10.9374 20.0912 10.9671 20.3821 11.0308 20.7276C11.0837 21.0138 10.9505 21.3022 10.6985 21.4477L9.35141 22.2254L10.57 24.3361L11.9319 23.5499C12.184 23.4044 12.5004 23.4334 12.7218 23.6222C13.1913 24.0227 13.7197 24.3291 14.2925 24.5327C14.5665 24.6301 14.7497 24.8896 14.7497 25.1804V26.7492Z" fill="#FE7317"/>
<path d="M15.9686 22.4058C14.5385 22.4058 13.375 21.2423 13.375 19.8121C13.375 18.382 14.5385 17.2185 15.9686 17.2185C17.3988 17.2185 18.5622 18.382 18.5622 19.8121C18.5622 21.2423 17.3988 22.4058 15.9686 22.4058ZM15.9686 18.5935C15.2967 18.5935 14.75 19.1402 14.75 19.8121C14.75 20.4841 15.2967 21.0308 15.9686 21.0308C16.6406 21.0308 17.1872 20.4841 17.1872 19.8121C17.1872 19.1402 16.6406 18.5935 15.9686 18.5935Z" fill="#FE7317"/>
<path d="M12.2194 5.25073C11.2316 5.23329 11.3819 3.71311 12.3539 3.88948C13.1502 4.02767 13.0274 5.27048 12.2194 5.25073Z" fill="#001070"/>
<path d="M8.53495 5.25053C7.54689 5.23334 7.69739 3.71259 8.66939 3.88928C9.46533 4.02741 9.34289 5.27084 8.53495 5.25053Z" fill="#001070"/>
<path d="M4.91267 5.25071C3.92498 5.23277 4.07529 3.71327 5.04711 3.88946C5.84367 4.0274 5.72042 5.27102 4.91267 5.25071Z" fill="#001070"/>
</g>
<defs>
<clipPath id="clip0_830_4455">
<rect width="32" height="32" fill="white"/>
</clipPath>
</defs>
</svg>
